Average-Regular.otf.ufo
<glyph name="quotedbl" format="1">
  <advance width="290"/>
  <unicode hex="0022"/>
  <outline>
    <contour>
      <point x="127" y="683" type="line" name="hr00"/>
      <point x="43" y="683"/>
      <point x="36" y="659"/>
      <point x="36" y="659" type="curve"/>
      <point x="55" y="438" type="line"/>
      <point x="96" y="438" smooth="yes"/>
      <point x="95" y="451" smooth="yes"/>
      <point x="95" y="451" type="curve" smooth="yes"/>
    </contour>
    <contour>
      <point x="266" y="683" type="line"/>
      <point x="181" y="683"/>
      <point x="175" y="659"/>
      <point x="175" y="659" type="curve"/>
      <point x="194" y="438" type="line"/>
      <point x="235" y="438"/>
      <point x="234" y="451"/>
      <point x="234" y="451" type="curve"/>
    </contour>
  </outline>
</glyph>
<glyph name="numbersign" format="1">
  <advance width="523"/>
  <unicode hex="0023"/>
  <outline>
    <contour>
      <point x="24" y="223" type="line" name="hr00"/>
      <point x="105" y="223" type="line"/>
      <point x="45" y="-9" type="line"/>
      <point x="110" y="-9" type="line"/>
      <point x="170" y="223" type="line"/>
      <point x="298" y="223" type="line"/>
      <point x="238" y="-9" type="line"/>
      <point x="303" y="-9" type="line"/>
      <point x="363" y="223" type="line"/>
      <point x="460" y="223" type="line"/>
      <point x="460" y="284" type="line"/>
      <point x="378" y="284" type="line"/>
      <point x="404" y="385" type="line"/>
      <point x="499" y="385" type="line"/>
      <point x="499" y="446" type="line"/>
      <point x="420" y="446" type="line"/>
      <point x="479" y="674" type="line"/>
      <point x="414" y="674" type="line"/>
      <point x="355" y="446" type="line"/>
      <point x="227" y="446" type="line"/>
      <point x="286" y="674" type="line"/>
      <point x="221" y="674" type="line"/>
      <point x="162" y="446" type="line"/>
      <point x="65" y="446" type="line"/>
      <point x="65" y="385" type="line"/>
      <point x="146" y="385" type="line"/>
      <point x="120" y="284" type="line"/>
      <point x="24" y="284" type="line"/>
    </contour>
    <contour>
      <point x="211" y="385" type="line"/>
      <point x="339" y="385" type="line"/>
      <point x="313" y="284" type="line"/>
      <point x="185" y="284" type="line"/>
    </contour>
  </outline>
</glyph>
<glyph name="plus" format="1">
  <advance width="523"/>
  <unicode hex="002B"/>
  <outline>
    <contour>
      <point x="231" y="541" type="line" name="hr00"/>
      <point x="231" y="334" type="line"/>
      <point x="24" y="334" type="line"/>
      <point x="24" y="273" type="line"/>
      <point x="231" y="273" type="line"/>
      <point x="231" y="66" type="line"/>
      <point x="292" y="66" type="line"/>
      <point x="292" y="273" type="line"/>
      <point x="499" y="273" type="line"/>
      <point x="499" y="334" type="line"/>
      <point x="292" y="334" type="line"/>
      <point x="292" y="541" type="line"/>
    </contour>
  </outline>
</glyph>
<glyph name="comma" format="1">
  <advance width="214"/>
  <unicode hex="002C"/>
  <outline>
    <contour>
      <point x="112" y="91" type="curve" smooth="yes" name="hr00"/>
      <point x="84" y="91" smooth="yes"/>
      <point x="57" y="73" smooth="yes"/>
      <point x="57" y="41" type="curve" smooth="yes"/>
      <point x="57" y="13" smooth="yes"/>
      <point x="78" y="-8" smooth="yes"/>
      <point x="104" y="-8" type="curve" smooth="yes"/>
      <point x="114" y="-8"/>
      <point x="127" y="-5"/>
      <point x="138" y="7" type="curve"/>
      <point x="138" y="-53"/>
      <point x="90" y="-98"/>
      <point x="30" y="-125" type="curve"/>
      <point x="39" y="-147" type="line"/>
      <point x="145" y="-113" smooth="yes"/>
      <point x="185" y="-48" smooth="yes"/>
      <point x="185" y="5" type="curve" smooth="yes"/>
      <point x="185" y="53" smooth="yes"/>
      <point x="154" y="91" smooth="yes"/>
    </contour>
  </outline>
</glyph>
<glyph name="one" format="1">
  <advance width="403"/>
  <unicode hex="0031"/>
  <outline>
    <contour>
      <point x="242" y="673" type="line"/>
      <point x="204" y="663"/>
      <point x="135" y="653"/>
      <point x="41" y="653" type="curve"/>
      <point x="44" y="617" type="line"/>
      <point x="165" y="596" type="line"/>
      <point x="165" y="596" smooth="yes"/>
      <point x="172" y="557" smooth="yes"/>
      <point x="172" y="342" type="curve" smooth="yes"/>
      <point x="172" y="128"/>
      <point x="165" y="69"/>
      <point x="165" y="69" type="curve"/>
      <point x="162" y="44"/>
      <point x="106" y="38"/>
      <point x="46" y="26" type="curve"/>
      <point x="49" y="-3" type="line"/>
      <point x="101" y="-1" smooth="yes"/>
      <point x="162" y="0" smooth="yes"/>
      <point x="222" y="0" type="curve" smooth="yes" name="hr01"/>
      <point x="269" y="0"/>
      <point x="315" y="-1"/>
      <point x="355" y="-3" type="curve" name="hr02"/>
      <point x="358" y="26" type="line"/>
      <point x="298" y="38"/>
      <point x="270" y="44"/>
      <point x="267" y="69" type="curve"/>
      <point x="267" y="69" smooth="yes"/>
      <point x="259" y="127" smooth="yes"/>
      <point x="259" y="342" type="curve" smooth="yes"/>
      <point x="259" y="557"/>
      <point x="263" y="663"/>
      <point x="263" y="663" type="curve"/>
    </contour>
  </outline>
</glyph>
<glyph name="two" format="1">
  <advance width="517"/>
  <unicode hex="0032"/>
  <outline>
    <contour>
      <point x="444" y="492" type="curve" smooth="yes" name="hr00"/>
      <point x="444" y="613" smooth="yes"/>
      <point x="350" y="673" smooth="yes"/>
      <point x="249" y="673" type="curve" smooth="yes"/>
      <point x="160" y="673"/>
      <point x="98" y="635"/>
      <point x="49" y="594" type="curve"/>
      <point x="63" y="566" type="line"/>
      <point x="93" y="582" smooth="yes"/>
      <point x="158" y="605" smooth="yes"/>
      <point x="219" y="605" type="curve" smooth="yes"/>
      <point x="287" y="605" smooth="yes"/>
      <point x="349" y="576" smooth="yes"/>
      <point x="349" y="479" type="curve" smooth="yes"/>
      <point x="349" y="293"/>
      <point x="30" y="40"/>
      <point x="30" y="40" type="curve"/>
      <point x="42" y="0" type="line"/>
      <point x="444" y="0" type="line"/>
      <point x="446" y="36"/>
      <point x="456" y="123"/>
      <point x="468" y="159" type="curve"/>
      <point x="441" y="171" type="line"/>
      <point x="409" y="72"/>
      <point x="372" y="66"/>
      <point x="131" y="66" type="curve"/>
      <point x="129" y="71" type="line"/>
      <point x="178" y="105" smooth="yes"/>
      <point x="444" y="294" smooth="yes"/>
    </contour>
  </outline>
</glyph>
<glyph name="three" format="1">
  <advance width="480"/>
  <unicode hex="0033"/>
  <outline>
    <contour>
      <point x="247" y="375" type="line" name="hr00"/>
      <point x="355" y="431" smooth="yes"/>
      <point x="396" y="497" smooth="yes"/>
      <point x="396" y="552" type="curve" smooth="yes"/>
      <point x="396" y="621" smooth="yes"/>
      <point x="332" y="674" smooth="yes"/>
      <point x="247" y="674" type="curve" smooth="yes"/>
      <point x="191" y="674"/>
      <point x="126" y="651"/>
      <point x="64" y="594" type="curve"/>
      <point x="78" y="566" type="line"/>
      <point x="133" y="600" smooth="yes"/>
      <point x="179" y="614" smooth="yes"/>
      <point x="215" y="614" type="curve" smooth="yes"/>
      <point x="272" y="614" smooth="yes"/>
      <point x="304" y="580" smooth="yes"/>
      <point x="304" y="535" type="curve" smooth="yes"/>
      <point x="304" y="482"/>
      <point x="250" y="390"/>
      <point x="109" y="358" type="curve"/>
      <point x="106" y="319" type="line"/>
      <point x="133" y="326" smooth="yes"/>
      <point x="158" y="329" smooth="yes"/>
      <point x="181" y="329" type="curve" smooth="yes"/>
      <point x="284" y="329" smooth="yes"/>
      <point x="335" y="263" smooth="yes"/>
      <point x="335" y="190" type="curve" smooth="yes"/>
      <point x="335" y="101" smooth="yes"/>
      <point x="260" y="6" smooth="yes"/>
      <point x="110" y="6" type="curve" smooth="yes"/>
      <point x="85" y="6"/>
      <point x="58" y="9"/>
      <point x="28" y="15" type="curve"/>
      <point x="25" y="-33" type="line"/>
      <point x="57" y="-40" smooth="yes"/>
      <point x="87" y="-43" smooth="yes"/>
      <point x="116" y="-43" type="curve" smooth="yes"/>
      <point x="310" y="-43" smooth="yes"/>
      <point x="430" y="86" smooth="yes"/>
      <point x="430" y="203" type="curve" smooth="yes"/>
      <point x="430" y="282"/>
      <point x="379" y="351"/>
      <point x="247" y="370" type="curve"/>
    </contour>
  </outline>
</glyph>
<glyph name="four" format="1">
  <advance width="523"/>
  <unicode hex="0034"/>
  <outline>
    <contour>
      <point x="407" y="450" type="curve"/>
      <point x="318" y="446"/>
      <point x="320" y="426"/>
      <point x="320" y="426" type="curve"/>
      <point x="320" y="241" type="line"/>
      <point x="92" y="241" type="line"/>
      <point x="366" y="697" type="line"/>
      <point x="275" y="706" type="line"/>
      <point x="20" y="225" type="line"/>
      <point x="32" y="186" type="line"/>
      <point x="319" y="186" type="line"/>
      <point x="316" y="92"/>
      <point x="313" y="69"/>
      <point x="313" y="69" type="curve"/>
      <point x="310" y="44"/>
      <point x="254" y="38"/>
      <point x="194" y="26" type="curve"/>
      <point x="197" y="-3" type="line"/>
      <point x="239" y="-1" smooth="yes"/>
      <point x="309" y="0" smooth="yes"/>
      <point x="359" y="0" type="curve" smooth="yes" name="hr01"/>
      <point x="409" y="0"/>
      <point x="454" y="-1"/>
      <point x="496" y="-3" type="curve" name="hr02"/>
      <point x="499" y="26" type="line"/>
      <point x="439" y="38"/>
      <point x="418" y="44"/>
      <point x="415" y="69" type="curve"/>
      <point x="415" y="69"/>
      <point x="411" y="94"/>
      <point x="409" y="185" type="curve"/>
      <point x="457" y="183"/>
      <point x="457" y="181"/>
      <point x="457" y="181" type="curve"/>
      <point x="495" y="227" type="line"/>
      <point x="489" y="242" type="line"/>
      <point x="408" y="242" type="line"/>
      <point x="407" y="278"/>
      <point x="407" y="338"/>
    </contour>
  </outline>
</glyph>
<glyph name="five" format="1">
  <advance width="489"/>
  <unicode hex="0035"/>
  <outline>
    <contour>
      <point x="65" y="414" type="line" name="hr00"/>
      <point x="77" y="375" type="line"/>
      <point x="258" y="375" smooth="yes"/>
      <point x="344" y="287" smooth="yes"/>
      <point x="344" y="191" type="curve" smooth="yes"/>
      <point x="344" y="99" smooth="yes"/>
      <point x="261" y="7" smooth="yes"/>
      <point x="106" y="7" type="curve" smooth="yes"/>
      <point x="85" y="7"/>
      <point x="63" y="9"/>
      <point x="39" y="12" type="curve"/>
      <point x="36" y="-33" type="line"/>
      <point x="69" y="-40" smooth="yes"/>
      <point x="100" y="-43" smooth="yes"/>
      <point x="129" y="-43" type="curve" smooth="yes"/>
      <point x="319" y="-43" smooth="yes"/>
      <point x="439" y="89" smooth="yes"/>
      <point x="439" y="214" type="curve" smooth="yes"/>
      <point x="439" y="325"/>
      <point x="344" y="432"/>
      <point x="120" y="439" type="curve"/>
      <point x="148" y="592" type="line"/>
      <point x="276" y="604" smooth="yes"/>
      <point x="294" y="604" smooth="yes"/>
      <point x="310" y="604" type="curve" smooth="yes"/>
      <point x="359" y="604"/>
      <point x="383" y="598"/>
      <point x="383" y="598" type="curve"/>
      <point x="424" y="675" type="line"/>
      <point x="417" y="690" type="line"/>
      <point x="112" y="657" type="line"/>
    </contour>
  </outline>
</glyph>
<glyph name="seven" format="1">
  <advance width="477"/>
  <unicode hex="0037"/>
  <outline>
    <contour>
      <point x="477" y="638" type="line" name="hr00"/>
      <point x="474" y="667" type="line"/>
      <point x="456" y="666" smooth="yes"/>
      <point x="394" y="666" smooth="yes"/>
      <point x="318" y="666" type="curve" smooth="yes"/>
      <point x="219" y="666"/>
      <point x="104" y="667"/>
      <point x="57" y="670" type="curve"/>
      <point x="57" y="624"/>
      <point x="52" y="547"/>
      <point x="45" y="508" type="curve"/>
      <point x="72" y="496" type="line"/>
      <point x="103" y="604" smooth="yes"/>
      <point x="149" y="600" smooth="yes"/>
      <point x="321" y="600" type="curve" smooth="yes"/>
      <point x="362" y="600"/>
      <point x="389" y="597"/>
      <point x="392" y="577" type="curve"/>
      <point x="104" y="-24" type="line"/>
      <point x="195" y="-33" type="line"/>
    </contour>
  </outline>
</glyph>
<glyph name="eight" format="1">
  <advance width="505"/>
  <unicode hex="0038"/>
  <outline>
    <contour>
      <point x="250" y="629" type="curve" name="hr00"/>
      <point x="323" y="629" smooth="yes"/>
      <point x="357" y="580" smooth="yes"/>
      <point x="357" y="523" type="curve" smooth="yes"/>
      <point x="357" y="475"/>
      <point x="328" y="414"/>
      <point x="273" y="383" type="curve"/>
      <point x="222" y="412" smooth="yes"/>
      <point x="154" y="461" smooth="yes"/>
      <point x="154" y="534" type="curve" smooth="yes"/>
      <point x="154" y="587" smooth="yes"/>
      <point x="192" y="629" smooth="yes"/>
    </contour>
    <contour>
      <point x="251" y="41" type="curve"/>
      <point x="171" y="41" smooth="yes"/>
      <point x="132" y="99" smooth="yes"/>
      <point x="132" y="164" type="curve" smooth="yes"/>
      <point x="132" y="225"/>
      <point x="166" y="286"/>
      <point x="231" y="318" type="curve"/>
      <point x="330" y="275" smooth="yes"/>
      <point x="366" y="217" smooth="yes"/>
      <point x="366" y="162" type="curve" smooth="yes"/>
      <point x="366" y="97" smooth="yes"/>
      <point x="314" y="41" smooth="yes"/>
    </contour>
    <contour>
      <point x="460" y="170" type="curve"/>
      <point x="460" y="243"/>
      <point x="415" y="309"/>
      <point x="309" y="364" type="curve"/>
      <point x="399" y="398" smooth="yes"/>
      <point x="438" y="470" smooth="yes"/>
      <point x="438" y="530" type="curve" smooth="yes"/>
      <point x="438" y="605" smooth="yes"/>
      <point x="375" y="673" smooth="yes"/>
      <point x="259" y="673" type="curve" smooth="yes"/>
      <point x="147" y="673" smooth="yes"/>
      <point x="62" y="604" smooth="yes"/>
      <point x="62" y="514" type="curve" smooth="yes"/>
      <point x="62" y="468"/>
      <point x="87" y="400"/>
      <point x="193" y="336" type="curve"/>
      <point x="92" y="302" smooth="yes"/>
      <point x="45" y="227" smooth="yes"/>
      <point x="45" y="156" type="curve" smooth="yes"/>
      <point x="45" y="70" smooth="yes"/>
      <point x="113" y="-9" smooth="yes"/>
      <point x="241" y="-9" type="curve" smooth="yes"/>
      <point x="368" y="-9" smooth="yes"/>
      <point x="460" y="71" smooth="yes"/>
    </contour>
  </outline>
</glyph>
<glyph name="question" format="1">
  <advance width="343"/>
  <unicode hex="003F"/>
  <outline>
    <contour>
      <point x="148" y="-9" type="curve" smooth="yes" name="hr00"/>
      <point x="177" y="-9" smooth="yes"/>
      <point x="201" y="14" smooth="yes"/>
      <point x="201" y="46" type="curve" smooth="yes"/>
      <point x="201" y="76" smooth="yes"/>
      <point x="177" y="99" smooth="yes"/>
      <point x="148" y="99" type="curve" smooth="yes"/>
      <point x="119" y="99" smooth="yes"/>
      <point x="95" y="76" smooth="yes"/>
      <point x="95" y="46" type="curve" smooth="yes"/>
      <point x="95" y="14" smooth="yes"/>
      <point x="119" y="-9" smooth="yes"/>
    </contour>
    <contour>
      <point x="68" y="584" type="curve"/>
      <point x="185" y="581" smooth="yes"/>
      <point x="246" y="545" smooth="yes"/>
      <point x="246" y="498" type="curve" smooth="yes"/>
      <point x="246" y="425" smooth="yes"/>
      <point x="77" y="381" smooth="yes"/>
      <point x="77" y="299" type="curve" smooth="yes"/>
      <point x="77" y="265"/>
      <point x="89" y="220"/>
      <point x="130" y="159" type="curve"/>
      <point x="168" y="168" type="line"/>
      <point x="155" y="197" smooth="yes"/>
      <point x="153" y="220" smooth="yes"/>
      <point x="153" y="243" type="curve" smooth="yes"/>
      <point x="153" y="350" smooth="yes"/>
      <point x="293" y="369" smooth="yes"/>
      <point x="293" y="470" type="curve" smooth="yes"/>
      <point x="293" y="543"/>
      <point x="235" y="621"/>
      <point x="72" y="693" type="curve"/>
      <point x="55" y="680" smooth="yes"/>
      <point x="50" y="661" smooth="yes"/>
      <point x="50" y="642" type="curve" smooth="yes"/>
      <point x="50" y="626"/>
      <point x="59" y="595"/>
    </contour>
  </outline>
</glyph>
<glyph name="B" format="1">
  <advance width="626"/>
  <unicode hex="0042"/>
  <outline>
    <contour>
      <point x="32" y="-3" type="line"/>
      <point x="73" y="-1" smooth="yes"/>
      <point x="122" y="0" smooth="yes"/>
      <point x="173" y="0" type="curve" smooth="yes" name="hr01"/>
      <point x="357" y="0" type="line" smooth="yes"/>
      <point x="479" y="0" smooth="yes"/>
      <point x="577" y="87" smooth="yes"/>
      <point x="577" y="194" type="curve" smooth="yes"/>
      <point x="577" y="292"/>
      <point x="530" y="348"/>
      <point x="428" y="372" type="curve"/>
      <point x="492" y="404" smooth="yes"/>
      <point x="533" y="463" smooth="yes"/>
      <point x="533" y="525" type="curve" smooth="yes"/>
      <point x="533" y="622" smooth="yes"/>
      <point x="457" y="685" smooth="yes"/>
      <point x="341" y="685" type="curve" smooth="yes"/>
      <point x="173" y="685" type="line" smooth="yes"/>
      <point x="124" y="685"/>
      <point x="82" y="686"/>
      <point x="39" y="688" type="curve" name="hr02"/>
      <point x="36" y="659" type="line"/>
      <point x="102" y="645"/>
      <point x="115" y="639"/>
      <point x="118" y="616" type="curve"/>
      <point x="118" y="616" smooth="yes"/>
      <point x="126" y="557" smooth="yes"/>
      <point x="126" y="342" type="curve" smooth="yes"/>
      <point x="126" y="221" smooth="yes"/>
      <point x="122" y="100" smooth="yes"/>
      <point x="118" y="69" type="curve" smooth="yes"/>
      <point x="115" y="47"/>
      <point x="100" y="40"/>
      <point x="29" y="26" type="curve"/>
    </contour>
    <contour>
      <point x="327" y="36" type="curve" name="hr03"/>
      <point x="271" y="36" smooth="yes"/>
      <point x="232" y="48" smooth="yes"/>
      <point x="226" y="68" type="curve" smooth="yes"/>
      <point x="221" y="86"/>
      <point x="215" y="206"/>
      <point x="215" y="335" type="curve"/>
      <point x="237" y="337" smooth="yes"/>
      <point x="258" y="338" smooth="yes"/>
      <point x="278" y="338" type="curve" smooth="yes"/>
      <point x="412" y="338" smooth="yes"/>
      <point x="482" y="288" smooth="yes"/>
      <point x="482" y="193" type="curve" smooth="yes"/>
      <point x="482" y="102" smooth="yes"/>
      <point x="417" y="36" smooth="yes"/>
    </contour>
    <contour>
      <point x="215" y="368" type="curve"/>
      <point x="215" y="488" smooth="yes"/>
      <point x="221" y="599" smooth="yes"/>
      <point x="226" y="621" type="curve" smooth="yes"/>
      <point x="231" y="640" smooth="yes"/>
      <point x="239" y="643" smooth="yes"/>
      <point x="287" y="643" type="curve" smooth="yes"/>
      <point x="386" y="643" smooth="yes"/>
      <point x="439" y="602" smooth="yes"/>
      <point x="439" y="525" type="curve" smooth="yes"/>
      <point x="439" y="460"/>
      <point x="414" y="412"/>
      <point x="364" y="380" type="curve"/>
      <point x="335" y="380"/>
      <point x="240" y="372"/>
    </contour>
  </outline>
</glyph>
<glyph name="D" format="1">
  <advance width="769"/>
  <unicode hex="0044"/>
  <outline>
    <contour>
      <point x="173" y="685" type="line"/>
      <point x="123" y="685"/>
      <point x="81" y="686"/>
      <point x="39" y="688" type="curve" name="hr01"/>
      <point x="36" y="659" type="line"/>
      <point x="96" y="647"/>
      <point x="115" y="641"/>
      <point x="118" y="616" type="curve"/>
      <point x="118" y="616" smooth="yes"/>
      <point x="126" y="557" smooth="yes"/>
      <point x="126" y="342" type="curve" smooth="yes"/>
      <point x="126" y="128"/>
      <point x="118" y="69"/>
      <point x="118" y="69" type="curve"/>
      <point x="115" y="44"/>
      <point x="89" y="38"/>
      <point x="29" y="26" type="curve"/>
      <point x="32" y="-3" type="line"/>
      <point x="74" y="-1"/>
      <point x="123" y="0"/>
      <point x="173" y="0" type="curve" name="hr02"/>
      <point x="334" y="0" type="line" smooth="yes"/>
      <point x="596" y="0" smooth="yes"/>
      <point x="720" y="161" smooth="yes"/>
      <point x="720" y="365" type="curve" smooth="yes"/>
      <point x="720" y="599"/>
      <point x="528" y="685"/>
      <point x="351" y="685" type="curve"/>
    </contour>
    <contour>
      <point x="227" y="60" type="curve"/>
      <point x="227" y="60" smooth="yes"/>
      <point x="216" y="128" smooth="yes"/>
      <point x="216" y="343" type="curve" smooth="yes"/>
      <point x="216" y="557"/>
      <point x="227" y="622"/>
      <point x="227" y="622" type="curve"/>
      <point x="231" y="639"/>
      <point x="240" y="643"/>
      <point x="289" y="643" type="curve"/>
      <point x="565" y="643" smooth="yes"/>
      <point x="615" y="483" smooth="yes"/>
      <point x="615" y="350" type="curve" smooth="yes"/>
      <point x="615" y="270" smooth="yes"/>
      <point x="588" y="48" smooth="yes"/>
      <point x="330" y="48" type="curve" smooth="yes"/>
      <point x="293" y="48"/>
      <point x="263" y="52"/>
    </contour>
  </outline>
</glyph>
<glyph name="E" format="1">
  <advance width="608"/>
  <unicode hex="0045"/>
  <outline>
    <contour>
      <point x="453" y="236" type="line"/>
      <point x="448" y="273" smooth="yes"/>
      <point x="445" y="310" smooth="yes"/>
      <point x="445" y="348" type="curve" smooth="yes"/>
      <point x="445" y="385"/>
      <point x="448" y="423"/>
      <point x="453" y="459" type="curve"/>
      <point x="418" y="463" type="line"/>
      <point x="405" y="396" smooth="yes"/>
      <point x="400" y="381" smooth="yes"/>
      <point x="375" y="375" type="curve" smooth="yes"/>
      <point x="350" y="369"/>
      <point x="278" y="367"/>
      <point x="215" y="367" type="curve"/>
      <point x="216" y="556"/>
      <point x="226" y="621"/>
      <point x="226" y="621" type="curve"/>
      <point x="230" y="642" smooth="yes"/>
      <point x="270" y="643" smooth="yes"/>
      <point x="318" y="643" type="curve" smooth="yes"/>
      <point x="447" y="643"/>
      <point x="481" y="630"/>
      <point x="516" y="517" type="curve"/>
      <point x="543" y="529" type="line"/>
      <point x="537" y="563"/>
      <point x="531" y="634"/>
      <point x="531" y="676" type="curve"/>
      <point x="531" y="691" type="line" name="hr01"/>
      <point x="449" y="685" smooth="yes"/>
      <point x="280" y="685" smooth="yes"/>
      <point x="151" y="685" type="curve" smooth="yes" name="hr02"/>
      <point x="101" y="685"/>
      <point x="80" y="686"/>
      <point x="38" y="688" type="curve"/>
      <point x="35" y="659" type="line"/>
      <point x="95" y="647"/>
      <point x="114" y="641"/>
      <point x="117" y="616" type="curve"/>
      <point x="117" y="616" smooth="yes"/>
      <point x="125" y="557" smooth="yes"/>
      <point x="125" y="342" type="curve" smooth="yes"/>
      <point x="125" y="127"/>
      <point x="116" y="69"/>
      <point x="116" y="69" type="curve"/>
      <point x="113" y="44"/>
      <point x="87" y="38"/>
      <point x="27" y="26" type="curve"/>
      <point x="30" y="-3" type="line"/>
      <point x="72" y="-1" smooth="yes"/>
      <point x="100" y="0" smooth="yes"/>
      <point x="150" y="0" type="curve" smooth="yes" name="hr03"/>
      <point x="550" y="0" type="line"/>
      <point x="552" y="36"/>
      <point x="562" y="123"/>
      <point x="574" y="159" type="curve"/>
      <point x="547" y="171" type="line"/>
      <point x="506" y="43" smooth="yes"/>
      <point x="430" y="36" smooth="yes"/>
      <point x="327" y="36" type="curve" smooth="yes"/>
      <point x="284" y="36"/>
      <point x="233" y="44"/>
      <point x="226" y="68" type="curve"/>
      <point x="226" y="68"/>
      <point x="215" y="121"/>
      <point x="215" y="327" type="curve"/>
      <point x="278" y="327" smooth="yes"/>
      <point x="350" y="325" smooth="yes"/>
      <point x="375" y="319" type="curve" smooth="yes"/>
      <point x="400" y="313"/>
      <point x="405" y="298"/>
      <point x="418" y="231" type="curve"/>
    </contour>
  </outline>
</glyph>
<glyph name="F" format="1">
  <advance width="554"/>
  <unicode hex="0046"/>
  <outline>
    <contour>
      <point x="216" y="327" type="curve"/>
      <point x="279" y="327" smooth="yes"/>
      <point x="359" y="325" smooth="yes"/>
      <point x="384" y="319" type="curve" smooth="yes"/>
      <point x="409" y="313"/>
      <point x="414" y="298"/>
      <point x="427" y="231" type="curve"/>
      <point x="462" y="236" type="line"/>
      <point x="457" y="273" smooth="yes"/>
      <point x="454" y="310" smooth="yes"/>
      <point x="454" y="348" type="curve" smooth="yes"/>
      <point x="454" y="385"/>
      <point x="457" y="423"/>
      <point x="462" y="459" type="curve"/>
      <point x="427" y="463" type="line"/>
      <point x="414" y="396" smooth="yes"/>
      <point x="409" y="381" smooth="yes"/>
      <point x="384" y="375" type="curve" smooth="yes"/>
      <point x="359" y="369"/>
      <point x="279" y="367"/>
      <point x="216" y="367" type="curve"/>
      <point x="217" y="558"/>
      <point x="225" y="621"/>
      <point x="225" y="621" type="curve"/>
      <point x="227" y="643" smooth="yes"/>
      <point x="258" y="643" smooth="yes"/>
      <point x="306" y="643" type="curve" smooth="yes"/>
      <point x="435" y="643"/>
      <point x="469" y="630"/>
      <point x="504" y="517" type="curve"/>
      <point x="531" y="529" type="line"/>
      <point x="525" y="563" smooth="yes"/>
      <point x="519" y="634" smooth="yes"/>
      <point x="519" y="676" type="curve" smooth="yes"/>
      <point x="519" y="691" type="line" name="hr01"/>
      <point x="437" y="685" smooth="yes"/>
      <point x="268" y="685" smooth="yes"/>
      <point x="139" y="685" type="curve" smooth="yes" name="hr02"/>
      <point x="89" y="685"/>
      <point x="81" y="686"/>
      <point x="39" y="688" type="curve"/>
      <point x="36" y="659" type="line"/>
      <point x="96" y="647"/>
      <point x="115" y="641"/>
      <point x="118" y="616" type="curve"/>
      <point x="118" y="616" smooth="yes"/>
      <point x="126" y="557" smooth="yes"/>
      <point x="126" y="342" type="curve" smooth="yes"/>
      <point x="126" y="128"/>
      <point x="118" y="69"/>
      <point x="118" y="69" type="curve"/>
      <point x="115" y="44"/>
      <point x="89" y="38"/>
      <point x="29" y="26" type="curve"/>
      <point x="32" y="-3" type="line"/>
      <point x="74" y="-1" smooth="yes"/>
      <point x="123" y="0" smooth="yes"/>
      <point x="173" y="0" type="curve" smooth="yes" name="hr03"/>
      <point x="223" y="0"/>
      <point x="264" y="-1"/>
      <point x="306" y="-3" type="curve" name="hr04"/>
      <point x="309" y="26" type="line"/>
      <point x="249" y="38"/>
      <point x="227" y="44"/>
      <point x="224" y="69" type="curve"/>
      <point x="224" y="69"/>
      <point x="216" y="126"/>
    </contour>
  </outline>
</glyph>
<glyph name="H" format="1">
  <advance width="803"/>
  <unicode hex="0048"/>
  <outline>
    <contour>
      <point x="587" y="384" type="curve"/>
      <point x="587" y="384" smooth="yes"/>
      <point x="548" y="379" smooth="yes"/>
      <point x="401" y="379" type="curve" smooth="yes"/>
      <point x="255" y="379"/>
      <point x="216" y="384"/>
      <point x="216" y="384" type="curve"/>
      <point x="217" y="568"/>
      <point x="224" y="616"/>
      <point x="224" y="616" type="curve"/>
      <point x="227" y="641"/>
      <point x="246" y="647"/>
      <point x="306" y="659" type="curve"/>
      <point x="303" y="688" type="line"/>
      <point x="261" y="686" smooth="yes"/>
      <point x="223" y="685" smooth="yes"/>
      <point x="173" y="685" type="curve" smooth="yes"/>
      <point x="123" y="685"/>
      <point x="81" y="686"/>
      <point x="39" y="688" type="curve"/>
      <point x="36" y="659" type="line"/>
      <point x="96" y="647"/>
      <point x="115" y="641"/>
      <point x="118" y="616" type="curve"/>
      <point x="118" y="616" smooth="yes"/>
      <point x="126" y="557" smooth="yes"/>
      <point x="126" y="342" type="curve" smooth="yes"/>
      <point x="126" y="128"/>
      <point x="118" y="69"/>
      <point x="118" y="69" type="curve"/>
      <point x="115" y="44"/>
      <point x="89" y="38"/>
      <point x="29" y="26" type="curve"/>
      <point x="32" y="-3" type="line"/>
      <point x="74" y="-1" smooth="yes"/>
      <point x="123" y="0" smooth="yes"/>
      <point x="173" y="0" type="curve" smooth="yes" name="hr01"/>
      <point x="223" y="0"/>
      <point x="264" y="-1"/>
      <point x="306" y="-3" type="curve" name="hr02"/>
      <point x="309" y="26" type="line"/>
      <point x="249" y="38"/>
      <point x="227" y="44"/>
      <point x="224" y="69" type="curve"/>
      <point x="224" y="69"/>
      <point x="216" y="121"/>
      <point x="216" y="328" type="curve"/>
      <point x="216" y="328" smooth="yes"/>
      <point x="255" y="333" smooth="yes"/>
      <point x="401" y="333" type="curve" smooth="yes"/>
      <point x="548" y="333"/>
      <point x="587" y="328"/>
      <point x="587" y="328" type="curve"/>
      <point x="587" y="122"/>
      <point x="579" y="69"/>
      <point x="579" y="69" type="curve"/>
      <point x="576" y="44"/>
      <point x="550" y="38"/>
      <point x="490" y="26" type="curve"/>
      <point x="493" y="-3" type="line"/>
      <point x="535" y="-1" smooth="yes"/>
      <point x="584" y="0" smooth="yes"/>
      <point x="634" y="0" type="curve" smooth="yes" name="hr03"/>
      <point x="684" y="0"/>
      <point x="725" y="-1"/>
      <point x="767" y="-3" type="curve" name="hr04"/>
      <point x="770" y="26" type="line"/>
      <point x="710" y="38"/>
      <point x="688" y="44"/>
      <point x="685" y="69" type="curve"/>
      <point x="685" y="69" smooth="yes"/>
      <point x="677" y="127" smooth="yes"/>
      <point x="677" y="342" type="curve" smooth="yes"/>
      <point x="677" y="557"/>
      <point x="685" y="616"/>
      <point x="685" y="616" type="curve"/>
      <point x="688" y="641"/>
      <point x="707" y="647"/>
      <point x="767" y="659" type="curve"/>
      <point x="764" y="688" type="line"/>
      <point x="722" y="686" smooth="yes"/>
      <point x="684" y="685" smooth="yes"/>
      <point x="634" y="685" type="curve" smooth="yes"/>
      <point x="584" y="685"/>
      <point x="542" y="686"/>
      <point x="500" y="688" type="curve"/>
      <point x="497" y="659" type="line"/>
      <point x="557" y="647"/>
      <point x="576" y="641"/>
      <point x="579" y="616" type="curve"/>
      <point x="579" y="616"/>
      <point x="586" y="569"/>
    </contour>
  </outline>
</glyph>
<glyph name="K" format="1">
  <advance width="696"/>
  <unicode hex="004B"/>
  <outline>
    <contour>
      <point x="224" y="69" type="curve"/>
      <point x="224" y="69"/>
      <point x="217" y="120"/>
      <point x="216" y="296" type="curve"/>
      <point x="269" y="346" type="line"/>
      <point x="525" y="-9" type="line"/>
      <point x="525" y="-9"/>
      <point x="628" y="-3"/>
      <point x="692" y="-3" type="curve" name="hr01"/>
      <point x="695" y="26" type="line"/>
      <point x="635" y="31"/>
      <point x="612" y="43"/>
      <point x="612" y="43" type="curve"/>
      <point x="334" y="407" type="line"/>
      <point x="549" y="611" type="line" smooth="yes"/>
      <point x="569" y="630"/>
      <point x="603" y="647"/>
      <point x="663" y="659" type="curve"/>
      <point x="660" y="688" type="line"/>
      <point x="618" y="686" smooth="yes"/>
      <point x="596" y="685" smooth="yes"/>
      <point x="546" y="685" type="curve" smooth="yes"/>
      <point x="496" y="685"/>
      <point x="455" y="686"/>
      <point x="413" y="688" type="curve"/>
      <point x="410" y="659" type="line"/>
      <point x="459" y="649" smooth="yes"/>
      <point x="484" y="636" smooth="yes"/>
      <point x="484" y="625" type="curve" smooth="yes"/>
      <point x="484" y="623" smooth="yes"/>
      <point x="483" y="620" smooth="yes"/>
      <point x="480" y="618" type="curve" smooth="yes"/>
      <point x="216" y="365" type="line"/>
      <point x="216" y="560"/>
      <point x="224" y="616"/>
      <point x="224" y="616" type="curve"/>
      <point x="227" y="641"/>
      <point x="246" y="647"/>
      <point x="306" y="659" type="curve"/>
      <point x="303" y="688" type="line"/>
      <point x="261" y="686" smooth="yes"/>
      <point x="223" y="685" smooth="yes"/>
      <point x="173" y="685" type="curve" smooth="yes"/>
      <point x="123" y="685"/>
      <point x="81" y="686"/>
      <point x="39" y="688" type="curve"/>
      <point x="36" y="659" type="line"/>
      <point x="96" y="647"/>
      <point x="115" y="641"/>
      <point x="118" y="616" type="curve"/>
      <point x="118" y="616" smooth="yes"/>
      <point x="126" y="557" smooth="yes"/>
      <point x="126" y="342" type="curve" smooth="yes"/>
      <point x="126" y="128"/>
      <point x="118" y="69"/>
      <point x="118" y="69" type="curve"/>
      <point x="115" y="44"/>
      <point x="89" y="38"/>
      <point x="29" y="26" type="curve"/>
      <point x="32" y="-3" type="line"/>
      <point x="74" y="-1" smooth="yes"/>
      <point x="123" y="0" smooth="yes"/>
      <point x="173" y="0" type="curve" smooth="yes" name="hr02"/>
      <point x="223" y="0"/>
      <point x="264" y="-1"/>
      <point x="306" y="-3" type="curve" name="hr03"/>
      <point x="309" y="26" type="line"/>
      <point x="249" y="38"/>
      <point x="227" y="44"/>
    </contour>
  </outline>
</glyph>
<glyph name="M" format="1">
  <advance width="922"/>
  <unicode hex="004D"/>
  <outline>
    <contour>
      <point x="695" y="526" type="line"/>
      <point x="701" y="431" smooth="yes"/>
      <point x="708" y="245" smooth="yes"/>
      <point x="708" y="158" type="curve" smooth="yes"/>
      <point x="708" y="102"/>
      <point x="707" y="69"/>
      <point x="707" y="69" type="curve"/>
      <point x="707" y="44"/>
      <point x="678" y="38"/>
      <point x="618" y="26" type="curve"/>
      <point x="621" y="-3" type="line"/>
      <point x="663" y="-1" smooth="yes"/>
      <point x="712" y="0" smooth="yes"/>
      <point x="762" y="0" type="curve" smooth="yes"/>
      <point x="812" y="0"/>
      <point x="853" y="-1"/>
      <point x="895" y="-3" type="curve"/>
      <point x="898" y="26" type="line"/>
      <point x="838" y="38"/>
      <point x="816" y="44"/>
      <point x="813" y="69" type="curve"/>
      <point x="813" y="69" smooth="yes"/>
      <point x="806" y="117" smooth="yes"/>
      <point x="795" y="342" type="curve" smooth="yes"/>
      <point x="794" y="374" smooth="yes"/>
      <point x="790" y="505" smooth="yes"/>
      <point x="790" y="522" type="curve" smooth="yes"/>
      <point x="790" y="596"/>
      <point x="794" y="616"/>
      <point x="794" y="616" type="curve"/>
      <point x="797" y="641"/>
      <point x="816" y="647"/>
      <point x="876" y="659" type="curve"/>
      <point x="873" y="688" type="line"/>
      <point x="831" y="686"/>
      <point x="746" y="685"/>
      <point x="696" y="685" type="curve"/>
      <point x="458" y="95" type="line"/>
      <point x="220" y="685" type="line"/>
      <point x="170" y="685"/>
      <point x="88" y="686"/>
      <point x="46" y="688" type="curve"/>
      <point x="43" y="659" type="line"/>
      <point x="103" y="647"/>
      <point x="122" y="641"/>
      <point x="125" y="616" type="curve"/>
      <point x="125" y="616" smooth="yes"/>
      <point x="129" y="582" smooth="yes"/>
      <point x="129" y="483" type="curve" smooth="yes"/>
      <point x="129" y="327" smooth="yes"/>
      <point x="126" y="207" smooth="yes"/>
      <point x="109" y="69" type="curve" smooth="yes"/>
      <point x="106" y="45"/>
      <point x="83" y="38"/>
      <point x="23" y="26" type="curve"/>
      <point x="26" y="-3" type="line"/>
      <point x="68" y="0" smooth="yes"/>
      <point x="87" y="0" smooth="yes"/>
      <point x="137" y="0" type="curve" smooth="yes"/>
      <point x="187" y="0"/>
      <point x="237" y="-1"/>
      <point x="279" y="-3" type="curve"/>
      <point x="282" y="26" type="line"/>
      <point x="222" y="38"/>
      <point x="191" y="44"/>
      <point x="188" y="69" type="curve"/>
      <point x="188" y="69" smooth="yes"/>
      <point x="185" y="101" smooth="yes"/>
      <point x="185" y="174" type="curve" smooth="yes"/>
      <point x="185" y="291"/>
      <point x="192" y="408"/>
      <point x="195" y="526" type="curve"/>
      <point x="199" y="526" type="line"/>
      <point x="413" y="-10" type="line" name="hr01"/>
      <point x="475" y="1" type="line"/>
      <point x="689" y="526" type="line"/>
    </contour>
  </outline>
</glyph>
<glyph name="P" format="1">
  <advance width="576"/>
  <unicode hex="0050"/>
  <outline>
    <contour>
      <point x="173" y="685" type="line"/>
      <point x="123" y="685"/>
      <point x="81" y="686"/>
      <point x="39" y="688" type="curve" name="hr01"/>
      <point x="36" y="659" type="line"/>
      <point x="96" y="647"/>
      <point x="115" y="641"/>
      <point x="118" y="616" type="curve"/>
      <point x="118" y="616" smooth="yes"/>
      <point x="126" y="557" smooth="yes"/>
      <point x="126" y="342" type="curve" smooth="yes"/>
      <point x="126" y="128"/>
      <point x="118" y="69"/>
      <point x="118" y="69" type="curve"/>
      <point x="115" y="44"/>
      <point x="89" y="38"/>
      <point x="29" y="26" type="curve"/>
      <point x="32" y="-3" type="line"/>
      <point x="74" y="-1" smooth="yes"/>
      <point x="123" y="0" smooth="yes"/>
      <point x="173" y="0" type="curve" smooth="yes" name="hr02"/>
      <point x="223" y="0"/>
      <point x="264" y="-1"/>
      <point x="306" y="-3" type="curve" name="hr03"/>
      <point x="309" y="26" type="line"/>
      <point x="249" y="38"/>
      <point x="227" y="44"/>
      <point x="224" y="69" type="curve"/>
      <point x="224" y="69"/>
      <point x="216" y="71"/>
      <point x="216" y="286" type="curve"/>
      <point x="241" y="282" smooth="yes"/>
      <point x="265" y="280" smooth="yes"/>
      <point x="287" y="280" type="curve" smooth="yes"/>
      <point x="456" y="280" smooth="yes"/>
      <point x="551" y="396" smooth="yes"/>
      <point x="551" y="502" type="curve" smooth="yes"/>
      <point x="551" y="597" smooth="yes"/>
      <point x="480" y="685" smooth="yes"/>
      <point x="325" y="685" type="curve" smooth="yes"/>
    </contour>
    <contour>
      <point x="216" y="325" type="curve"/>
      <point x="216" y="557"/>
      <point x="226" y="609"/>
      <point x="226" y="609" type="curve"/>
      <point x="231" y="642" smooth="yes"/>
      <point x="240" y="643" smooth="yes"/>
      <point x="287" y="643" type="curve" smooth="yes"/>
      <point x="395" y="643" smooth="yes"/>
      <point x="455" y="602" smooth="yes"/>
      <point x="455" y="489" type="curve" smooth="yes"/>
      <point x="455" y="371" smooth="yes"/>
      <point x="381" y="322" smooth="yes"/>
      <point x="271" y="322" type="curve" smooth="yes"/>
      <point x="254" y="322"/>
      <point x="235" y="323"/>
    </contour>
  </outline>
</glyph>
<glyph name="Q" format="1">
  <advance width="792"/>
  <unicode hex="0051"/>
  <outline>
    <contour>
      <point x="488" y="-1" type="line" name="hr00"/>
      <point x="381" y="-16" type="line"/>
      <point x="512" y="-77"/>
      <point x="717" y="-217"/>
      <point x="717" y="-217" type="curve"/>
      <point x="800" y="-178" type="line"/>
      <point x="800" y="-156" type="line"/>
    </contour>
    <component  base="O"/>
  </outline>
</glyph>
<glyph name="U" format="1">
  <advance width="760"/>
  <unicode hex="0055"/>
  <outline>
    <contour>
      <point x="584" y="616" type="curve" name="hr00"/>
      <point x="584" y="616" smooth="yes"/>
      <point x="592" y="554" smooth="yes"/>
      <point x="592" y="339" type="curve" smooth="yes"/>
      <point x="592" y="164" smooth="yes"/>
      <point x="560" y="45" smooth="yes"/>
      <point x="380" y="45" type="curve" smooth="yes"/>
      <point x="204" y="45" smooth="yes"/>
      <point x="201" y="150" smooth="yes"/>
      <point x="201" y="322" type="curve" smooth="yes"/>
      <point x="201" y="551"/>
      <point x="210" y="616"/>
      <point x="210" y="616" type="curve"/>
      <point x="213" y="641"/>
      <point x="232" y="647"/>
      <point x="292" y="659" type="curve"/>
      <point x="289" y="688" type="line"/>
      <point x="247" y="686" smooth="yes"/>
      <point x="209" y="685" smooth="yes"/>
      <point x="159" y="685" type="curve" smooth="yes"/>
      <point x="109" y="685"/>
      <point x="67" y="686"/>
      <point x="25" y="688" type="curve"/>
      <point x="22" y="659" type="line"/>
      <point x="82" y="647"/>
      <point x="104" y="641"/>
      <point x="104" y="616" type="curve"/>
      <point x="107" y="489" smooth="yes"/>
      <point x="109" y="363" smooth="yes"/>
      <point x="111" y="236" type="curve" smooth="yes"/>
      <point x="115" y="34" smooth="yes"/>
      <point x="211" y="-12" smooth="yes"/>
      <point x="380" y="-12" type="curve" smooth="yes"/>
      <point x="578" y="-12" smooth="yes"/>
      <point x="648" y="105" smooth="yes"/>
      <point x="652" y="247" type="curve" smooth="yes"/>
      <point x="656" y="370" smooth="yes"/>
      <point x="658" y="493" smooth="yes"/>
      <point x="663" y="616" type="curve" smooth="yes"/>
      <point x="664" y="641"/>
      <point x="685" y="647"/>
      <point x="745" y="659" type="curve"/>
      <point x="742" y="688" type="line"/>
      <point x="700" y="686" smooth="yes"/>
      <point x="685" y="685" smooth="yes"/>
      <point x="635" y="685" type="curve" smooth="yes"/>
      <point x="585" y="685"/>
      <point x="535" y="686"/>
      <point x="493" y="688" type="curve"/>
      <point x="490" y="659" type="line"/>
      <point x="550" y="647"/>
      <point x="581" y="641"/>
    </contour>
  </outline>
</glyph>
<glyph name="Z" format="1">
  <advance width="640"/>
  <unicode hex="005A"/>
  <outline>
    <contour>
      <point x="598" y="652" type="line"/>
      <point x="580" y="685" type="line"/>
      <point x="448" y="685" type="line" smooth="yes"/>
      <point x="319" y="685"/>
      <point x="150" y="685"/>
      <point x="68" y="691" type="curve" name="hr01"/>
      <point x="68" y="676" type="line"/>
      <point x="68" y="634"/>
      <point x="62" y="563"/>
      <point x="56" y="529" type="curve"/>
      <point x="83" y="517" type="line"/>
      <point x="118" y="630"/>
      <point x="129" y="631"/>
      <point x="478" y="631" type="curve" name="hr02"/>
      <point x="30" y="35" type="line"/>
      <point x="54" y="0" type="line"/>
      <point x="590" y="0" type="line"/>
      <point x="592" y="36"/>
      <point x="602" y="123"/>
      <point x="614" y="159" type="curve"/>
      <point x="587" y="171" type="line"/>
      <point x="552" y="60"/>
      <point x="489" y="53"/>
      <point x="267" y="53" type="curve"/>
      <point x="151" y="53" type="line"/>
    </contour>
  </outline>
</glyph>
<glyph name="backslash" format="1">
  <advance width="290"/>
  <unicode hex="005C"/>
  <outline>
    <contour>
      <point x="85" y="701" type="line" name="hr00"/>
      <point x="20" y="701" type="line"/>
      <point x="205" y="-140" type="line"/>
      <point x="270" y="-140" type="line"/>
    </contour>
  </outline>
</glyph>
<glyph name="bracketright" format="1">
  <advance width="427"/>
  <unicode hex="005D"/>
  <outline>
    <contour>
      <point x="303" y="273" type="curve" smooth="yes" name="hr00"/>
      <point x="303" y="488"/>
      <point x="327" y="698"/>
      <point x="327" y="698" type="curve"/>
      <point x="306" y="708" type="line"/>
      <point x="268" y="698"/>
      <point x="174" y="688"/>
      <point x="80" y="688" type="curve"/>
      <point x="83" y="652" type="line"/>
      <point x="235" y="636" type="line"/>
      <point x="235" y="636" smooth="yes"/>
      <point x="222" y="488" smooth="yes"/>
      <point x="222" y="273" type="curve" smooth="yes"/>
      <point x="222" y="58"/>
      <point x="235" y="-71"/>
      <point x="235" y="-71" type="curve"/>
      <point x="83" y="-87" type="line"/>
      <point x="80" y="-123" type="line"/>
      <point x="174" y="-123"/>
      <point x="268" y="-133"/>
      <point x="306" y="-143" type="curve"/>
      <point x="327" y="-133" type="line"/>
      <point x="327" y="-133" smooth="yes"/>
      <point x="303" y="58" smooth="yes"/>
    </contour>
  </outline>
</glyph>
<glyph name="underscore" format="1">
  <advance width="462"/>
  <unicode hex="005F"/>
  <outline>
    <contour>
      <point x="44" y="-16" type="curve"/>
      <point x="0" y="-64" type="line"/>
      <point x="7" y="-80" type="line"/>
      <point x="100" y="-76" smooth="yes"/>
      <point x="138" y="-75" smooth="yes"/>
      <point x="231" y="-75" type="curve" smooth="yes" name="hr01"/>
      <point x="312" y="-75"/>
      <point x="337" y="-76"/>
      <point x="418" y="-79" type="curve"/>
      <point x="462" y="-31" type="line"/>
      <point x="455" y="-16" type="line" name="hr02"/>
      <point x="362" y="-20" smooth="yes"/>
      <point x="325" y="-21" smooth="yes"/>
      <point x="231" y="-21" type="curve" smooth="yes" name="hr03"/>
      <point x="150" y="-21"/>
      <point x="125" y="-20"/>
    </contour>
  </outline>
</glyph>
<glyph name="grave" format="1">
  <advance width="285"/>
  <unicode hex="0060"/>
  <outline>
    <contour>
      <point x="152" y="518" type="line" name="hr00"/>
      <point x="182" y="523" type="line"/>
      <point x="48" y="722" type="line"/>
      <point x="15" y="722"/>
      <point x="-18" y="703"/>
      <point x="-21" y="680" type="curve"/>
    </contour>
  </outline>
</glyph>
<glyph name="a" format="1">
  <advance width="457"/>
  <unicode hex="0061"/>
  <outline>
    <contour>
      <point x="291" y="94" type="line" name="hr00"/>
      <point x="254" y="65" smooth="yes"/>
      <point x="217" y="51" smooth="yes"/>
      <point x="188" y="51" type="curve" smooth="yes"/>
      <point x="149" y="51" smooth="yes"/>
      <point x="123" y="71" smooth="yes"/>
      <point x="123" y="111" type="curve" smooth="yes"/>
      <point x="123" y="158"/>
      <point x="174" y="207"/>
      <point x="291" y="210" type="curve"/>
    </contour>
    <contour>
      <point x="437" y="52" type="line"/>
      <point x="425" y="46" smooth="yes"/>
      <point x="414" y="44" smooth="yes"/>
      <point x="406" y="44" type="curve" smooth="yes"/>
      <point x="387" y="44" smooth="yes"/>
      <point x="371" y="56" smooth="yes"/>
      <point x="370" y="92" type="curve" smooth="yes"/>
      <point x="369" y="125" smooth="yes"/>
      <point x="364" y="320" smooth="yes"/>
      <point x="364" y="353" type="curve" smooth="yes"/>
      <point x="364" y="439" smooth="yes"/>
      <point x="314" y="460" smooth="yes"/>
      <point x="252" y="460" type="curve" smooth="yes"/>
      <point x="127" y="460" smooth="yes"/>
      <point x="58" y="373" smooth="yes"/>
      <point x="58" y="354" type="curve" smooth="yes"/>
      <point x="58" y="343"/>
      <point x="85" y="311"/>
      <point x="113" y="296" type="curve"/>
      <point x="135" y="306" type="line"/>
      <point x="133" y="316" smooth="yes"/>
      <point x="132" y="324" smooth="yes"/>
      <point x="132" y="333" type="curve" smooth="yes"/>
      <point x="132" y="374" smooth="yes"/>
      <point x="159" y="406" smooth="yes"/>
      <point x="218" y="406" type="curve" smooth="yes"/>
      <point x="258" y="406" smooth="yes"/>
      <point x="291" y="387" smooth="yes"/>
      <point x="291" y="348" type="curve" smooth="yes"/>
      <point x="291" y="255" type="line"/>
      <point x="100" y="242" smooth="yes"/>
      <point x="39" y="167" smooth="yes"/>
      <point x="39" y="95" type="curve" smooth="yes"/>
      <point x="39" y="23" smooth="yes"/>
      <point x="89" y="-9" smooth="yes"/>
      <point x="142" y="-9" type="curve" smooth="yes"/>
      <point x="198" y="-9"/>
      <point x="244" y="19"/>
      <point x="294" y="56" type="curve"/>
      <point x="301" y="10" smooth="yes"/>
      <point x="330" y="-9" smooth="yes"/>
      <point x="364" y="-9" type="curve" smooth="yes"/>
      <point x="392" y="-9"/>
      <point x="423" y="4"/>
      <point x="447" y="26" type="curve"/>
    </contour>
  </outline>
</glyph>
<glyph name="c" format="1">
  <advance width="443"/>
  <unicode hex="0063"/>
  <outline>
    <contour>
      <point x="409" y="90" type="line" name="hr00"/>
      <point x="367" y="65" smooth="yes"/>
      <point x="312" y="50" smooth="yes"/>
      <point x="270" y="50" type="curve" smooth="yes"/>
      <point x="184" y="50" smooth="yes"/>
      <point x="124" y="100" smooth="yes"/>
      <point x="124" y="222" type="curve" smooth="yes"/>
      <point x="124" y="310" smooth="yes"/>
      <point x="164" y="406" smooth="yes"/>
      <point x="253" y="406" type="curve" smooth="yes"/>
      <point x="320" y="406"/>
      <point x="355" y="352"/>
      <point x="367" y="319" type="curve"/>
      <point x="391" y="319" type="line"/>
      <point x="407" y="341" smooth="yes"/>
      <point x="415" y="374" smooth="yes"/>
      <point x="415" y="392" type="curve" smooth="yes"/>
      <point x="415" y="403" smooth="yes"/>
      <point x="350" y="460" smooth="yes"/>
      <point x="264" y="460" type="curve" smooth="yes"/>
      <point x="112" y="460" smooth="yes"/>
      <point x="36" y="334" smooth="yes"/>
      <point x="36" y="215" type="curve" smooth="yes"/>
      <point x="36" y="88" smooth="yes"/>
      <point x="103" y="-9" smooth="yes"/>
      <point x="244" y="-9" type="curve" smooth="yes"/>
      <point x="318" y="-9"/>
      <point x="376" y="21"/>
      <point x="421" y="57" type="curve"/>
    </contour>
  </outline>
</glyph>
<glyph name="e" format="1">
  <advance width="459"/>
  <unicode hex="0065"/>
  <outline>
    <contour>
      <point x="338" y="320" type="curve" smooth="yes" name="hr00"/>
      <point x="338" y="311"/>
      <point x="337" y="301"/>
      <point x="335" y="291" type="curve"/>
      <point x="128" y="283" type="line"/>
      <point x="142" y="351" smooth="yes"/>
      <point x="188" y="411" smooth="yes"/>
      <point x="254" y="411" type="curve" smooth="yes"/>
      <point x="290" y="411" smooth="yes"/>
      <point x="338" y="387" smooth="yes"/>
    </contour>
    <contour>
      <point x="403" y="83" type="line"/>
      <point x="355" y="62" smooth="yes"/>
      <point x="313" y="51" smooth="yes"/>
      <point x="264" y="51" type="curve" smooth="yes"/>
      <point x="180" y="51" smooth="yes"/>
      <point x="122" y="108" smooth="yes"/>
      <point x="122" y="233" type="curve" smooth="yes"/>
      <point x="122" y="242" type="line"/>
      <point x="160" y="245" smooth="yes"/>
      <point x="290" y="249" smooth="yes"/>
      <point x="357" y="249" type="curve" smooth="yes"/>
      <point x="375" y="249"/>
      <point x="388" y="249"/>
      <point x="394" y="248" type="curve"/>
      <point x="428" y="289" type="line"/>
      <point x="428" y="412" smooth="yes"/>
      <point x="347" y="460" smooth="yes"/>
      <point x="276" y="460" type="curve" smooth="yes"/>
      <point x="104" y="460" smooth="yes"/>
      <point x="37" y="334" smooth="yes"/>
      <point x="37" y="207" type="curve" smooth="yes"/>
      <point x="37" y="89" smooth="yes"/>
      <point x="102" y="-9" smooth="yes"/>
      <point x="251" y="-9" type="curve" smooth="yes"/>
      <point x="317" y="-9"/>
      <point x="374" y="20"/>
      <point x="415" y="53" type="curve"/>
    </contour>
  </outline>
</glyph>
<glyph name="f" format="1">
  <advance width="316"/>
  <unicode hex="0066"/>
  <outline>
    <contour>
      <point x="187" y="48" type="curve" smooth="yes"/>
      <point x="186" y="56"/>
      <point x="177" y="125"/>
      <point x="177" y="406" type="curve"/>
      <point x="247" y="405"/>
      <point x="281" y="402"/>
      <point x="281" y="402" type="curve"/>
      <point x="312" y="441" type="line"/>
      <point x="307" y="453" type="line"/>
      <point x="307" y="453"/>
      <point x="259" y="452"/>
      <point x="177" y="452" type="curve"/>
      <point x="177" y="627" smooth="yes"/>
      <point x="236" y="660" smooth="yes"/>
      <point x="292" y="660" type="curve" smooth="yes"/>
      <point x="327" y="660"/>
      <point x="360" y="649"/>
      <point x="378" y="641" type="curve"/>
      <point x="393" y="660" type="line"/>
      <point x="384" y="693" smooth="yes"/>
      <point x="352" y="730" smooth="yes"/>
      <point x="342" y="730" type="curve" smooth="yes"/>
      <point x="314" y="730"/>
      <point x="101" y="682"/>
      <point x="101" y="451" type="curve"/>
      <point x="67" y="453"/>
      <point x="53" y="455"/>
      <point x="53" y="455" type="curve"/>
      <point x="30" y="416" type="line"/>
      <point x="33" y="405" type="line"/>
      <point x="33" y="405"/>
      <point x="58" y="405"/>
      <point x="102" y="406" type="curve"/>
      <point x="102" y="120"/>
      <point x="95" y="48"/>
      <point x="94" y="48" type="curve"/>
      <point x="92" y="37"/>
      <point x="47" y="28"/>
      <point x="26" y="26" type="curve"/>
      <point x="23" y="-3" type="line"/>
      <point x="55" y="-1" smooth="yes"/>
      <point x="101" y="0" smooth="yes"/>
      <point x="135" y="0" type="curve" smooth="yes" name="hr01"/>
      <point x="169" y="0"/>
      <point x="228" y="-1"/>
      <point x="260" y="-3" type="curve" name="hr02"/>
      <point x="263" y="26" type="line"/>
      <point x="242" y="27" smooth="yes"/>
      <point x="188" y="37" smooth="yes"/>
    </contour>
  </outline>
</glyph>
<glyph name="g" format="1">
  <advance width="490"/>
  <unicode hex="0067"/>
  <outline>
    <contour>
      <point x="354" y="429" type="curve"/>
      <point x="323" y="451" smooth="yes"/>
      <point x="281" y="459" smooth="yes"/>
      <point x="233" y="459" type="curve" smooth="yes"/>
      <point x="104" y="459" smooth="yes"/>
      <point x="50" y="372" smooth="yes"/>
      <point x="50" y="294" type="curve" smooth="yes"/>
      <point x="50" y="201"/>
      <point x="87" y="153"/>
      <point x="151" y="133" type="curve"/>
      <point x="102" y="93" smooth="yes"/>
      <point x="61" y="53" smooth="yes"/>
      <point x="61" y="27" type="curve" smooth="yes"/>
      <point x="61" y="6"/>
      <point x="82" y="-13"/>
      <point x="124" y="-22" type="curve"/>
      <point x="53" y="-79" smooth="yes"/>
      <point x="21" y="-132" smooth="yes"/>
      <point x="21" y="-169" type="curve" smooth="yes" name="hr01"/>
      <point x="21" y="-233" smooth="yes"/>
      <point x="113" y="-263" smooth="yes"/>
      <point x="203" y="-263" type="curve" smooth="yes"/>
      <point x="383" y="-263" smooth="yes"/>
      <point x="481" y="-168" smooth="yes"/>
      <point x="481" y="-85" type="curve" smooth="yes"/>
      <point x="481" y="-8" smooth="yes"/>
      <point x="420" y="37" smooth="yes"/>
      <point x="292" y="37" type="curve" smooth="yes"/>
      <point x="217" y="37" type="line" smooth="yes"/>
      <point x="171" y="37" smooth="yes"/>
      <point x="152" y="43" smooth="yes"/>
      <point x="152" y="60" type="curve" smooth="yes"/>
      <point x="152" y="75"/>
      <point x="166" y="96"/>
      <point x="189" y="126" type="curve"/>
      <point x="203" y="124" smooth="yes"/>
      <point x="218" y="123" smooth="yes"/>
      <point x="233" y="123" type="curve" smooth="yes"/>
      <point x="362" y="123" smooth="yes"/>
      <point x="415" y="210" smooth="yes"/>
      <point x="415" y="288" type="curve" smooth="yes" name="hr02"/>
      <point x="415" y="341"/>
      <point x="402" y="378"/>
      <point x="380" y="405" type="curve"/>
      <point x="396" y="413" smooth="yes"/>
      <point x="412" y="416" smooth="yes"/>
      <point x="426" y="416" type="curve" smooth="yes"/>
      <point x="444" y="416"/>
      <point x="460" y="412"/>
      <point x="470" y="407" type="curve"/>
      <point x="485" y="426" type="line"/>
      <point x="476" y="459" smooth="yes"/>
      <point x="444" y="496" smooth="yes"/>
      <point x="434" y="496" type="curve" smooth="yes"/>
      <point x="406" y="496"/>
      <point x="365" y="447"/>
    </contour>
    <contour>
      <point x="105" y="-136" type="curve"/>
      <point x="105" y="-102"/>
      <point x="122" y="-62"/>
      <point x="155" y="-25" type="curve"/>
      <point x="290" y="-25" type="line" smooth="yes"/>
      <point x="368" y="-25" smooth="yes"/>
      <point x="397" y="-56" smooth="yes"/>
      <point x="397" y="-93" type="curve" smooth="yes" name="hr03"/>
      <point x="397" y="-150" smooth="yes"/>
      <point x="326" y="-223" smooth="yes"/>
      <point x="219" y="-223" type="curve" smooth="yes"/>
      <point x="141" y="-223" smooth="yes"/>
      <point x="105" y="-186" smooth="yes"/>
    </contour>
    <contour>
      <point x="329" y="278" type="curve" name="hr04"/>
      <point x="327" y="238" smooth="yes"/>
      <point x="308" y="164" smooth="yes"/>
      <point x="230" y="164" type="curve" smooth="yes"/>
      <point x="157" y="164" smooth="yes"/>
      <point x="135" y="233" smooth="yes"/>
      <point x="135" y="294" type="curve" smooth="yes"/>
      <point x="135" y="331" smooth="yes"/>
      <point x="150" y="418" smooth="yes"/>
      <point x="234" y="418" type="curve" smooth="yes"/>
      <point x="314" y="418"/>
      <point x="329" y="343"/>
    </contour>
  </outline>
</glyph>
<glyph name="i" format="1">
  <advance width="275"/>
  <unicode hex="0069"/>
  <outline>
    <contour>
      <point x="139" y="563" type="curve"/>
      <point x="168" y="563" smooth="yes"/>
      <point x="191" y="586" smooth="yes"/>
      <point x="191" y="617" type="curve" smooth="yes"/>
      <point x="191" y="646"/>
      <point x="168" y="669"/>
      <point x="139" y="669" type="curve"/>
      <point x="110" y="669" smooth="yes"/>
      <point x="87" y="646" smooth="yes"/>
      <point x="87" y="617" type="curve" smooth="yes"/>
      <point x="87" y="586"/>
      <point x="110" y="563"/>
    </contour>
    <contour>
      <point x="161" y="459" type="line"/>
      <point x="127" y="450"/>
      <point x="65" y="441"/>
      <point x="29" y="441" type="curve"/>
      <point x="31" y="415" type="line"/>
      <point x="95" y="396" type="line"/>
      <point x="95" y="396" smooth="yes"/>
      <point x="103" y="375" smooth="yes"/>
      <point x="103" y="229" type="curve" smooth="yes"/>
      <point x="103" y="83" smooth="yes"/>
      <point x="95" y="48" smooth="yes"/>
      <point x="95" y="48" type="curve" smooth="yes"/>
      <point x="93" y="37"/>
      <point x="46" y="28"/>
      <point x="25" y="26" type="curve"/>
      <point x="22" y="-3" type="line"/>
      <point x="54" y="-1" smooth="yes"/>
      <point x="107" y="0" smooth="yes"/>
      <point x="141" y="0" type="curve" smooth="yes" name="hr01"/>
      <point x="175" y="0"/>
      <point x="224" y="-1"/>
      <point x="256" y="-3" type="curve" name="hr02"/>
      <point x="259" y="26" type="line"/>
      <point x="238" y="28"/>
      <point x="190" y="37"/>
      <point x="188" y="48" type="curve"/>
      <point x="188" y="48" smooth="yes"/>
      <point x="178" y="83" smooth="yes"/>
      <point x="178" y="229" type="curve" smooth="yes"/>
      <point x="178" y="294"/>
      <point x="180" y="414"/>
      <point x="180" y="450" type="curve"/>
    </contour>
  </outline>
</glyph>
<glyph name="j" format="1">
  <advance width="269"/>
  <unicode hex="006A"/>
  <outline>
    <contour>
      <point x="105" y="15" type="curve"/>
      <point x="105" y="-160" smooth="yes"/>
      <point x="71" y="-193" smooth="yes"/>
      <point x="39" y="-193" type="curve" smooth="yes"/>
      <point x="15" y="-193"/>
      <point x="-8" y="-182"/>
      <point x="-21" y="-174" type="curve"/>
      <point x="-36" y="-193" type="line"/>
      <point x="-27" y="-226" smooth="yes"/>
      <point x="5" y="-263" smooth="yes"/>
      <point x="15" y="-263" type="curve" smooth="yes"/>
      <point x="34" y="-263" smooth="yes"/>
      <point x="180" y="-208" smooth="yes"/>
      <point x="180" y="54" type="curve" smooth="yes"/>
      <point x="180" y="298"/>
      <point x="182" y="450"/>
      <point x="182" y="450" type="curve"/>
      <point x="163" y="459" type="line"/>
      <point x="129" y="450"/>
      <point x="67" y="441"/>
      <point x="31" y="441" type="curve"/>
      <point x="33" y="415" type="line"/>
      <point x="97" y="396" type="line"/>
      <point x="97" y="396" smooth="yes"/>
      <point x="105" y="289" smooth="yes"/>
    </contour>
    <contour>
      <point x="141" y="563" type="curve"/>
      <point x="170" y="563" smooth="yes"/>
      <point x="193" y="586" smooth="yes"/>
      <point x="193" y="617" type="curve" smooth="yes" name="hr01"/>
      <point x="193" y="646" smooth="yes"/>
      <point x="170" y="669" smooth="yes"/>
      <point x="141" y="669" type="curve" smooth="yes"/>
      <point x="112" y="669" smooth="yes"/>
      <point x="89" y="646" smooth="yes"/>
      <point x="89" y="617" type="curve" smooth="yes"/>
      <point x="89" y="586" smooth="yes"/>
      <point x="112" y="563" smooth="yes"/>
    </contour>
  </outline>
</glyph>
<glyph name="k" format="1">
  <advance width="517"/>
  <unicode hex="006B"/>
  <outline>
    <contour>
      <point x="517" y="26" type="line"/>
      <point x="496" y="28" smooth="yes"/>
      <point x="462" y="26" smooth="yes"/>
      <point x="450" y="43" type="curve" smooth="yes"/>
      <point x="262" y="294" type="line"/>
      <point x="386" y="386" type="line" smooth="yes"/>
      <point x="407" y="401"/>
      <point x="437" y="419"/>
      <point x="492" y="427" type="curve"/>
      <point x="489" y="456" type="line"/>
      <point x="448" y="454" smooth="yes"/>
      <point x="427" y="453" smooth="yes"/>
      <point x="378" y="453" type="curve" smooth="yes"/>
      <point x="329" y="453"/>
      <point x="319" y="454"/>
      <point x="278" y="456" type="curve"/>
      <point x="275" y="427" type="line"/>
      <point x="318" y="426" smooth="yes"/>
      <point x="335" y="415" smooth="yes"/>
      <point x="335" y="404" type="curve" smooth="yes"/>
      <point x="335" y="400" smooth="yes"/>
      <point x="333" y="396" smooth="yes"/>
      <point x="328" y="392" type="curve" smooth="yes"/>
      <point x="168" y="272" type="line"/>
      <point x="168" y="352" type="line" smooth="yes"/>
      <point x="168" y="596"/>
      <point x="170" y="721"/>
      <point x="170" y="721" type="curve"/>
      <point x="151" y="730" type="line"/>
      <point x="117" y="721"/>
      <point x="55" y="712"/>
      <point x="19" y="712" type="curve"/>
      <point x="21" y="686" type="line"/>
      <point x="85" y="667" type="line"/>
      <point x="85" y="667" smooth="yes"/>
      <point x="93" y="627" smooth="yes"/>
      <point x="93" y="369" type="curve" smooth="yes"/>
      <point x="93" y="112"/>
      <point x="84" y="48"/>
      <point x="84" y="48" type="curve"/>
      <point x="82" y="37"/>
      <point x="42" y="28"/>
      <point x="21" y="26" type="curve"/>
      <point x="18" y="-3" type="line"/>
      <point x="50" y="-1" smooth="yes"/>
      <point x="96" y="0" smooth="yes"/>
      <point x="130" y="0" type="curve" smooth="yes" name="hr01"/>
      <point x="164" y="0"/>
      <point x="206" y="-1"/>
      <point x="238" y="-3" type="curve" name="hr02"/>
      <point x="241" y="26" type="line"/>
      <point x="220" y="28" smooth="yes"/>
      <point x="179" y="37" smooth="yes"/>
      <point x="177" y="48" type="curve" smooth="yes"/>
      <point x="177" y="50"/>
      <point x="172" y="95"/>
      <point x="169" y="226" type="curve"/>
      <point x="200" y="249" type="line"/>
      <point x="385" y="-9" type="line" name="hr03"/>
      <point x="409" y="-7"/>
      <point x="479" y="-3"/>
      <point x="514" y="-3" type="curve" name="hr04"/>
    </contour>
  </outline>
</glyph>
<glyph name="n" format="1">
  <advance width="560"/>
  <unicode hex="006E"/>
  <outline>
    <contour>
      <point x="155" y="459" type="line"/>
      <point x="121" y="450"/>
      <point x="59" y="441"/>
      <point x="23" y="441" type="curve"/>
      <point x="25" y="415" type="line"/>
      <point x="89" y="396" type="line"/>
      <point x="89" y="396" smooth="yes"/>
      <point x="97" y="375" smooth="yes"/>
      <point x="97" y="229" type="curve" smooth="yes"/>
      <point x="97" y="83"/>
      <point x="89" y="48"/>
      <point x="89" y="48" type="curve"/>
      <point x="87" y="37"/>
      <point x="47" y="28"/>
      <point x="26" y="26" type="curve"/>
      <point x="23" y="-3" type="line"/>
      <point x="55" y="-1" smooth="yes"/>
      <point x="101" y="0" smooth="yes"/>
      <point x="135" y="0" type="curve" smooth="yes" name="hr01"/>
      <point x="169" y="0"/>
      <point x="211" y="-1"/>
      <point x="243" y="-3" type="curve" name="hr02"/>
      <point x="246" y="26" type="line"/>
      <point x="225" y="28"/>
      <point x="184" y="37"/>
      <point x="182" y="48" type="curve"/>
      <point x="182" y="48" smooth="yes"/>
      <point x="172" y="83" smooth="yes"/>
      <point x="172" y="229" type="curve" smooth="yes"/>
      <point x="172" y="288"/>
      <point x="173" y="329"/>
      <point x="173" y="362" type="curve"/>
      <point x="205" y="375" smooth="yes"/>
      <point x="269" y="398" smooth="yes"/>
      <point x="319" y="398" type="curve" smooth="yes"/>
      <point x="361" y="398" smooth="yes"/>
      <point x="394" y="383" smooth="yes"/>
      <point x="394" y="334" type="curve" smooth="yes"/>
      <point x="394" y="229" type="line" smooth="yes"/>
      <point x="394" y="83"/>
      <point x="386" y="48"/>
      <point x="386" y="48" type="curve"/>
      <point x="384" y="37"/>
      <point x="344" y="28"/>
      <point x="323" y="26" type="curve"/>
      <point x="320" y="-3" type="line"/>
      <point x="352" y="-1" smooth="yes"/>
      <point x="398" y="0" smooth="yes"/>
      <point x="432" y="0" type="curve" smooth="yes" name="hr03"/>
      <point x="466" y="0"/>
      <point x="508" y="-1"/>
      <point x="540" y="-3" type="curve" name="hr04"/>
      <point x="543" y="26" type="line"/>
      <point x="522" y="28"/>
      <point x="481" y="37"/>
      <point x="479" y="48" type="curve"/>
      <point x="479" y="48" smooth="yes"/>
      <point x="469" y="83" smooth="yes"/>
      <point x="469" y="229" type="curve" smooth="yes"/>
      <point x="469" y="365" type="line" smooth="yes"/>
      <point x="469" y="437" smooth="yes"/>
      <point x="424" y="460" smooth="yes"/>
      <point x="367" y="460" type="curve" smooth="yes"/>
      <point x="299" y="460"/>
      <point x="215" y="426"/>
      <point x="174" y="402" type="curve"/>
      <point x="174" y="450" type="line"/>
    </contour>
  </outline>
</glyph>
<glyph name="o" format="1">
  <advance width="529"/>
  <unicode hex="006F"/>
  <outline>
    <contour>
      <point x="404" y="206" type="curve" smooth="yes" name="hr00"/>
      <point x="404" y="149" smooth="yes"/>
      <point x="369" y="39" smooth="yes"/>
      <point x="262" y="39" type="curve" smooth="yes"/>
      <point x="160" y="39" smooth="yes"/>
      <point x="125" y="132" smooth="yes"/>
      <point x="125" y="230" type="curve" smooth="yes"/>
      <point x="125" y="282" smooth="yes"/>
      <point x="150" y="411" smooth="yes"/>
      <point x="267" y="411" type="curve" smooth="yes"/>
      <point x="376" y="411" smooth="yes"/>
      <point x="404" y="308" smooth="yes"/>
    </contour>
    <contour>
      <point x="490" y="243" type="curve" smooth="yes"/>
      <point x="490" y="371" smooth="yes"/>
      <point x="427" y="460" smooth="yes"/>
      <point x="278" y="460" type="curve" smooth="yes"/>
      <point x="106" y="460" smooth="yes"/>
      <point x="39" y="333" smooth="yes"/>
      <point x="39" y="206" type="curve" smooth="yes"/>
      <point x="39" y="78" smooth="yes"/>
      <point x="102" y="-9" smooth="yes"/>
      <point x="251" y="-9" type="curve" smooth="yes"/>
      <point x="423" y="-9" smooth="yes"/>
      <point x="490" y="116" smooth="yes"/>
    </contour>
  </outline>
</glyph>
<glyph name="p" format="1">
  <advance width="546"/>
  <unicode hex="0070"/>
  <outline>
    <contour>
      <point x="164" y="366" type="line" name="hr00"/>
      <point x="186" y="380" smooth="yes"/>
      <point x="241" y="397" smooth="yes"/>
      <point x="288" y="397" type="curve" smooth="yes"/>
      <point x="387" y="397" smooth="yes"/>
      <point x="420" y="332" smooth="yes"/>
      <point x="420" y="237" type="curve" smooth="yes"/>
      <point x="420" y="142" smooth="yes"/>
      <point x="381" y="44" smooth="yes"/>
      <point x="256" y="44" type="curve" smooth="yes"/>
      <point x="229" y="44"/>
      <point x="198" y="49"/>
      <point x="164" y="61" type="curve"/>
    </contour>
    <contour>
      <point x="164" y="23" type="curve"/>
      <point x="204" y="1" smooth="yes"/>
      <point x="247" y="-9" smooth="yes"/>
      <point x="288" y="-9" type="curve" smooth="yes"/>
      <point x="410" y="-9" smooth="yes"/>
      <point x="505" y="71" smooth="yes"/>
      <point x="505" y="243" type="curve" smooth="yes"/>
      <point x="505" y="396" smooth="yes"/>
      <point x="423" y="460" smooth="yes"/>
      <point x="328" y="460" type="curve" smooth="yes"/>
      <point x="274" y="460"/>
      <point x="215" y="439"/>
      <point x="165" y="401" type="curve"/>
      <point x="165" y="450" type="line"/>
      <point x="146" y="459" type="line"/>
      <point x="112" y="450"/>
      <point x="51" y="441"/>
      <point x="15" y="441" type="curve"/>
      <point x="17" y="415" type="line"/>
      <point x="81" y="396" type="line"/>
      <point x="81" y="396" smooth="yes"/>
      <point x="89" y="356" smooth="yes"/>
      <point x="89" y="98" type="curve" smooth="yes"/>
      <point x="89" y="-159"/>
      <point x="77" y="-215"/>
      <point x="77" y="-215" type="curve"/>
      <point x="75" y="-226"/>
      <point x="29" y="-232"/>
      <point x="8" y="-234" type="curve"/>
      <point x="5" y="-263" type="line"/>
      <point x="37" y="-261" smooth="yes"/>
      <point x="89" y="-260" smooth="yes"/>
      <point x="123" y="-260" type="curve" smooth="yes"/>
      <point x="157" y="-260"/>
      <point x="205" y="-261"/>
      <point x="237" y="-263" type="curve"/>
      <point x="240" y="-234" type="line"/>
      <point x="219" y="-232" smooth="yes"/>
      <point x="172" y="-226" smooth="yes"/>
      <point x="170" y="-215" type="curve" smooth="yes"/>
      <point x="169" y="-212"/>
      <point x="165" y="-165"/>
    </contour>
  </outline>
</glyph>
<glyph name="q" format="1">
  <advance width="536"/>
  <unicode hex="0071"/>
  <outline>
    <contour>
      <point x="379" y="81" type="curve"/>
      <point x="336" y="60" smooth="yes"/>
      <point x="304" y="50" smooth="yes"/>
      <point x="262" y="50" type="curve" smooth="yes"/>
      <point x="170" y="50" smooth="yes"/>
      <point x="130" y="129" smooth="yes"/>
      <point x="130" y="211" type="curve" smooth="yes"/>
      <point x="130" y="306" smooth="yes"/>
      <point x="184" y="406" smooth="yes"/>
      <point x="286" y="406" type="curve" smooth="yes"/>
      <point x="311" y="406"/>
      <point x="339" y="401"/>
      <point x="370" y="389" type="curve"/>
      <point x="372" y="372"/>
      <point x="379" y="288"/>
    </contour>
    <contour>
      <point x="393" y="430" type="line"/>
      <point x="354" y="452" smooth="yes"/>
      <point x="307" y="461" smooth="yes"/>
      <point x="266" y="461" type="curve" smooth="yes"/>
      <point x="142" y="461" smooth="yes"/>
      <point x="41" y="355" smooth="yes"/>
      <point x="41" y="211" type="curve" smooth="yes"/>
      <point x="41" y="97" smooth="yes"/>
      <point x="104" y="-10" smooth="yes"/>
      <point x="219" y="-10" type="curve" smooth="yes"/>
      <point x="279" y="-10"/>
      <point x="320" y="4"/>
      <point x="378" y="44" type="curve"/>
      <point x="377" y="-163"/>
      <point x="370" y="-215"/>
      <point x="370" y="-215" type="curve"/>
      <point x="368" y="-226"/>
      <point x="322" y="-232"/>
      <point x="301" y="-234" type="curve"/>
      <point x="298" y="-263" type="line"/>
      <point x="330" y="-261" smooth="yes"/>
      <point x="382" y="-260" smooth="yes"/>
      <point x="416" y="-260" type="curve" smooth="yes"/>
      <point x="450" y="-260"/>
      <point x="492" y="-261"/>
      <point x="524" y="-263" type="curve"/>
      <point x="527" y="-234" type="line"/>
      <point x="506" y="-232" smooth="yes"/>
      <point x="465" y="-226" smooth="yes"/>
      <point x="463" y="-215" type="curve" smooth="yes"/>
      <point x="461" y="-203" smooth="yes"/>
      <point x="452" y="-150" smooth="yes"/>
      <point x="452" y="89" type="curve" smooth="yes"/>
      <point x="452" y="337"/>
      <point x="454" y="458"/>
      <point x="454" y="458" type="curve"/>
      <point x="435" y="467" type="line" name="hr01"/>
    </contour>
  </outline>
</glyph>
<glyph name="r" format="1">
  <advance width="377"/>
  <unicode hex="0072"/>
  <outline>
    <contour>
      <point x="160" y="459" type="line"/>
      <point x="126" y="450"/>
      <point x="64" y="441"/>
      <point x="28" y="441" type="curve"/>
      <point x="30" y="415" type="line"/>
      <point x="94" y="396" type="line"/>
      <point x="94" y="396" smooth="yes"/>
      <point x="102" y="375" smooth="yes"/>
      <point x="102" y="229" type="curve" smooth="yes"/>
      <point x="102" y="83"/>
      <point x="94" y="48"/>
      <point x="94" y="48" type="curve"/>
      <point x="92" y="37"/>
      <point x="50" y="28"/>
      <point x="29" y="26" type="curve"/>
      <point x="26" y="-3" type="line"/>
      <point x="58" y="-1" smooth="yes"/>
      <point x="106" y="0" smooth="yes"/>
      <point x="140" y="0" type="curve" smooth="yes" name="hr01"/>
      <point x="174" y="0"/>
      <point x="237" y="-1"/>
      <point x="269" y="-3" type="curve" name="hr02"/>
      <point x="272" y="26" type="line"/>
      <point x="234" y="28"/>
      <point x="188" y="38"/>
      <point x="186" y="49" type="curve"/>
      <point x="183" y="60" smooth="yes"/>
      <point x="177" y="89" smooth="yes"/>
      <point x="177" y="254" type="curve" smooth="yes"/>
      <point x="177" y="359" smooth="yes"/>
      <point x="234" y="391" smooth="yes"/>
      <point x="286" y="391" type="curve" smooth="yes"/>
      <point x="312" y="391"/>
      <point x="337" y="384"/>
      <point x="355" y="377" type="curve"/>
      <point x="370" y="396" type="line"/>
      <point x="361" y="429" smooth="yes"/>
      <point x="329" y="466" smooth="yes"/>
      <point x="319" y="466" type="curve" smooth="yes"/>
      <point x="298" y="466"/>
      <point x="221" y="441"/>
      <point x="177" y="368" type="curve"/>
      <point x="177" y="403"/>
      <point x="177" y="435"/>
      <point x="179" y="450" type="curve"/>
    </contour>
  </outline>
</glyph>
<glyph name="s" format="1">
  <advance width="382"/>
  <unicode hex="0073"/>
  <outline>
    <contour>
      <point x="193" y="460" type="curve" smooth="yes" name="hr00"/>
      <point x="101" y="460" smooth="yes"/>
      <point x="50" y="395" smooth="yes"/>
      <point x="50" y="331" type="curve" smooth="yes"/>
      <point x="50" y="290" smooth="yes"/>
      <point x="71" y="248" smooth="yes"/>
      <point x="116" y="224" type="curve" smooth="yes"/>
      <point x="224" y="164" type="line" smooth="yes"/>
      <point x="256" y="146" smooth="yes"/>
      <point x="271" y="121" smooth="yes"/>
      <point x="271" y="96" type="curve" smooth="yes"/>
      <point x="271" y="61" smooth="yes"/>
      <point x="241" y="28" smooth="yes"/>
      <point x="184" y="28" type="curve" smooth="yes"/>
      <point x="104" y="28"/>
      <point x="96" y="69"/>
      <point x="78" y="140" type="curve"/>
      <point x="52" y="131" type="line"/>
      <point x="52" y="102"/>
      <point x="45" y="45"/>
      <point x="40" y="16" type="curve"/>
      <point x="97" y="-2" smooth="yes"/>
      <point x="150" y="-9" smooth="yes"/>
      <point x="190" y="-9" type="curve" smooth="yes"/>
      <point x="304" y="-9" smooth="yes"/>
      <point x="350" y="56" smooth="yes"/>
      <point x="350" y="117" type="curve" smooth="yes"/>
      <point x="350" y="167" smooth="yes"/>
      <point x="325" y="201" smooth="yes"/>
      <point x="284" y="224" type="curve" smooth="yes"/>
      <point x="182" y="280" type="line" smooth="yes"/>
      <point x="142" y="302" smooth="yes"/>
      <point x="130" y="330" smooth="yes"/>
      <point x="130" y="354" type="curve" smooth="yes"/>
      <point x="130" y="388" smooth="yes"/>
      <point x="160" y="418" smooth="yes"/>
      <point x="205" y="418" type="curve" smooth="yes"/>
      <point x="255" y="418"/>
      <point x="286" y="397"/>
      <point x="304" y="327" type="curve"/>
      <point x="330" y="336" type="line"/>
      <point x="325" y="364" smooth="yes"/>
      <point x="324" y="406" smooth="yes"/>
      <point x="324" y="435" type="curve" smooth="yes"/>
      <point x="324" y="435" smooth="yes"/>
      <point x="276" y="460" smooth="yes"/>
    </contour>
  </outline>
</glyph>
<glyph name="t" format="1">
  <advance width="327"/>
  <unicode hex="0074"/>
  <outline>
    <contour>
      <point x="311" y="71" type="line" name="hr00"/>
      <point x="290" y="61" smooth="yes"/>
      <point x="254" y="48" smooth="yes"/>
      <point x="223" y="48" type="curve" smooth="yes"/>
      <point x="195" y="48" smooth="yes"/>
      <point x="172" y="59" smooth="yes"/>
      <point x="170" y="93" type="curve" smooth="yes"/>
      <point x="167" y="147" smooth="yes"/>
      <point x="167" y="192" smooth="yes"/>
      <point x="167" y="272" type="curve" smooth="yes"/>
      <point x="167" y="406" type="line"/>
      <point x="249" y="405"/>
      <point x="283" y="401"/>
      <point x="283" y="401" type="curve"/>
      <point x="319" y="441" type="line"/>
      <point x="314" y="453" type="line"/>
      <point x="314" y="453"/>
      <point x="258" y="452"/>
      <point x="167" y="452" type="curve"/>
      <point x="167" y="519"/>
      <point x="169" y="593"/>
      <point x="169" y="593" type="curve"/>
      <point x="150" y="602" type="line"/>
      <point x="84" y="543" type="line"/>
      <point x="84" y="543"/>
      <point x="87" y="491"/>
      <point x="88" y="451" type="curve"/>
      <point x="60" y="452"/>
      <point x="46" y="455"/>
      <point x="46" y="455" type="curve"/>
      <point x="23" y="416" type="line"/>
      <point x="26" y="405" type="line"/>
      <point x="26" y="405"/>
      <point x="50" y="405"/>
      <point x="90" y="406" type="curve"/>
      <point x="91" y="366" smooth="yes"/>
      <point x="92" y="310" smooth="yes"/>
      <point x="92" y="243" type="curve" smooth="yes"/>
      <point x="92" y="179"/>
      <point x="91" y="91"/>
      <point x="91" y="91" type="curve"/>
      <point x="91" y="14" smooth="yes"/>
      <point x="138" y="-9" smooth="yes"/>
      <point x="195" y="-9" type="curve" smooth="yes"/>
      <point x="238" y="-9"/>
      <point x="278" y="8"/>
      <point x="323" y="38" type="curve"/>
    </contour>
  </outline>
</glyph>
<glyph name="v" format="1">
  <advance width="479"/>
  <unicode hex="0076"/>
  <outline>
    <contour>
      <point x="142" y="397" type="curve" smooth="yes" name="hr00"/>
      <point x="142" y="407"/>
      <point x="161" y="422"/>
      <point x="205" y="427" type="curve"/>
      <point x="202" y="456" type="line"/>
      <point x="202" y="456" smooth="yes"/>
      <point x="142" y="453" smooth="yes"/>
      <point x="104" y="453" type="curve" smooth="yes"/>
      <point x="67" y="453"/>
      <point x="2" y="456"/>
      <point x="2" y="456" type="curve"/>
      <point x="5" y="427" type="line"/>
      <point x="49" y="420" smooth="yes"/>
      <point x="61" y="401" smooth="yes"/>
      <point x="66" y="386" type="curve" smooth="yes"/>
      <point x="203" y="-9" type="line"/>
      <point x="278" y="0" type="line"/>
      <point x="414" y="387" type="line" smooth="yes"/>
      <point x="421" y="408"/>
      <point x="431" y="420"/>
      <point x="478" y="427" type="curve"/>
      <point x="475" y="456" type="line"/>
      <point x="475" y="456" smooth="yes"/>
      <point x="410" y="453" smooth="yes"/>
      <point x="373" y="453" type="curve" smooth="yes"/>
      <point x="335" y="453"/>
      <point x="301" y="456"/>
      <point x="301" y="456" type="curve"/>
      <point x="304" y="427" type="line"/>
      <point x="341" y="422" smooth="yes"/>
      <point x="359" y="411" smooth="yes"/>
      <point x="359" y="398" type="curve" smooth="yes"/>
      <point x="359" y="391"/>
      <point x="321" y="282"/>
      <point x="250" y="66" type="curve"/>
      <point x="185" y="279" smooth="yes"/>
      <point x="142" y="391" smooth="yes"/>
    </contour>
  </outline>
</glyph>
<glyph name="y" format="1">
  <advance width="482"/>
  <unicode hex="0079"/>
  <outline>
    <contour>
      <point x="228" y="0" type="line" name="hr00"/>
      <point x="168" y="-153" smooth="yes"/>
      <point x="115" y="-183" smooth="yes"/>
      <point x="84" y="-183" type="curve" smooth="yes"/>
      <point x="66" y="-183"/>
      <point x="54" y="-181"/>
      <point x="39" y="-174" type="curve"/>
      <point x="24" y="-193" type="line"/>
      <point x="33" y="-226" smooth="yes"/>
      <point x="65" y="-263" smooth="yes"/>
      <point x="75" y="-263" type="curve" smooth="yes"/>
      <point x="104" y="-263" smooth="yes"/>
      <point x="178" y="-257" smooth="yes"/>
      <point x="275" y="0" type="curve" smooth="yes"/>
      <point x="408" y="354" type="line" smooth="yes"/>
      <point x="427" y="405"/>
      <point x="420" y="418"/>
      <point x="483" y="427" type="curve"/>
      <point x="480" y="456" type="line"/>
      <point x="480" y="456" smooth="yes"/>
      <point x="414" y="453" smooth="yes"/>
      <point x="378" y="453" type="curve" smooth="yes"/>
      <point x="340" y="453"/>
      <point x="306" y="456"/>
      <point x="306" y="456" type="curve"/>
      <point x="309" y="427" type="line"/>
      <point x="346" y="422" smooth="yes"/>
      <point x="364" y="411" smooth="yes"/>
      <point x="364" y="398" type="curve" smooth="yes"/>
      <point x="364" y="386"/>
      <point x="326" y="275"/>
      <point x="252" y="64" type="curve"/>
      <point x="183" y="277" smooth="yes"/>
      <point x="142" y="391" smooth="yes"/>
      <point x="142" y="397" type="curve" smooth="yes"/>
      <point x="142" y="407"/>
      <point x="158" y="422"/>
      <point x="202" y="427" type="curve"/>
      <point x="199" y="456" type="line"/>
      <point x="199" y="456" smooth="yes"/>
      <point x="139" y="453" smooth="yes"/>
      <point x="101" y="453" type="curve" smooth="yes"/>
      <point x="64" y="453"/>
      <point x="-1" y="456"/>
      <point x="-1" y="456" type="curve"/>
      <point x="2" y="427" type="line"/>
      <point x="46" y="420" smooth="yes"/>
      <point x="57" y="401" smooth="yes"/>
      <point x="63" y="386" type="curve" smooth="yes"/>
      <point x="193" y="21" type="line"/>
    </contour>
  </outline>
</glyph>
<glyph name="z" format="1">
  <advance width="444"/>
  <unicode hex="007A"/>
  <outline>
    <contour>
      <point x="398" y="0" type="line"/>
      <point x="400" y="31"/>
      <point x="409" y="107"/>
      <point x="419" y="138" type="curve"/>
      <point x="393" y="147" type="line"/>
      <point x="364" y="54"/>
      <point x="307" y="45"/>
      <point x="130" y="45" type="curve"/>
      <point x="413" y="422" type="line"/>
      <point x="398" y="450" type="line"/>
      <point x="301" y="450"/>
      <point x="118" y="450"/>
      <point x="56" y="455" type="curve" name="hr01"/>
      <point x="56" y="442" type="line"/>
      <point x="56" y="409"/>
      <point x="51" y="358"/>
      <point x="47" y="333" type="curve"/>
      <point x="73" y="324" type="line"/>
      <point x="100" y="409"/>
      <point x="111" y="410"/>
      <point x="313" y="410" type="curve" name="hr02"/>
      <point x="26" y="30" type="line"/>
      <point x="46" y="0" type="line"/>
    </contour>
  </outline>
</glyph>
<glyph name="braceleft" format="1">
  <advance width="353"/>
  <unicode hex="007B"/>
  <outline>
    <contour>
      <point x="60" y="263" type="line"/>
      <point x="62" y="263" smooth="yes"/>
      <point x="129" y="264" smooth="yes"/>
      <point x="129" y="196" type="curve" smooth="yes"/>
      <point x="129" y="175" smooth="yes"/>
      <point x="80" y="-36" smooth="yes"/>
      <point x="80" y="-100" type="curve" smooth="yes" name="hr01"/>
      <point x="80" y="-145"/>
      <point x="204" y="-147"/>
      <point x="303" y="-147" type="curve"/>
      <point x="300" y="-111" type="line"/>
      <point x="249" y="-110" smooth="yes"/>
      <point x="164" y="-98" smooth="yes"/>
      <point x="164" y="-75" type="curve" smooth="yes"/>
      <point x="164" y="-75" smooth="yes"/>
      <point x="195" y="29" smooth="yes"/>
      <point x="195" y="126" type="curve" smooth="yes" name="hr02"/>
      <point x="195" y="193"/>
      <point x="189" y="257"/>
      <point x="137" y="280" type="curve"/>
      <point x="189" y="303" smooth="yes"/>
      <point x="195" y="367" smooth="yes"/>
      <point x="195" y="435" type="curve" smooth="yes"/>
      <point x="195" y="531"/>
      <point x="164" y="635"/>
      <point x="164" y="635" type="curve" name="hr03"/>
      <point x="164" y="658"/>
      <point x="249" y="670"/>
      <point x="300" y="671" type="curve"/>
      <point x="303" y="707" type="line"/>
      <point x="204" y="707" smooth="yes"/>
      <point x="80" y="705" smooth="yes"/>
      <point x="80" y="660" type="curve" smooth="yes"/>
      <point x="80" y="596" smooth="yes"/>
      <point x="129" y="385" smooth="yes"/>
      <point x="129" y="364" type="curve" smooth="yes" name="hr04"/>
      <point x="129" y="296"/>
      <point x="62" y="297"/>
      <point x="60" y="297" type="curve"/>
    </contour>
  </outline>
</glyph>
<glyph name="braceright" format="1">
  <advance width="353"/>
  <unicode hex="007D"/>
  <outline>
    <contour>
      <point x="293" y="297" type="line"/>
      <point x="291" y="297" smooth="yes"/>
      <point x="224" y="296" smooth="yes"/>
      <point x="224" y="364" type="curve" smooth="yes"/>
      <point x="224" y="385" smooth="yes"/>
      <point x="273" y="596" smooth="yes"/>
      <point x="273" y="660" type="curve" smooth="yes" name="hr01"/>
      <point x="273" y="705"/>
      <point x="149" y="707"/>
      <point x="50" y="707" type="curve"/>
      <point x="53" y="671" type="line"/>
      <point x="104" y="670" smooth="yes"/>
      <point x="189" y="658" smooth="yes"/>
      <point x="189" y="635" type="curve" smooth="yes"/>
      <point x="189" y="635" smooth="yes"/>
      <point x="158" y="531" smooth="yes"/>
      <point x="158" y="434" type="curve" smooth="yes" name="hr02"/>
      <point x="158" y="367"/>
      <point x="164" y="303"/>
      <point x="216" y="280" type="curve"/>
      <point x="164" y="257" smooth="yes"/>
      <point x="158" y="193" smooth="yes"/>
      <point x="158" y="125" type="curve" smooth="yes"/>
      <point x="158" y="29"/>
      <point x="189" y="-75"/>
      <point x="189" y="-75" type="curve" name="hr03"/>
      <point x="189" y="-98"/>
      <point x="104" y="-110"/>
      <point x="53" y="-111" type="curve"/>
      <point x="50" y="-147" type="line"/>
      <point x="149" y="-147" smooth="yes"/>
      <point x="273" y="-145" smooth="yes"/>
      <point x="273" y="-100" type="curve" smooth="yes"/>
      <point x="273" y="-36" smooth="yes"/>
      <point x="224" y="175" smooth="yes"/>
      <point x="224" y="196" type="curve" smooth="yes" name="hr04"/>
      <point x="224" y="264"/>
      <point x="291" y="263"/>
      <point x="293" y="263" type="curve"/>
    </contour>
  </outline>
</glyph>
<glyph name="exclamdown" format="1">
  <advance width="236"/>
  <unicode hex="00A1"/>
  <outline>
    <contour>
      <point x="118" y="461" type="curve" smooth="yes" name="hr00"/>
      <point x="89" y="461" smooth="yes"/>
      <point x="65" y="438" smooth="yes"/>
      <point x="65" y="406" type="curve" smooth="yes"/>
      <point x="65" y="376" smooth="yes"/>
      <point x="89" y="353" smooth="yes"/>
      <point x="118" y="353" type="curve" smooth="yes"/>
      <point x="147" y="353" smooth="yes"/>
      <point x="171" y="376" smooth="yes"/>
      <point x="171" y="406" type="curve" smooth="yes"/>
      <point x="171" y="438" smooth="yes"/>
      <point x="147" y="461" smooth="yes"/>
    </contour>
    <contour>
      <point x="64" y="-239" type="line"/>
      <point x="170" y="-237"/>
      <point x="172" y="-212"/>
      <point x="172" y="-212" type="curve"/>
      <point x="135" y="293" type="line"/>
      <point x="97" y="284" type="line"/>
    </contour>
  </outline>
</glyph>
<glyph name="sterling" format="1">
  <advance width="523"/>
  <unicode hex="00A3"/>
  <outline>
    <contour>
      <point x="128" y="50" type="curve"/>
      <point x="179" y="99"/>
      <point x="202" y="196"/>
      <point x="208" y="289" type="curve"/>
      <point x="360" y="289" type="line"/>
      <point x="366" y="332" type="line"/>
      <point x="210" y="332" type="line"/>
      <point x="210" y="341" type="line" smooth="yes"/>
      <point x="210" y="378" smooth="yes"/>
      <point x="207" y="414" smooth="yes"/>
      <point x="207" y="447" type="curve" smooth="yes"/>
      <point x="207" y="529" smooth="yes"/>
      <point x="218" y="597" smooth="yes"/>
      <point x="297" y="597" type="curve" smooth="yes"/>
      <point x="362" y="597"/>
      <point x="404" y="575"/>
      <point x="429" y="485" type="curve"/>
      <point x="453" y="496" type="line"/>
      <point x="447" y="531"/>
      <point x="442" y="599"/>
      <point x="442" y="633" type="curve"/>
      <point x="427" y="630" smooth="yes"/>
      <point x="414" y="628" smooth="yes"/>
      <point x="403" y="628" type="curve" smooth="yes"/>
      <point x="367" y="628" smooth="yes"/>
      <point x="345" y="641" smooth="yes"/>
      <point x="296" y="641" type="curve" smooth="yes" name="hr01"/>
      <point x="191" y="641" smooth="yes"/>
      <point x="119" y="600" smooth="yes"/>
      <point x="119" y="490" type="curve" smooth="yes"/>
      <point x="119" y="457"/>
      <point x="132" y="401"/>
      <point x="134" y="332" type="curve" name="hr02"/>
      <point x="46" y="332" type="line"/>
      <point x="40" y="289" type="line"/>
      <point x="134" y="289" type="line"/>
      <point x="131" y="221"/>
      <point x="113" y="117"/>
      <point x="76" y="54" type="curve"/>
      <point x="31" y="24" type="line"/>
      <point x="46" y="0" type="line"/>
      <point x="448" y="0" type="line"/>
      <point x="450" y="32"/>
      <point x="459" y="109"/>
      <point x="469" y="140" type="curve"/>
      <point x="446" y="151" type="line"/>
      <point x="417" y="75" smooth="yes"/>
      <point x="372" y="42" smooth="yes"/>
      <point x="251" y="42" type="curve" smooth="yes"/>
      <point x="217" y="42"/>
      <point x="176" y="45"/>
    </contour>
  </outline>
</glyph>
<glyph name="yen" format="1">
  <advance width="523"/>
  <unicode hex="00A5"/>
  <outline>
    <contour>
      <point x="162" y="584" type="curve" smooth="yes"/>
      <point x="162" y="600"/>
      <point x="178" y="606"/>
      <point x="209" y="612" type="curve"/>
      <point x="206" y="641" type="line"/>
      <point x="189" y="640" smooth="yes"/>
      <point x="157" y="638" smooth="yes"/>
      <point x="113" y="638" type="curve" smooth="yes"/>
      <point x="89" y="638"/>
      <point x="57" y="639"/>
      <point x="25" y="641" type="curve"/>
      <point x="22" y="612" type="line"/>
      <point x="55" y="605" smooth="yes"/>
      <point x="77" y="596" smooth="yes"/>
      <point x="87" y="570" type="curve" smooth="yes"/>
      <point x="163" y="379" type="line"/>
      <point x="60" y="379" type="line"/>
      <point x="54" y="336" type="line"/>
      <point x="180" y="336" type="line"/>
      <point x="201" y="284" type="line"/>
      <point x="60" y="284" type="line"/>
      <point x="54" y="241" type="line"/>
      <point x="217" y="241" type="line"/>
      <point x="216" y="109"/>
      <point x="213" y="69"/>
      <point x="213" y="69" type="curve"/>
      <point x="210" y="44"/>
      <point x="184" y="38"/>
      <point x="124" y="26" type="curve"/>
      <point x="127" y="-3" type="line"/>
      <point x="169" y="-1" smooth="yes"/>
      <point x="215" y="0" smooth="yes"/>
      <point x="265" y="0" type="curve" smooth="yes" name="hr01"/>
      <point x="315" y="0"/>
      <point x="353" y="-1"/>
      <point x="395" y="-3" type="curve" name="hr02"/>
      <point x="398" y="26" type="line"/>
      <point x="338" y="38"/>
      <point x="316" y="44"/>
      <point x="313" y="69" type="curve"/>
      <point x="313" y="69"/>
      <point x="309" y="111"/>
      <point x="308" y="241" type="curve"/>
      <point x="465" y="241" type="line"/>
      <point x="471" y="284" type="line"/>
      <point x="320" y="284" type="line"/>
      <point x="343" y="336" type="line"/>
      <point x="465" y="336" type="line"/>
      <point x="471" y="379" type="line"/>
      <point x="363" y="379" type="line"/>
      <point x="448" y="569" type="line" smooth="yes"/>
      <point x="461" y="597"/>
      <point x="473" y="606"/>
      <point x="506" y="612" type="curve"/>
      <point x="503" y="641" type="line"/>
      <point x="469" y="639" smooth="yes"/>
      <point x="445" y="638" smooth="yes"/>
      <point x="426" y="638" type="curve" smooth="yes"/>
      <point x="396" y="638"/>
      <point x="378" y="640"/>
      <point x="352" y="641" type="curve"/>
      <point x="349" y="612" type="line"/>
      <point x="383" y="602" smooth="yes"/>
      <point x="395" y="594" smooth="yes"/>
      <point x="395" y="580" type="curve" smooth="yes"/>
      <point x="395" y="577" smooth="yes"/>
      <point x="395" y="573" smooth="yes"/>
      <point x="393" y="569" type="curve" smooth="yes"/>
      <point x="271" y="295" type="line"/>
      <point x="218" y="426" smooth="yes"/>
      <point x="162" y="579" smooth="yes"/>
    </contour>
  </outline>
</glyph>
<glyph name="brokenbar" format="1">
  <advance width="289"/>
  <unicode hex="00A6"/>
  <outline>
    <contour>
      <point x="112" y="-140" type="line" name="hr00"/>
      <point x="177" y="-140" type="line"/>
      <point x="177" y="195" type="line"/>
      <point x="112" y="195" type="line"/>
    </contour>
    <contour>
      <point x="112" y="366" type="line"/>
      <point x="177" y="366" type="line"/>
      <point x="177" y="701" type="line"/>
      <point x="112" y="701" type="line"/>
    </contour>
  </outline>
</glyph>
<glyph name="guillemotleft" format="1">
  <advance width="517"/>
  <unicode hex="00AB"/>
  <outline>
    <contour>
      <point x="397" y="389" type="line" name="hr00"/>
      <point x="240" y="238" type="line"/>
      <point x="238" y="234" smooth="yes"/>
      <point x="236" y="228" smooth="yes"/>
      <point x="236" y="223" type="curve" smooth="yes"/>
      <point x="236" y="218"/>
      <point x="238" y="212"/>
      <point x="240" y="208" type="curve"/>
      <point x="397" y="57" type="line"/>
      <point x="417" y="74" type="line"/>
      <point x="313" y="223" type="line"/>
      <point x="417" y="372" type="line"/>
    </contour>
    <contour>
      <point x="251" y="389" type="line"/>
      <point x="94" y="238" type="line"/>
      <point x="92" y="234" smooth="yes"/>
      <point x="90" y="228" smooth="yes"/>
      <point x="90" y="223" type="curve" smooth="yes"/>
      <point x="90" y="218"/>
      <point x="92" y="212"/>
      <point x="94" y="208" type="curve"/>
      <point x="251" y="57" type="line"/>
      <point x="271" y="74" type="line"/>
      <point x="167" y="223" type="line"/>
      <point x="271" y="372" type="line"/>
    </contour>
  </outline>
</glyph>
<glyph name="logicalnot" format="1">
  <advance width="523"/>
  <unicode hex="00AC"/>
  <outline>
    <contour>
      <point x="24" y="273" type="line" name="hr00"/>
      <point x="438" y="273" type="line"/>
      <point x="438" y="66" type="line"/>
      <point x="499" y="66" type="line"/>
      <point x="499" y="334" type="line"/>
      <point x="24" y="334" type="line"/>
    </contour>
  </outline>
</glyph>
<glyph name="registered" format="1">
  <advance width="600"/>
  <unicode hex="00AE"/>
  <outline>
    <contour>
      <point x="319" y="496" type="curve" name="hr00"/>
      <point x="304" y="491"/>
      <point x="272" y="491"/>
      <point x="252" y="491" type="curve"/>
      <point x="252" y="588"/>
      <point x="258" y="615"/>
      <point x="258" y="615" type="curve"/>
      <point x="260" y="623" smooth="yes"/>
      <point x="263" y="624" smooth="yes"/>
      <point x="281" y="624" type="curve" smooth="yes"/>
      <point x="331" y="624" smooth="yes"/>
      <point x="355" y="605" smooth="yes"/>
      <point x="355" y="569" type="curve" smooth="yes"/>
      <point x="355" y="535"/>
      <point x="341" y="509"/>
    </contour>
    <contour>
      <point x="258" y="352" type="curve"/>
      <point x="258" y="352"/>
      <point x="252" y="371"/>
      <point x="252" y="472" type="curve"/>
      <point x="268" y="472"/>
      <point x="280" y="472"/>
      <point x="294" y="473" type="curve"/>
      <point x="377" y="313" type="line"/>
      <point x="377" y="313"/>
      <point x="431" y="316"/>
      <point x="462" y="316" type="curve"/>
      <point x="463" y="332" type="line"/>
      <point x="447" y="334"/>
      <point x="430" y="338"/>
      <point x="424" y="341" type="curve"/>
      <point x="394" y="388"/>
      <point x="370" y="434"/>
      <point x="341" y="483" type="curve"/>
      <point x="383" y="501" smooth="yes"/>
      <point x="407" y="537" smooth="yes"/>
      <point x="407" y="572" type="curve" smooth="yes"/>
      <point x="407" y="611" smooth="yes"/>
      <point x="376" y="647" smooth="yes"/>
      <point x="309" y="647" type="curve" smooth="yes"/>
      <point x="227" y="647" type="line" smooth="yes"/>
      <point x="204" y="647"/>
      <point x="178" y="647"/>
      <point x="157" y="648" type="curve"/>
      <point x="156" y="632" type="line"/>
      <point x="185" y="627"/>
      <point x="194" y="624"/>
      <point x="196" y="613" type="curve"/>
      <point x="196" y="613" smooth="yes"/>
      <point x="200" y="584" smooth="yes"/>
      <point x="200" y="483" type="curve" smooth="yes"/>
      <point x="200" y="381"/>
      <point x="196" y="352"/>
      <point x="196" y="352" type="curve"/>
      <point x="194" y="341"/>
      <point x="182" y="338"/>
      <point x="152" y="332" type="curve"/>
      <point x="154" y="316" type="line"/>
      <point x="175" y="317" smooth="yes"/>
      <point x="204" y="318" smooth="yes"/>
      <point x="227" y="318" type="curve" smooth="yes"/>
      <point x="252" y="318"/>
      <point x="277" y="317"/>
      <point x="298" y="316" type="curve"/>
      <point x="299" y="332" type="line"/>
      <point x="269" y="338"/>
      <point x="259" y="341"/>
    </contour>
    <contour>
      <point x="55" y="479" type="curve"/>
      <point x="55" y="613" smooth="yes"/>
      <point x="165" y="723" smooth="yes"/>
      <point x="299" y="723" type="curve" smooth="yes"/>
      <point x="434" y="723" smooth="yes"/>
      <point x="543" y="613" smooth="yes"/>
      <point x="543" y="479" type="curve" smooth="yes"/>
      <point x="543" y="344" smooth="yes"/>
      <point x="434" y="235" smooth="yes"/>
      <point x="299" y="235" type="curve" smooth="yes"/>
      <point x="165" y="235" smooth="yes"/>
      <point x="55" y="344" smooth="yes"/>
    </contour>
    <contour>
      <point x="18" y="479" type="curve"/>
      <point x="18" y="323" smooth="yes"/>
      <point x="144" y="197" smooth="yes"/>
      <point x="299" y="197" type="curve" smooth="yes"/>
      <point x="455" y="197" smooth="yes"/>
      <point x="581" y="323" smooth="yes"/>
      <point x="581" y="479" type="curve" smooth="yes"/>
      <point x="581" y="634" smooth="yes"/>
      <point x="455" y="760" smooth="yes"/>
      <point x="299" y="760" type="curve" smooth="yes"/>
      <point x="144" y="760" smooth="yes"/>
      <point x="18" y="634" smooth="yes"/>
    </contour>
  </outline>
</glyph>
<glyph name="macron" format="1">
  <advance width="360"/>
  <unicode hex="00AF"/>
  <outline>
    <contour>
      <point x="340" y="618" type="line"/>
      <point x="332" y="633" type="line"/>
      <point x="290" y="630" smooth="yes"/>
      <point x="248" y="629" smooth="yes"/>
      <point x="206" y="629" type="curve" smooth="yes"/>
      <point x="156" y="629"/>
      <point x="107" y="631"/>
      <point x="57" y="634" type="curve" name="hr01"/>
      <point x="18" y="588" type="line"/>
      <point x="26" y="572" type="line"/>
      <point x="72" y="575" smooth="yes"/>
      <point x="118" y="576" smooth="yes"/>
      <point x="163" y="576" type="curve" smooth="yes" name="hr02"/>
      <point x="209" y="576"/>
      <point x="255" y="575"/>
      <point x="301" y="572" type="curve" name="hr03"/>
    </contour>
  </outline>
</glyph>
<glyph name="degree" format="1">
  <advance width="281"/>
  <unicode hex="00B0"/>
  <outline>
    <contour>
      <point x="10" y="554" type="curve" name="hr00"/>
      <point x="10" y="482" smooth="yes"/>
      <point x="68" y="424" smooth="yes"/>
      <point x="140" y="424" type="curve" smooth="yes"/>
      <point x="212" y="424" smooth="yes"/>
      <point x="271" y="482" smooth="yes"/>
      <point x="271" y="554" type="curve" smooth="yes"/>
      <point x="271" y="626" smooth="yes"/>
      <point x="212" y="685" smooth="yes"/>
      <point x="140" y="685" type="curve" smooth="yes"/>
      <point x="68" y="685"/>
      <point x="10" y="626"/>
    </contour>
    <contour>
      <point x="52" y="554" type="curve"/>
      <point x="52" y="603" smooth="yes"/>
      <point x="91" y="644" smooth="yes"/>
      <point x="140" y="644" type="curve" smooth="yes"/>
      <point x="189" y="644" smooth="yes"/>
      <point x="230" y="603" smooth="yes"/>
      <point x="230" y="554" type="curve" smooth="yes"/>
      <point x="230" y="505" smooth="yes"/>
      <point x="189" y="466" smooth="yes"/>
      <point x="140" y="466" type="curve" smooth="yes"/>
      <point x="91" y="466" smooth="yes"/>
      <point x="52" y="505" smooth="yes"/>
    </contour>
  </outline>
</glyph>
<glyph name="mu" format="1">
  <advance width="550"/>
  <unicode hex="00B5"/>
  <outline>
    <contour>
      <point x="217" y="-9" type="curve" smooth="yes"/>
      <point x="275" y="-9"/>
      <point x="348" y="24"/>
      <point x="381" y="56" type="curve"/>
      <point x="388" y="10" smooth="yes"/>
      <point x="417" y="-10" smooth="yes"/>
      <point x="451" y="-10" type="curve" smooth="yes" name="hr01"/>
      <point x="479" y="-10"/>
      <point x="510" y="4"/>
      <point x="534" y="26" type="curve"/>
      <point x="531" y="56" type="line"/>
      <point x="519" y="49" smooth="yes"/>
      <point x="505" y="44" smooth="yes"/>
      <point x="493" y="44" type="curve" smooth="yes"/>
      <point x="474" y="44"/>
      <point x="459" y="56"/>
      <point x="458" y="92" type="curve"/>
      <point x="458" y="92" smooth="yes"/>
      <point x="455" y="118" smooth="yes"/>
      <point x="455" y="202" type="curve" smooth="yes"/>
      <point x="455" y="375"/>
      <point x="458" y="450"/>
      <point x="458" y="450" type="curve"/>
      <point x="439" y="459" type="line"/>
      <point x="405" y="450"/>
      <point x="343" y="441"/>
      <point x="307" y="441" type="curve"/>
      <point x="309" y="415" type="line"/>
      <point x="372" y="396" type="line"/>
      <point x="372" y="396" smooth="yes"/>
      <point x="380" y="375" smooth="yes"/>
      <point x="380" y="229" type="curve" smooth="yes"/>
      <point x="380" y="152"/>
      <point x="378" y="122"/>
      <point x="376" y="95" type="curve"/>
      <point x="348" y="78" smooth="yes"/>
      <point x="289" y="58" smooth="yes"/>
      <point x="240" y="58" type="curve" smooth="yes"/>
      <point x="192" y="58" smooth="yes"/>
      <point x="160" y="68" smooth="yes"/>
      <point x="160" y="138" type="curve" smooth="yes"/>
      <point x="160" y="284"/>
      <point x="163" y="450"/>
      <point x="163" y="450" type="curve"/>
      <point x="144" y="459" type="line"/>
      <point x="110" y="450"/>
      <point x="53" y="441"/>
      <point x="17" y="441" type="curve"/>
      <point x="19" y="415" type="line"/>
      <point x="78" y="396" type="line"/>
      <point x="81" y="316" smooth="yes"/>
      <point x="85" y="232" smooth="yes"/>
      <point x="85" y="78" type="curve" smooth="yes"/>
      <point x="85" y="-223" smooth="yes"/>
      <point x="126" y="-259" smooth="yes"/>
      <point x="165" y="-259" type="curve" smooth="yes"/>
      <point x="187" y="-259" smooth="yes"/>
      <point x="216" y="-222" smooth="yes"/>
      <point x="216" y="-189" type="curve" smooth="yes"/>
      <point x="216" y="-179" smooth="yes"/>
      <point x="210" y="-176" smooth="yes"/>
      <point x="202" y="-176" type="curve" smooth="yes"/>
      <point x="144" y="-176"/>
      <point x="130" y="-102"/>
      <point x="130" y="-21" type="curve" name="hr02"/>
      <point x="130" y="37" type="line"/>
      <point x="134" y="37" type="line"/>
      <point x="145" y="4" smooth="yes"/>
      <point x="180" y="-9" smooth="yes"/>
    </contour>
  </outline>
</glyph>
<glyph name="guillemotright" format="1">
  <advance width="517"/>
  <unicode hex="00BB"/>
  <outline>
    <contour>
      <point x="100" y="372" type="line" name="hr00"/>
      <point x="204" y="223" type="line"/>
      <point x="100" y="74" type="line"/>
      <point x="120" y="57" type="line"/>
      <point x="277" y="208" type="line"/>
      <point x="279" y="212" smooth="yes"/>
      <point x="281" y="218" smooth="yes"/>
      <point x="281" y="223" type="curve" smooth="yes"/>
      <point x="281" y="228"/>
      <point x="279" y="234"/>
      <point x="277" y="238" type="curve"/>
      <point x="120" y="389" type="line"/>
    </contour>
    <contour>
      <point x="246" y="372" type="line"/>
      <point x="350" y="223" type="line"/>
      <point x="246" y="74" type="line"/>
      <point x="266" y="57" type="line"/>
      <point x="423" y="208" type="line"/>
      <point x="425" y="212" smooth="yes"/>
      <point x="427" y="218" smooth="yes"/>
      <point x="427" y="223" type="curve" smooth="yes"/>
      <point x="427" y="228"/>
      <point x="425" y="234"/>
      <point x="423" y="238" type="curve"/>
      <point x="266" y="389" type="line"/>
    </contour>
  </outline>
</glyph>
<glyph name="questiondown" format="1">
  <advance width="343"/>
  <unicode hex="00BF"/>
  <outline>
    <contour>
      <point x="195" y="461" type="curve" smooth="yes" name="hr00"/>
      <point x="166" y="461" smooth="yes"/>
      <point x="142" y="438" smooth="yes"/>
      <point x="142" y="406" type="curve" smooth="yes"/>
      <point x="142" y="376" smooth="yes"/>
      <point x="166" y="353" smooth="yes"/>
      <point x="195" y="353" type="curve" smooth="yes"/>
      <point x="224" y="353" smooth="yes"/>
      <point x="248" y="376" smooth="yes"/>
      <point x="248" y="406" type="curve" smooth="yes"/>
      <point x="248" y="438" smooth="yes"/>
      <point x="224" y="461" smooth="yes"/>
    </contour>
    <contour>
      <point x="275" y="-132" type="curve"/>
      <point x="158" y="-129" smooth="yes"/>
      <point x="97" y="-93" smooth="yes"/>
      <point x="97" y="-46" type="curve" smooth="yes"/>
      <point x="97" y="27" smooth="yes"/>
      <point x="266" y="71" smooth="yes"/>
      <point x="266" y="153" type="curve" smooth="yes"/>
      <point x="266" y="187"/>
      <point x="254" y="232"/>
      <point x="213" y="293" type="curve"/>
      <point x="175" y="284" type="line"/>
      <point x="188" y="255" smooth="yes"/>
      <point x="190" y="232" smooth="yes"/>
      <point x="190" y="209" type="curve" smooth="yes"/>
      <point x="190" y="102" smooth="yes"/>
      <point x="50" y="83" smooth="yes"/>
      <point x="50" y="-18" type="curve" smooth="yes"/>
      <point x="50" y="-91"/>
      <point x="108" y="-169"/>
      <point x="271" y="-241" type="curve"/>
      <point x="288" y="-228" smooth="yes"/>
      <point x="293" y="-209" smooth="yes"/>
      <point x="293" y="-190" type="curve" smooth="yes"/>
      <point x="293" y="-174"/>
      <point x="284" y="-143"/>
    </contour>
  </outline>
</glyph>
<glyph name="Thorn" format="1">
  <advance width="576"/>
  <unicode hex="00DE"/>
  <outline>
    <contour>
      <point x="224" y="69" type="curve"/>
      <point x="224" y="69"/>
      <point x="220" y="98"/>
      <point x="218" y="180" type="curve"/>
      <point x="242" y="176" smooth="yes"/>
      <point x="265" y="175" smooth="yes"/>
      <point x="287" y="175" type="curve" smooth="yes"/>
      <point x="456" y="175" smooth="yes"/>
      <point x="551" y="291" smooth="yes"/>
      <point x="551" y="397" type="curve" smooth="yes"/>
      <point x="551" y="492" smooth="yes"/>
      <point x="480" y="580" smooth="yes"/>
      <point x="325" y="580" type="curve" smooth="yes"/>
      <point x="221" y="580" type="line"/>
      <point x="222" y="606"/>
      <point x="224" y="616"/>
      <point x="224" y="616" type="curve"/>
      <point x="227" y="641"/>
      <point x="246" y="647"/>
      <point x="306" y="659" type="curve"/>
      <point x="303" y="688" type="line"/>
      <point x="261" y="686" smooth="yes"/>
      <point x="223" y="685" smooth="yes"/>
      <point x="173" y="685" type="curve" smooth="yes"/>
      <point x="123" y="685"/>
      <point x="81" y="686"/>
      <point x="39" y="688" type="curve"/>
      <point x="36" y="659" type="line"/>
      <point x="96" y="647"/>
      <point x="115" y="641"/>
      <point x="118" y="616" type="curve"/>
      <point x="118" y="616" smooth="yes"/>
      <point x="126" y="557" smooth="yes"/>
      <point x="126" y="342" type="curve" smooth="yes"/>
      <point x="126" y="128"/>
      <point x="118" y="69"/>
      <point x="118" y="69" type="curve"/>
      <point x="115" y="44"/>
      <point x="89" y="38"/>
      <point x="29" y="26" type="curve"/>
      <point x="32" y="-3" type="line"/>
      <point x="74" y="-1" smooth="yes"/>
      <point x="123" y="0" smooth="yes"/>
      <point x="173" y="0" type="curve" smooth="yes" name="hr01"/>
      <point x="223" y="0"/>
      <point x="264" y="-1"/>
      <point x="306" y="-3" type="curve" name="hr02"/>
      <point x="309" y="26" type="line"/>
      <point x="249" y="38"/>
      <point x="227" y="44"/>
    </contour>
    <contour>
      <point x="216" y="220" type="curve"/>
      <point x="216" y="452"/>
      <point x="226" y="504"/>
      <point x="226" y="504" type="curve"/>
      <point x="231" y="537" smooth="yes"/>
      <point x="240" y="538" smooth="yes"/>
      <point x="287" y="538" type="curve" smooth="yes"/>
      <point x="395" y="538" smooth="yes"/>
      <point x="455" y="497" smooth="yes"/>
      <point x="455" y="384" type="curve" smooth="yes"/>
      <point x="455" y="266" smooth="yes"/>
      <point x="381" y="217" smooth="yes"/>
      <point x="271" y="217" type="curve" smooth="yes"/>
      <point x="254" y="217"/>
      <point x="235" y="218"/>
    </contour>
  </outline>
</glyph>
<glyph name="ae" format="1">
  <advance width="700"/>
  <unicode hex="00E6"/>
  <outline>
    <contour>
      <point x="579" y="316" type="curve" smooth="yes" name="hr00"/>
      <point x="579" y="307"/>
      <point x="578" y="297"/>
      <point x="576" y="287" type="curve"/>
      <point x="509" y="276"/>
      <point x="454" y="271"/>
      <point x="371" y="262" type="curve"/>
      <point x="385" y="355" smooth="yes"/>
      <point x="429" y="411" smooth="yes"/>
      <point x="495" y="411" type="curve" smooth="yes"/>
      <point x="531" y="411" smooth="yes"/>
      <point x="579" y="383" smooth="yes"/>
    </contour>
    <contour>
      <point x="284" y="255" type="line"/>
      <point x="98" y="242" smooth="yes"/>
      <point x="39" y="167" smooth="yes"/>
      <point x="39" y="95" type="curve" smooth="yes"/>
      <point x="39" y="23" smooth="yes"/>
      <point x="89" y="-9" smooth="yes"/>
      <point x="142" y="-9" type="curve" smooth="yes"/>
      <point x="202" y="-9"/>
      <point x="256" y="8"/>
      <point x="322" y="63" type="curve"/>
      <point x="357" y="19" smooth="yes"/>
      <point x="412" y="-9" smooth="yes"/>
      <point x="492" y="-9" type="curve" smooth="yes"/>
      <point x="560" y="-9"/>
      <point x="615" y="18"/>
      <point x="656" y="53" type="curve"/>
      <point x="644" y="83" type="line"/>
      <point x="616" y="69" smooth="yes"/>
      <point x="566" y="53" smooth="yes"/>
      <point x="516" y="53" type="curve" smooth="yes"/>
      <point x="395" y="53"/>
      <point x="366" y="131"/>
      <point x="366" y="220" type="curve"/>
      <point x="456" y="228"/>
      <point x="524" y="231"/>
      <point x="635" y="244" type="curve"/>
      <point x="669" y="285" type="line"/>
      <point x="669" y="408" smooth="yes"/>
      <point x="588" y="460" smooth="yes"/>
      <point x="517" y="460" type="curve" smooth="yes"/>
      <point x="445" y="460"/>
      <point x="392" y="437"/>
      <point x="354" y="403" type="curve"/>
      <point x="340" y="453" smooth="yes"/>
      <point x="296" y="460" smooth="yes"/>
      <point x="245" y="460" type="curve" smooth="yes"/>
      <point x="120" y="460" smooth="yes"/>
      <point x="51" y="373" smooth="yes"/>
      <point x="51" y="354" type="curve" smooth="yes"/>
      <point x="51" y="343"/>
      <point x="78" y="311"/>
      <point x="106" y="296" type="curve"/>
      <point x="128" y="306" type="line"/>
      <point x="126" y="316" smooth="yes"/>
      <point x="125" y="325" smooth="yes"/>
      <point x="125" y="334" type="curve" smooth="yes"/>
      <point x="125" y="377" smooth="yes"/>
      <point x="152" y="407" smooth="yes"/>
      <point x="211" y="407" type="curve" smooth="yes"/>
      <point x="251" y="407" smooth="yes"/>
      <point x="284" y="391" smooth="yes"/>
      <point x="284" y="351" type="curve" smooth="yes"/>
    </contour>
    <contour>
      <point x="284" y="213" type="curve"/>
      <point x="284" y="165"/>
      <point x="291" y="129"/>
      <point x="303" y="90" type="curve"/>
      <point x="266" y="66" smooth="yes"/>
      <point x="217" y="51" smooth="yes"/>
      <point x="188" y="51" type="curve" smooth="yes"/>
      <point x="149" y="51" smooth="yes"/>
      <point x="123" y="71" smooth="yes"/>
      <point x="123" y="111" type="curve" smooth="yes"/>
      <point x="123" y="158"/>
      <point x="169" y="203"/>
    </contour>
  </outline>
</glyph>
<glyph name="Hbar" format="1">
  <advance width="803"/>
  <unicode hex="0126"/>
  <outline>
    <contour>
      <point x="761" y="519" type="line" name="hr00"/>
      <point x="54" y="519" type="line"/>
      <point x="41" y="477" type="line"/>
      <point x="748" y="477" type="line"/>
    </contour>
    <component  base="H"/>
  </outline>
</glyph>
<glyph name="jcircumflex" format="1">
  <advance width="269"/>
  <unicode hex="0135"/>
  <outline>
    <contour>
      <point x="105" y="15" type="curve" name="hr00"/>
      <point x="105" y="-160" smooth="yes"/>
      <point x="71" y="-193" smooth="yes"/>
      <point x="39" y="-193" type="curve" smooth="yes"/>
      <point x="15" y="-193"/>
      <point x="-8" y="-182"/>
      <point x="-21" y="-174" type="curve"/>
      <point x="-36" y="-193" type="line"/>
      <point x="-27" y="-226" smooth="yes"/>
      <point x="5" y="-263" smooth="yes"/>
      <point x="15" y="-263" type="curve" smooth="yes"/>
      <point x="34" y="-263" smooth="yes"/>
      <point x="180" y="-208" smooth="yes"/>
      <point x="180" y="54" type="curve" smooth="yes"/>
      <point x="180" y="298"/>
      <point x="182" y="450"/>
      <point x="182" y="450" type="curve"/>
      <point x="163" y="459" type="line"/>
      <point x="129" y="450"/>
      <point x="67" y="441"/>
      <point x="31" y="441" type="curve"/>
      <point x="33" y="415" type="line"/>
      <point x="97" y="396" type="line"/>
      <point x="97" y="396" smooth="yes"/>
      <point x="105" y="289" smooth="yes"/>
    </contour>
    <component  base="circumflex" xOffset="-44"/>
  </outline>
</glyph>
<glyph name="kgreenlandic" format="1">
  <advance width="511"/>
  <unicode hex="0138"/>
  <outline>
    <contour>
      <point x="162" y="459" type="line"/>
      <point x="128" y="450"/>
      <point x="66" y="441"/>
      <point x="30" y="441" type="curve"/>
      <point x="32" y="415" type="line"/>
      <point x="96" y="396" type="line"/>
      <point x="96" y="396" smooth="yes"/>
      <point x="104" y="375" smooth="yes"/>
      <point x="104" y="229" type="curve" smooth="yes"/>
      <point x="104" y="83"/>
      <point x="96" y="48"/>
      <point x="96" y="48" type="curve"/>
      <point x="94" y="37"/>
      <point x="47" y="28"/>
      <point x="26" y="26" type="curve"/>
      <point x="23" y="-3" type="line"/>
      <point x="55" y="-1" smooth="yes"/>
      <point x="108" y="0" smooth="yes"/>
      <point x="142" y="0" type="curve" smooth="yes"/>
      <point x="172" y="0"/>
      <point x="216" y="-1"/>
      <point x="244" y="-3" type="curve"/>
      <point x="247" y="26" type="line"/>
      <point x="230" y="28"/>
      <point x="191" y="37"/>
      <point x="189" y="48" type="curve"/>
      <point x="189" y="48" smooth="yes"/>
      <point x="179" y="83" smooth="yes"/>
      <point x="179" y="229" type="curve" smooth="yes"/>
      <point x="179" y="294"/>
      <point x="181" y="414"/>
      <point x="181" y="450" type="curve"/>
    </contour>
    <contour>
      <point x="120" y="124" type="line"/>
      <point x="216" y="216" type="line"/>
      <point x="379" y="-9" type="line" name="hr01"/>
      <point x="379" y="-9"/>
      <point x="455" y="-5"/>
      <point x="499" y="-5" type="curve" name="hr02"/>
      <point x="501" y="24" type="line"/>
      <point x="460" y="27"/>
      <point x="445" y="34"/>
      <point x="445" y="34" type="curve"/>
      <point x="272" y="266" type="line"/>
      <point x="412" y="395" type="line"/>
      <point x="427" y="407"/>
      <point x="449" y="419"/>
      <point x="490" y="426" type="curve"/>
      <point x="488" y="455" type="line"/>
      <point x="458" y="454" smooth="yes"/>
      <point x="441" y="453" smooth="yes"/>
      <point x="405" y="453" type="curve" smooth="yes"/>
      <point x="369" y="453"/>
      <point x="343" y="454"/>
      <point x="312" y="455" type="curve"/>
      <point x="310" y="426" type="line"/>
      <point x="338" y="421" smooth="yes"/>
      <point x="351" y="411" smooth="yes"/>
      <point x="351" y="404" type="curve" smooth="yes"/>
      <point x="351" y="401" smooth="yes"/>
      <point x="350" y="398" smooth="yes"/>
      <point x="346" y="395" type="curve" smooth="yes"/>
      <point x="110" y="173" type="line"/>
    </contour>
  </outline>
</glyph>
<glyph name="Eng" format="1">
  <advance width="785"/>
  <unicode hex="014A"/>
  <outline>
    <contour>
      <point x="591" y="7" type="line" smooth="yes" name="hr00"/>
      <point x="608" y="-16" smooth="yes"/>
      <point x="615" y="-45" smooth="yes"/>
      <point x="615" y="-72" type="curve" smooth="yes"/>
      <point x="615" y="-134" smooth="yes"/>
      <point x="580" y="-193" smooth="yes"/>
      <point x="541" y="-193" type="curve" smooth="yes"/>
      <point x="517" y="-193"/>
      <point x="494" y="-182"/>
      <point x="481" y="-174" type="curve"/>
      <point x="466" y="-193" type="line"/>
      <point x="475" y="-226" smooth="yes"/>
      <point x="507" y="-263" smooth="yes"/>
      <point x="517" y="-263" type="curve" smooth="yes"/>
      <point x="536" y="-263" smooth="yes"/>
      <point x="670" y="-262" smooth="yes"/>
      <point x="670" y="0" type="curve" smooth="yes"/>
      <point x="670" y="0" smooth="yes"/>
      <point x="670" y="127" smooth="yes"/>
      <point x="670" y="342" type="curve" smooth="yes"/>
      <point x="670" y="557"/>
      <point x="680" y="616"/>
      <point x="680" y="616" type="curve"/>
      <point x="683" y="641"/>
      <point x="702" y="647"/>
      <point x="762" y="659" type="curve"/>
      <point x="759" y="688" type="line"/>
      <point x="717" y="686" smooth="yes"/>
      <point x="702" y="685" smooth="yes"/>
      <point x="652" y="685" type="curve" smooth="yes"/>
      <point x="602" y="685"/>
      <point x="552" y="686"/>
      <point x="510" y="688" type="curve"/>
      <point x="507" y="659" type="line"/>
      <point x="567" y="647"/>
      <point x="598" y="641"/>
      <point x="601" y="616" type="curve"/>
      <point x="601" y="616" smooth="yes"/>
      <point x="610" y="557" smooth="yes"/>
      <point x="610" y="342" type="curve" smooth="yes"/>
      <point x="610" y="262"/>
      <point x="610" y="188"/>
      <point x="608" y="132" type="curve"/>
      <point x="603" y="132" type="line"/>
      <point x="188" y="685" type="line"/>
      <point x="138" y="685"/>
      <point x="81" y="686"/>
      <point x="39" y="688" type="curve"/>
      <point x="36" y="659" type="line"/>
      <point x="96" y="647"/>
      <point x="115" y="641"/>
      <point x="118" y="616" type="curve"/>
      <point x="118" y="616" smooth="yes"/>
      <point x="126" y="557" smooth="yes"/>
      <point x="126" y="342" type="curve" smooth="yes"/>
      <point x="126" y="127"/>
      <point x="118" y="69"/>
      <point x="118" y="69" type="curve"/>
      <point x="115" y="44"/>
      <point x="81" y="37"/>
      <point x="21" y="26" type="curve"/>
      <point x="24" y="-3" type="line"/>
      <point x="66" y="-1" smooth="yes"/>
      <point x="96" y="0" smooth="yes"/>
      <point x="146" y="0" type="curve" smooth="yes"/>
      <point x="196" y="0"/>
      <point x="246" y="-1"/>
      <point x="288" y="-3" type="curve"/>
      <point x="291" y="26" type="line"/>
      <point x="231" y="38"/>
      <point x="200" y="44"/>
      <point x="197" y="69" type="curve"/>
      <point x="197" y="69" smooth="yes"/>
      <point x="186" y="127" smooth="yes"/>
      <point x="186" y="342" type="curve" smooth="yes"/>
      <point x="186" y="427"/>
      <point x="188" y="493"/>
      <point x="190" y="537" type="curve"/>
      <point x="195" y="537" type="line"/>
    </contour>
  </outline>
</glyph>
<glyph name="eng" format="1">
  <advance width="547"/>
  <unicode hex="014B"/>
  <outline>
    <contour>
      <point x="471" y="365" type="line" smooth="yes" name="hr00"/>
      <point x="471" y="437" smooth="yes"/>
      <point x="424" y="460" smooth="yes"/>
      <point x="367" y="460" type="curve" smooth="yes"/>
      <point x="299" y="460"/>
      <point x="215" y="426"/>
      <point x="174" y="402" type="curve"/>
      <point x="174" y="450" type="line"/>
      <point x="155" y="459" type="line"/>
      <point x="121" y="450"/>
      <point x="59" y="441"/>
      <point x="23" y="441" type="curve"/>
      <point x="25" y="415" type="line"/>
      <point x="89" y="396" type="line"/>
      <point x="89" y="396" smooth="yes"/>
      <point x="97" y="375" smooth="yes"/>
      <point x="97" y="229" type="curve" smooth="yes"/>
      <point x="97" y="83"/>
      <point x="89" y="48"/>
      <point x="89" y="48" type="curve"/>
      <point x="87" y="37"/>
      <point x="47" y="28"/>
      <point x="26" y="26" type="curve"/>
      <point x="23" y="-3" type="line"/>
      <point x="55" y="-1" smooth="yes"/>
      <point x="101" y="0" smooth="yes"/>
      <point x="135" y="0" type="curve" smooth="yes"/>
      <point x="169" y="0"/>
      <point x="211" y="-1"/>
      <point x="243" y="-3" type="curve"/>
      <point x="246" y="26" type="line"/>
      <point x="225" y="28"/>
      <point x="184" y="37"/>
      <point x="182" y="48" type="curve"/>
      <point x="182" y="48" smooth="yes"/>
      <point x="172" y="83" smooth="yes"/>
      <point x="172" y="229" type="curve" smooth="yes"/>
      <point x="172" y="288"/>
      <point x="173" y="329"/>
      <point x="173" y="362" type="curve"/>
      <point x="205" y="375" smooth="yes"/>
      <point x="269" y="398" smooth="yes"/>
      <point x="319" y="398" type="curve" smooth="yes"/>
      <point x="361" y="398" smooth="yes"/>
      <point x="394" y="383" smooth="yes"/>
      <point x="394" y="334" type="curve" smooth="yes"/>
      <point x="394" y="15" type="line" smooth="yes"/>
      <point x="394" y="-160" smooth="yes"/>
      <point x="359" y="-193" smooth="yes"/>
      <point x="327" y="-193" type="curve" smooth="yes"/>
      <point x="303" y="-193"/>
      <point x="280" y="-182"/>
      <point x="267" y="-174" type="curve"/>
      <point x="252" y="-193" type="line"/>
      <point x="261" y="-226" smooth="yes"/>
      <point x="293" y="-263" smooth="yes"/>
      <point x="303" y="-263" type="curve" smooth="yes"/>
      <point x="324" y="-263" smooth="yes"/>
      <point x="471" y="-208" smooth="yes"/>
      <point x="471" y="54" type="curve" smooth="yes"/>
    </contour>
  </outline>
</glyph>
<glyph name="OE" format="1">
  <advance width="983"/>
  <unicode hex="0152"/>
  <outline>
    <contour>
      <point x="372" y="-12" type="curve" smooth="yes"/>
      <point x="509" y="-12"/>
      <point x="557" y="0"/>
      <point x="925" y="0" type="curve" name="hr01"/>
      <point x="927" y="36"/>
      <point x="937" y="123"/>
      <point x="949" y="159" type="curve"/>
      <point x="922" y="171" type="line"/>
      <point x="881" y="43" smooth="yes"/>
      <point x="805" y="36" smooth="yes"/>
      <point x="702" y="36" type="curve" smooth="yes"/>
      <point x="659" y="36"/>
      <point x="608" y="44"/>
      <point x="601" y="68" type="curve"/>
      <point x="601" y="68"/>
      <point x="590" y="121"/>
      <point x="590" y="327" type="curve"/>
      <point x="653" y="327" smooth="yes"/>
      <point x="725" y="325" smooth="yes"/>
      <point x="750" y="319" type="curve" smooth="yes"/>
      <point x="775" y="313"/>
      <point x="780" y="298"/>
      <point x="793" y="231" type="curve"/>
      <point x="828" y="236" type="line"/>
      <point x="822" y="272" smooth="yes"/>
      <point x="820" y="310" smooth="yes"/>
      <point x="820" y="347" type="curve" smooth="yes"/>
      <point x="820" y="385"/>
      <point x="822" y="422"/>
      <point x="828" y="459" type="curve"/>
      <point x="793" y="463" type="line"/>
      <point x="780" y="396" smooth="yes"/>
      <point x="775" y="381" smooth="yes"/>
      <point x="750" y="375" type="curve" smooth="yes"/>
      <point x="725" y="369"/>
      <point x="653" y="367"/>
      <point x="590" y="367" type="curve"/>
      <point x="591" y="556"/>
      <point x="601" y="621"/>
      <point x="601" y="621" type="curve"/>
      <point x="604" y="640" smooth="yes"/>
      <point x="624" y="643" smooth="yes"/>
      <point x="653" y="643" type="curve" smooth="yes"/>
      <point x="815" y="643"/>
      <point x="852" y="641"/>
      <point x="891" y="517" type="curve"/>
      <point x="918" y="529" type="line"/>
      <point x="912" y="562" smooth="yes"/>
      <point x="906" y="633" smooth="yes"/>
      <point x="906" y="676" type="curve" smooth="yes"/>
      <point x="906" y="681"/>
      <point x="906" y="686"/>
      <point x="906" y="691" type="curve"/>
      <point x="849" y="685" smooth="yes"/>
      <point x="759" y="682" smooth="yes"/>
      <point x="665" y="682" type="curve" smooth="yes" name="hr02"/>
      <point x="576" y="682"/>
      <point x="483" y="684"/>
      <point x="414" y="688" type="curve"/>
      <point x="152" y="688" smooth="yes"/>
      <point x="49" y="505" smooth="yes"/>
      <point x="49" y="314" type="curve" smooth="yes"/>
      <point x="49" y="121" smooth="yes"/>
      <point x="145" y="-12" smooth="yes"/>
    </contour>
    <contour>
      <point x="395" y="32" type="curve" smooth="yes"/>
      <point x="219" y="32" smooth="yes"/>
      <point x="154" y="195" smooth="yes"/>
      <point x="154" y="350" type="curve" smooth="yes"/>
      <point x="154" y="455" smooth="yes"/>
      <point x="209" y="646" smooth="yes"/>
      <point x="410" y="646" type="curve" smooth="yes"/>
      <point x="458" y="646"/>
      <point x="489" y="640"/>
      <point x="492" y="616" type="curve"/>
      <point x="492" y="616" smooth="yes"/>
      <point x="500" y="557" smooth="yes"/>
      <point x="500" y="342" type="curve" smooth="yes"/>
      <point x="500" y="127"/>
      <point x="491" y="69"/>
      <point x="491" y="69" type="curve"/>
      <point x="488" y="44" smooth="yes"/>
      <point x="445" y="32" smooth="yes"/>
    </contour>
  </outline>
</glyph>
<glyph name="oe" format="1">
  <advance width="824"/>
  <unicode hex="0153"/>
  <outline>
    <contour>
      <point x="641" y="460" type="curve"/>
      <point x="554" y="460"/>
      <point x="493" y="427"/>
      <point x="455" y="379" type="curve"/>
      <point x="422" y="429" smooth="yes"/>
      <point x="365" y="459" smooth="yes"/>
      <point x="278" y="459" type="curve" smooth="yes" name="hr01"/>
      <point x="106" y="459" smooth="yes"/>
      <point x="39" y="333" smooth="yes"/>
      <point x="39" y="206" type="curve" smooth="yes"/>
      <point x="39" y="78" smooth="yes"/>
      <point x="102" y="-9" smooth="yes"/>
      <point x="251" y="-9" type="curve" smooth="yes"/>
      <point x="340" y="-9"/>
      <point x="400" y="24"/>
      <point x="438" y="74" type="curve"/>
      <point x="472" y="24" smooth="yes"/>
      <point x="530" y="-9" smooth="yes"/>
      <point x="616" y="-9" type="curve" smooth="yes"/>
      <point x="684" y="-9"/>
      <point x="739" y="18"/>
      <point x="780" y="53" type="curve"/>
      <point x="768" y="83" type="line"/>
      <point x="740" y="69" smooth="yes"/>
      <point x="690" y="53" smooth="yes"/>
      <point x="640" y="53" type="curve" smooth="yes"/>
      <point x="538" y="53" smooth="yes"/>
      <point x="490" y="137" smooth="yes"/>
      <point x="490" y="233" type="curve" smooth="yes"/>
      <point x="490" y="242" type="line"/>
      <point x="528" y="245" smooth="yes"/>
      <point x="655" y="249" smooth="yes"/>
      <point x="722" y="249" type="curve" smooth="yes"/>
      <point x="740" y="249"/>
      <point x="753" y="249"/>
      <point x="759" y="248" type="curve"/>
      <point x="793" y="289" type="line"/>
      <point x="793" y="412" smooth="yes"/>
      <point x="712" y="460" smooth="yes"/>
    </contour>
    <contour>
      <point x="408" y="206" type="curve"/>
      <point x="405" y="149" smooth="yes"/>
      <point x="376" y="39" smooth="yes"/>
      <point x="265" y="39" type="curve" smooth="yes"/>
      <point x="159" y="39" smooth="yes"/>
      <point x="127" y="140" smooth="yes"/>
      <point x="127" y="230" type="curve" smooth="yes"/>
      <point x="127" y="283" smooth="yes"/>
      <point x="148" y="411" smooth="yes"/>
      <point x="270" y="411" type="curve" smooth="yes" name="hr03"/>
      <point x="383" y="411"/>
      <point x="408" y="300"/>
    </contour>
    <contour>
      <point x="703" y="320" type="curve" smooth="yes"/>
      <point x="703" y="311"/>
      <point x="702" y="301"/>
      <point x="700" y="291" type="curve"/>
      <point x="495" y="283" type="line"/>
      <point x="509" y="351" smooth="yes"/>
      <point x="553" y="411" smooth="yes"/>
      <point x="619" y="411" type="curve" smooth="yes"/>
      <point x="655" y="411" smooth="yes"/>
      <point x="703" y="387" smooth="yes"/>
    </contour>
  </outline>
</glyph>
<glyph name="tbar" format="1">
  <advance width="327"/>
  <unicode hex="0167"/>
  <outline>
    <contour>
      <point x="280" y="261" type="line" name="hr00"/>
      <point x="44" y="261" type="line"/>
      <point x="31" y="219" type="line"/>
      <point x="267" y="219" type="line"/>
    </contour>
    <component  base="t"/>
  </outline>
</glyph>
<glyph name="aringacute" format="1">
  <advance width="457"/>
  <unicode hex="01FB"/>
  <outline>
    <contour>
      <point x="345" y="841" type="line" name="hr00"/>
      <point x="342" y="864"/>
      <point x="309" y="883"/>
      <point x="276" y="883" type="curve"/>
      <point x="155" y="703" type="line"/>
      <point x="185" y="698" type="line"/>
    </contour>
    <component  base="a"/>
    <component  base="ring" xOffset="62" yOffset="-40"/>
  </outline>
</glyph>
<glyph name="dotaccent" format="1">
  <advance width="267"/>
  <unicode hex="02D9"/>
  <outline>
    <contour>
      <point x="135" y="563" type="curve" name="hr00"/>
      <point x="164" y="563" smooth="yes"/>
      <point x="187" y="586" smooth="yes"/>
      <point x="187" y="617" type="curve" smooth="yes"/>
      <point x="187" y="646"/>
      <point x="164" y="669"/>
      <point x="135" y="669" type="curve"/>
      <point x="106" y="669" smooth="yes"/>
      <point x="83" y="646" smooth="yes"/>
      <point x="83" y="617" type="curve" smooth="yes"/>
      <point x="83" y="586"/>
      <point x="106" y="563"/>
    </contour>
  </outline>
</glyph>
<glyph name="tilde" format="1">
  <advance width="360"/>
  <unicode hex="02DC"/>
  <outline>
    <contour>
      <point x="311" y="664" type="line"/>
      <point x="218" y="535"/>
      <point x="79" y="797"/>
      <point x="9" y="564" type="curve"/>
      <point x="35" y="556" type="line"/>
      <point x="128" y="685"/>
      <point x="267" y="423"/>
      <point x="337" y="656" type="curve"/>
    </contour>
  </outline>
</glyph>
<glyph name="hungarumlaut" format="1">
  <advance width="285"/>
  <unicode hex="02DD"/>
  <outline>
    <contour>
      <point x="243" y="680" type="line" name="hr00"/>
      <point x="240" y="703"/>
      <point x="207" y="722"/>
      <point x="174" y="722" type="curve"/>
      <point x="40" y="523" type="line"/>
      <point x="70" y="518" type="line"/>
    </contour>
    <contour>
      <point x="72" y="680" type="line"/>
      <point x="69" y="703"/>
      <point x="36" y="722"/>
      <point x="3" y="722" type="curve"/>
      <point x="-131" y="523" type="line"/>
      <point x="-101" y="518" type="line"/>
    </contour>
  </outline>
</glyph>
<glyph name="endash" format="1">
  <advance width="560"/>
  <unicode hex="2013"/>
  <outline>
    <contour>
      <point x="37" y="294" type="curve"/>
      <point x="-7" y="246" type="line"/>
      <point x="0" y="230" type="line"/>
      <point x="93" y="234" smooth="yes"/>
      <point x="187" y="235" smooth="yes"/>
      <point x="280" y="235" type="curve" smooth="yes" name="hr01"/>
      <point x="361" y="235"/>
      <point x="442" y="234"/>
      <point x="523" y="231" type="curve"/>
      <point x="567" y="279" type="line"/>
      <point x="560" y="294" type="line" name="hr02"/>
      <point x="467" y="290" smooth="yes"/>
      <point x="374" y="289" smooth="yes"/>
      <point x="280" y="289" type="curve" smooth="yes" name="hr03"/>
      <point x="199" y="289"/>
      <point x="118" y="290"/>
    </contour>
  </outline>
</glyph>
<glyph name="emdash" format="1">
  <advance width="838"/>
  <unicode hex="2014"/>
  <outline>
    <contour>
      <point x="37" y="294" type="curve"/>
      <point x="-7" y="246" type="line"/>
      <point x="0" y="230" type="line"/>
      <point x="147" y="233" smooth="yes"/>
      <point x="294" y="233" smooth="yes"/>
      <point x="440" y="233" type="curve" smooth="yes" name="hr01"/>
      <point x="561" y="233"/>
      <point x="681" y="233"/>
      <point x="801" y="231" type="curve"/>
      <point x="845" y="279" type="line"/>
      <point x="838" y="294" type="line" name="hr02"/>
      <point x="692" y="291" smooth="yes"/>
      <point x="546" y="288" smooth="yes"/>
      <point x="399" y="288" type="curve" smooth="yes" name="hr03"/>
      <point x="279" y="288"/>
      <point x="158" y="291"/>
    </contour>
  </outline>
</glyph>
<glyph name="quoteleft" format="1">
  <advance width="215"/>
  <unicode hex="2018"/>
  <outline>
    <contour>
      <point x="103" y="442" type="curve" smooth="yes" name="hr00"/>
      <point x="131" y="442" smooth="yes"/>
      <point x="158" y="460" smooth="yes"/>
      <point x="158" y="492" type="curve" smooth="yes"/>
      <point x="158" y="520" smooth="yes"/>
      <point x="137" y="541" smooth="yes"/>
      <point x="111" y="541" type="curve" smooth="yes"/>
      <point x="101" y="541"/>
      <point x="88" y="538"/>
      <point x="77" y="526" type="curve"/>
      <point x="77" y="586"/>
      <point x="125" y="631"/>
      <point x="185" y="658" type="curve"/>
      <point x="176" y="680" type="line"/>
      <point x="70" y="646" smooth="yes"/>
      <point x="30" y="581" smooth="yes"/>
      <point x="30" y="528" type="curve" smooth="yes"/>
      <point x="30" y="480" smooth="yes"/>
      <point x="61" y="442" smooth="yes"/>
    </contour>
  </outline>
</glyph>
<glyph name="quoteright" format="1">
  <advance width="215"/>
  <unicode hex="2019"/>
  <outline>
    <contour>
      <point x="112" y="682" type="curve" smooth="yes" name="hr00"/>
      <point x="84" y="682" smooth="yes"/>
      <point x="57" y="664" smooth="yes"/>
      <point x="57" y="632" type="curve" smooth="yes"/>
      <point x="57" y="604" smooth="yes"/>
      <point x="78" y="583" smooth="yes"/>
      <point x="104" y="583" type="curve" smooth="yes"/>
      <point x="114" y="583"/>
      <point x="127" y="586"/>
      <point x="138" y="598" type="curve"/>
      <point x="138" y="538"/>
      <point x="90" y="493"/>
      <point x="30" y="466" type="curve"/>
      <point x="39" y="444" type="line"/>
      <point x="145" y="478" smooth="yes"/>
      <point x="185" y="543" smooth="yes"/>
      <point x="185" y="596" type="curve" smooth="yes"/>
      <point x="185" y="644" smooth="yes"/>
      <point x="154" y="682" smooth="yes"/>
    </contour>
  </outline>
</glyph>
<glyph name="quotedblleft" format="1">
  <advance width="378"/>
  <unicode hex="201C"/>
  <outline>
    <contour>
      <point x="103" y="442" type="curve" smooth="yes" name="hr00"/>
      <point x="131" y="442" smooth="yes"/>
      <point x="158" y="460" smooth="yes"/>
      <point x="158" y="492" type="curve" smooth="yes"/>
      <point x="158" y="520" smooth="yes"/>
      <point x="137" y="541" smooth="yes"/>
      <point x="111" y="541" type="curve" smooth="yes"/>
      <point x="101" y="541"/>
      <point x="88" y="538"/>
      <point x="77" y="526" type="curve"/>
      <point x="77" y="586"/>
      <point x="125" y="631"/>
      <point x="185" y="658" type="curve"/>
      <point x="176" y="680" type="line"/>
      <point x="70" y="646" smooth="yes"/>
      <point x="30" y="581" smooth="yes"/>
      <point x="30" y="528" type="curve" smooth="yes"/>
      <point x="30" y="480" smooth="yes"/>
      <point x="61" y="442" smooth="yes"/>
    </contour>
    <contour>
      <point x="266" y="442" type="curve" smooth="yes"/>
      <point x="294" y="442" smooth="yes"/>
      <point x="321" y="460" smooth="yes"/>
      <point x="321" y="492" type="curve" smooth="yes"/>
      <point x="321" y="520" smooth="yes"/>
      <point x="300" y="541" smooth="yes"/>
      <point x="274" y="541" type="curve" smooth="yes"/>
      <point x="264" y="541"/>
      <point x="251" y="538"/>
      <point x="240" y="526" type="curve"/>
      <point x="240" y="586"/>
      <point x="288" y="631"/>
      <point x="348" y="658" type="curve"/>
      <point x="339" y="680" type="line"/>
      <point x="233" y="646" smooth="yes"/>
      <point x="193" y="581" smooth="yes"/>
      <point x="193" y="528" type="curve" smooth="yes"/>
      <point x="193" y="480" smooth="yes"/>
      <point x="224" y="442" smooth="yes"/>
    </contour>
  </outline>
</glyph>
<glyph name="quotedblright" format="1">
  <advance width="378"/>
  <unicode hex="201D"/>
  <outline>
    <contour>
      <point x="275" y="682" type="curve" smooth="yes" name="hr00"/>
      <point x="247" y="682" smooth="yes"/>
      <point x="220" y="664" smooth="yes"/>
      <point x="220" y="632" type="curve" smooth="yes"/>
      <point x="220" y="604" smooth="yes"/>
      <point x="241" y="583" smooth="yes"/>
      <point x="267" y="583" type="curve" smooth="yes"/>
      <point x="277" y="583"/>
      <point x="290" y="586"/>
      <point x="301" y="598" type="curve"/>
      <point x="301" y="538"/>
      <point x="253" y="493"/>
      <point x="193" y="466" type="curve"/>
      <point x="202" y="444" type="line"/>
      <point x="308" y="478" smooth="yes"/>
      <point x="348" y="543" smooth="yes"/>
      <point x="348" y="596" type="curve" smooth="yes"/>
      <point x="348" y="644" smooth="yes"/>
      <point x="317" y="682" smooth="yes"/>
    </contour>
    <contour>
      <point x="112" y="682" type="curve" smooth="yes"/>
      <point x="84" y="682" smooth="yes"/>
      <point x="57" y="664" smooth="yes"/>
      <point x="57" y="632" type="curve" smooth="yes"/>
      <point x="57" y="604" smooth="yes"/>
      <point x="78" y="583" smooth="yes"/>
      <point x="104" y="583" type="curve" smooth="yes"/>
      <point x="114" y="583"/>
      <point x="127" y="586"/>
      <point x="138" y="598" type="curve"/>
      <point x="138" y="538"/>
      <point x="90" y="493"/>
      <point x="30" y="466" type="curve"/>
      <point x="39" y="444" type="line"/>
      <point x="145" y="478" smooth="yes"/>
      <point x="185" y="543" smooth="yes"/>
      <point x="185" y="596" type="curve" smooth="yes"/>
      <point x="185" y="644" smooth="yes"/>
      <point x="154" y="682" smooth="yes"/>
    </contour>
  </outline>
</glyph>
<glyph name="dagger" format="1">
  <advance width="418"/>
  <unicode hex="2020"/>
  <outline>
    <contour>
      <point x="148" y="672" type="line" name="hr00"/>
      <point x="158" y="612"/>
      <point x="165" y="557"/>
      <point x="170" y="504" type="curve"/>
      <point x="94" y="506"/>
      <point x="43" y="514"/>
      <point x="43" y="514" type="curve"/>
      <point x="0" y="453" type="line"/>
      <point x="7" y="435" type="line"/>
      <point x="7" y="435"/>
      <point x="77" y="448"/>
      <point x="175" y="450" type="curve"/>
      <point x="185" y="292"/>
      <point x="175" y="157"/>
      <point x="161" y="0" type="curve"/>
      <point x="209" y="-9" type="line"/>
      <point x="257" y="0" type="line"/>
      <point x="243" y="157"/>
      <point x="232" y="292"/>
      <point x="243" y="450" type="curve"/>
      <point x="322" y="448"/>
      <point x="372" y="441"/>
      <point x="372" y="441" type="curve"/>
      <point x="416" y="502" type="line"/>
      <point x="408" y="520" type="line"/>
      <point x="408" y="520"/>
      <point x="343" y="507"/>
      <point x="247" y="504" type="curve"/>
      <point x="252" y="557"/>
      <point x="259" y="612"/>
      <point x="270" y="672" type="curve"/>
    </contour>
  </outline>
</glyph>
<glyph name="daggerdbl" format="1">
  <advance width="418"/>
  <unicode hex="2021"/>
  <outline>
    <contour>
      <point x="268" y="-204" type="line" name="hr00"/>
      <point x="258" y="-144"/>
      <point x="251" y="-89"/>
      <point x="246" y="-36" type="curve"/>
      <point x="322" y="-38"/>
      <point x="373" y="-46"/>
      <point x="373" y="-46" type="curve"/>
      <point x="416" y="15" type="line"/>
      <point x="409" y="33" type="line"/>
      <point x="409" y="33"/>
      <point x="346" y="21"/>
      <point x="255" y="18" type="curve"/>
      <point x="248" y="100"/>
      <point x="242" y="157"/>
      <point x="239" y="234" type="curve"/>
      <point x="242" y="298"/>
      <point x="247" y="382"/>
      <point x="253" y="450" type="curve"/>
      <point x="326" y="447"/>
      <point x="372" y="441"/>
      <point x="372" y="441" type="curve"/>
      <point x="416" y="502" type="line"/>
      <point x="408" y="520" type="line"/>
      <point x="408" y="520"/>
      <point x="343" y="507"/>
      <point x="247" y="504" type="curve"/>
      <point x="252" y="557"/>
      <point x="259" y="612"/>
      <point x="270" y="672" type="curve"/>
      <point x="148" y="672" type="line"/>
      <point x="158" y="612"/>
      <point x="165" y="557"/>
      <point x="170" y="504" type="curve"/>
      <point x="94" y="506"/>
      <point x="43" y="514"/>
      <point x="43" y="514" type="curve"/>
      <point x="0" y="453" type="line"/>
      <point x="7" y="435" type="line"/>
      <point x="7" y="435"/>
      <point x="70" y="447"/>
      <point x="160" y="450" type="curve"/>
      <point x="167" y="368"/>
      <point x="174" y="311"/>
      <point x="176" y="234" type="curve"/>
      <point x="173" y="170"/>
      <point x="168" y="86"/>
      <point x="162" y="18" type="curve"/>
      <point x="89" y="20"/>
      <point x="44" y="27"/>
      <point x="44" y="27" type="curve"/>
      <point x="0" y="-34" type="line"/>
      <point x="8" y="-52" type="line"/>
      <point x="8" y="-52"/>
      <point x="73" y="-39"/>
      <point x="169" y="-36" type="curve"/>
      <point x="164" y="-89"/>
      <point x="157" y="-144"/>
      <point x="146" y="-204" type="curve"/>
    </contour>
  </outline>
</glyph>
<glyph name="perthousand" format="1">
  <advance width="985"/>
  <unicode hex="2030"/>
  <outline>
    <contour>
      <point x="146" y="-1" type="line"/>
      <point x="194" y="-1" type="line"/>
      <point x="606" y="679" type="line"/>
      <point x="558" y="679" type="line"/>
    </contour>
    <contour>
      <point x="197" y="638" type="curve" smooth="yes" name="hr01"/>
      <point x="228" y="638" smooth="yes"/>
      <point x="243" y="581" smooth="yes"/>
      <point x="243" y="510" type="curve" smooth="yes"/>
      <point x="243" y="437" smooth="yes"/>
      <point x="228" y="382" smooth="yes"/>
      <point x="197" y="382" type="curve" smooth="yes"/>
      <point x="167" y="382" smooth="yes"/>
      <point x="151" y="437" smooth="yes"/>
      <point x="151" y="510" type="curve" smooth="yes"/>
      <point x="151" y="581" smooth="yes"/>
      <point x="167" y="638" smooth="yes"/>
    </contour>
    <contour>
      <point x="314" y="509" type="curve" smooth="yes"/>
      <point x="314" y="599" smooth="yes"/>
      <point x="276" y="673" smooth="yes"/>
      <point x="197" y="673" type="curve" smooth="yes"/>
      <point x="118" y="673" smooth="yes"/>
      <point x="80" y="599" smooth="yes"/>
      <point x="80" y="509" type="curve" smooth="yes"/>
      <point x="80" y="419" smooth="yes"/>
      <point x="118" y="346" smooth="yes"/>
      <point x="197" y="346" type="curve" smooth="yes"/>
      <point x="276" y="346" smooth="yes"/>
      <point x="314" y="419" smooth="yes"/>
    </contour>
    <contour>
      <point x="547" y="283" type="curve" smooth="yes"/>
      <point x="578" y="283" smooth="yes"/>
      <point x="593" y="226" smooth="yes"/>
      <point x="593" y="155" type="curve" smooth="yes"/>
      <point x="593" y="82" smooth="yes"/>
      <point x="578" y="27" smooth="yes"/>
      <point x="547" y="27" type="curve" smooth="yes"/>
      <point x="517" y="27" smooth="yes"/>
      <point x="501" y="82" smooth="yes"/>
      <point x="501" y="155" type="curve" smooth="yes"/>
      <point x="501" y="226" smooth="yes"/>
      <point x="517" y="283" smooth="yes"/>
    </contour>
    <contour>
      <point x="664" y="154" type="curve" smooth="yes"/>
      <point x="664" y="244" smooth="yes"/>
      <point x="626" y="318" smooth="yes"/>
      <point x="547" y="318" type="curve" smooth="yes"/>
      <point x="468" y="318" smooth="yes"/>
      <point x="430" y="244" smooth="yes"/>
      <point x="430" y="154" type="curve" smooth="yes"/>
      <point x="430" y="64" smooth="yes"/>
      <point x="468" y="-9" smooth="yes"/>
      <point x="547" y="-9" type="curve" smooth="yes"/>
      <point x="626" y="-9" smooth="yes"/>
      <point x="664" y="64" smooth="yes"/>
    </contour>
    <contour>
      <point x="818" y="283" type="curve" smooth="yes"/>
      <point x="849" y="283" smooth="yes"/>
      <point x="864" y="226" smooth="yes"/>
      <point x="864" y="155" type="curve" smooth="yes"/>
      <point x="864" y="82" smooth="yes"/>
      <point x="849" y="27" smooth="yes"/>
      <point x="818" y="27" type="curve" smooth="yes"/>
      <point x="788" y="27" smooth="yes"/>
      <point x="772" y="82" smooth="yes"/>
      <point x="772" y="155" type="curve" smooth="yes"/>
      <point x="772" y="226" smooth="yes"/>
      <point x="788" y="283" smooth="yes"/>
    </contour>
    <contour>
      <point x="935" y="154" type="curve" smooth="yes"/>
      <point x="935" y="244" smooth="yes"/>
      <point x="897" y="318" smooth="yes"/>
      <point x="818" y="318" type="curve" smooth="yes"/>
      <point x="739" y="318" smooth="yes"/>
      <point x="701" y="244" smooth="yes"/>
      <point x="701" y="154" type="curve" smooth="yes"/>
      <point x="701" y="64" smooth="yes"/>
      <point x="739" y="-9" smooth="yes"/>
      <point x="818" y="-9" type="curve" smooth="yes"/>
      <point x="897" y="-9" smooth="yes"/>
      <point x="935" y="64" smooth="yes"/>
    </contour>
  </outline>
</glyph>
<glyph name="fraction" format="1">
  <advance width="460"/>
  <unicode hex="2044"/>
  <outline>
    <contour>
      <point x="0" y="-1" type="line" name="hr00"/>
      <point x="48" y="-1" type="line"/>
      <point x="460" y="679" type="line"/>
      <point x="412" y="679" type="line"/>
    </contour>
  </outline>
</glyph>
<glyph name="zeroinferior" format="1">
  <advance width="320"/>
  <unicode hex="2080"/>
  <outline>
    <contour>
      <point x="303" y="39" type="curve" smooth="yes" name="hr00"/>
      <point x="303" y="152" smooth="yes"/>
      <point x="257" y="244" smooth="yes"/>
      <point x="159" y="244" type="curve" smooth="yes"/>
      <point x="61" y="244" smooth="yes"/>
      <point x="16" y="152" smooth="yes"/>
      <point x="16" y="39" type="curve" smooth="yes"/>
      <point x="16" y="-74" smooth="yes"/>
      <point x="61" y="-165" smooth="yes"/>
      <point x="159" y="-165" type="curve" smooth="yes"/>
      <point x="257" y="-165" smooth="yes"/>
      <point x="303" y="-74" smooth="yes"/>
    </contour>
    <contour>
      <point x="159" y="207" type="curve" smooth="yes"/>
      <point x="207" y="207" smooth="yes"/>
      <point x="228" y="132" smooth="yes"/>
      <point x="228" y="39" type="curve" smooth="yes"/>
      <point x="228" y="-54" smooth="yes"/>
      <point x="207" y="-128" smooth="yes"/>
      <point x="159" y="-128" type="curve" smooth="yes"/>
      <point x="112" y="-128" smooth="yes"/>
      <point x="91" y="-54" smooth="yes"/>
      <point x="91" y="39" type="curve" smooth="yes"/>
      <point x="91" y="132" smooth="yes"/>
      <point x="112" y="207" smooth="yes"/>
    </contour>
  </outline>
</glyph>
<glyph name="threeinferior" format="1">
  <advance width="320"/>
  <unicode hex="2083"/>
  <outline>
    <contour>
      <point x="266" y="169" type="curve" smooth="yes"/>
      <point x="266" y="210" smooth="yes"/>
      <point x="236" y="244" smooth="yes"/>
      <point x="172" y="244" type="curve" smooth="yes"/>
      <point x="122" y="244"/>
      <point x="83" y="225"/>
      <point x="49" y="197" type="curve"/>
      <point x="63" y="172" type="line"/>
      <point x="85" y="185" smooth="yes"/>
      <point x="115" y="197" smooth="yes"/>
      <point x="143" y="197" type="curve" smooth="yes"/>
      <point x="174" y="197" smooth="yes"/>
      <point x="196" y="184" smooth="yes"/>
      <point x="196" y="150" type="curve" smooth="yes"/>
      <point x="196" y="116"/>
      <point x="165" y="74"/>
      <point x="80" y="59" type="curve"/>
      <point x="78" y="23" type="line"/>
      <point x="94" y="28" smooth="yes"/>
      <point x="108" y="29" smooth="yes"/>
      <point x="121" y="29" type="curve" smooth="yes"/>
      <point x="181" y="29" smooth="yes"/>
      <point x="212" y="-10" smooth="yes"/>
      <point x="212" y="-52" type="curve" smooth="yes" name="hr01"/>
      <point x="212" y="-98" smooth="yes"/>
      <point x="173" y="-148" smooth="yes"/>
      <point x="91" y="-148" type="curve" smooth="yes"/>
      <point x="64" y="-148"/>
      <point x="49" y="-147"/>
      <point x="32" y="-143" type="curve"/>
      <point x="30" y="-180" type="line"/>
      <point x="53" y="-184" smooth="yes"/>
      <point x="74" y="-186" smooth="yes"/>
      <point x="94" y="-186" type="curve" smooth="yes"/>
      <point x="226" y="-186" smooth="yes"/>
      <point x="285" y="-119" smooth="yes"/>
      <point x="285" y="-56" type="curve" smooth="yes"/>
      <point x="285" y="-4"/>
      <point x="246" y="44"/>
      <point x="177" y="53" type="curve"/>
      <point x="177" y="57" type="line"/>
      <point x="235" y="81" smooth="yes"/>
      <point x="266" y="128" smooth="yes"/>
    </contour>
  </outline>
</glyph>
<glyph name="fourinferior" format="1">
  <advance width="320"/>
  <unicode hex="2084"/>
  <outline>
    <contour>
      <point x="260" y="110" type="line" name="hr00"/>
      <point x="196" y="109"/>
      <point x="191" y="96"/>
      <point x="191" y="96" type="curve"/>
      <point x="191" y="-16" type="line"/>
      <point x="72" y="-16" type="line"/>
      <point x="249" y="263" type="line"/>
      <point x="179" y="269" type="line"/>
      <point x="9" y="-26" type="line"/>
      <point x="19" y="-57" type="line"/>
      <point x="191" y="-57" type="line"/>
      <point x="189" y="-107"/>
      <point x="188" y="-111"/>
      <point x="188" y="-111" type="curve"/>
      <point x="186" y="-125"/>
      <point x="157" y="-130"/>
      <point x="121" y="-136" type="curve"/>
      <point x="123" y="-162" type="line"/>
      <point x="150" y="-160" smooth="yes"/>
      <point x="191" y="-159" smooth="yes"/>
      <point x="224" y="-159" type="curve" smooth="yes"/>
      <point x="256" y="-159"/>
      <point x="286" y="-160"/>
      <point x="313" y="-162" type="curve"/>
      <point x="315" y="-136" type="line"/>
      <point x="282" y="-130"/>
      <point x="266" y="-125"/>
      <point x="264" y="-111" type="curve"/>
      <point x="264" y="-111"/>
      <point x="262" y="-106"/>
      <point x="261" y="-58" type="curve"/>
      <point x="287" y="-60" type="line"/>
      <point x="310" y="-26" type="line"/>
      <point x="306" y="-15" type="line"/>
      <point x="260" y="-15" type="line"/>
    </contour>
  </outline>
</glyph>
<glyph name="fiveinferior" format="1">
  <advance width="320"/>
  <unicode hex="2085"/>
  <outline>
    <contour>
      <point x="50" y="82" type="line" name="hr00"/>
      <point x="58" y="57" type="line"/>
      <point x="161" y="57" smooth="yes"/>
      <point x="210" y="8" smooth="yes"/>
      <point x="210" y="-45" type="curve" smooth="yes"/>
      <point x="210" y="-97" smooth="yes"/>
      <point x="165" y="-148" smooth="yes"/>
      <point x="82" y="-148" type="curve" smooth="yes"/>
      <point x="67" y="-148"/>
      <point x="52" y="-147"/>
      <point x="35" y="-145" type="curve"/>
      <point x="33" y="-180" type="line"/>
      <point x="54" y="-184" smooth="yes"/>
      <point x="73" y="-186" smooth="yes"/>
      <point x="92" y="-186" type="curve" smooth="yes"/>
      <point x="211" y="-186" smooth="yes"/>
      <point x="287" y="-107" smooth="yes"/>
      <point x="287" y="-32" type="curve" smooth="yes"/>
      <point x="287" y="33"/>
      <point x="231" y="95"/>
      <point x="99" y="99" type="curve"/>
      <point x="116" y="187" type="line"/>
      <point x="193" y="194" smooth="yes"/>
      <point x="204" y="194" smooth="yes"/>
      <point x="213" y="194" type="curve" smooth="yes"/>
      <point x="243" y="194"/>
      <point x="257" y="191"/>
      <point x="257" y="191" type="curve"/>
      <point x="282" y="245" type="line"/>
      <point x="277" y="254" type="line"/>
      <point x="79" y="234" type="line"/>
    </contour>
  </outline>
</glyph>
<glyph name="nineinferior" format="1">
  <advance width="320"/>
  <unicode hex="2089"/>
  <outline>
    <contour>
      <point x="186" y="54" type="line" name="hr00"/>
      <point x="176" y="52" smooth="yes"/>
      <point x="167" y="51" smooth="yes"/>
      <point x="158" y="51" type="curve" smooth="yes"/>
      <point x="115" y="51" smooth="yes"/>
      <point x="94" y="89" smooth="yes"/>
      <point x="94" y="127" type="curve" smooth="yes"/>
      <point x="94" y="174" smooth="yes"/>
      <point x="120" y="205" smooth="yes"/>
      <point x="155" y="205" type="curve" smooth="yes"/>
      <point x="192" y="205" smooth="yes"/>
      <point x="225" y="166" smooth="yes"/>
      <point x="225" y="97" type="curve" smooth="yes"/>
      <point x="225" y="-2"/>
      <point x="168" y="-109"/>
      <point x="31" y="-170" type="curve"/>
      <point x="48" y="-200" type="line"/>
      <point x="229" y="-122" smooth="yes"/>
      <point x="300" y="-5" smooth="yes"/>
      <point x="300" y="90" type="curve" smooth="yes"/>
      <point x="300" y="177" smooth="yes"/>
      <point x="239" y="244" smooth="yes"/>
      <point x="153" y="244" type="curve" smooth="yes"/>
      <point x="63" y="244" smooth="yes"/>
      <point x="20" y="187" smooth="yes"/>
      <point x="20" y="130" type="curve" smooth="yes"/>
      <point x="20" y="73" smooth="yes"/>
      <point x="62" y="17" smooth="yes"/>
      <point x="141" y="17" type="curve" smooth="yes"/>
      <point x="155" y="17"/>
      <point x="171" y="20"/>
      <point x="189" y="27" type="curve"/>
    </contour>
  </outline>
</glyph>
<glyph name="franc" format="1">
  <advance width="554"/>
  <unicode hex="20A3"/>
  <outline>
    <contour>
      <point x="216" y="327" type="curve"/>
      <point x="279" y="327" smooth="yes"/>
      <point x="359" y="325" smooth="yes"/>
      <point x="384" y="319" type="curve" smooth="yes"/>
      <point x="406" y="315"/>
      <point x="411" y="305"/>
      <point x="422" y="260" type="curve"/>
      <point x="457" y="265" type="line"/>
      <point x="455" y="292" smooth="yes"/>
      <point x="454" y="320" smooth="yes"/>
      <point x="454" y="348" type="curve" smooth="yes"/>
      <point x="454" y="377"/>
      <point x="455" y="406"/>
      <point x="458" y="434" type="curve"/>
      <point x="423" y="438" type="line"/>
      <point x="411" y="390" smooth="yes"/>
      <point x="407" y="379" smooth="yes"/>
      <point x="384" y="375" type="curve" smooth="yes"/>
      <point x="359" y="369"/>
      <point x="279" y="367"/>
      <point x="216" y="367" type="curve"/>
      <point x="217" y="558"/>
      <point x="225" y="621"/>
      <point x="225" y="621" type="curve"/>
      <point x="227" y="643" smooth="yes"/>
      <point x="258" y="643" smooth="yes"/>
      <point x="306" y="643" type="curve" smooth="yes"/>
      <point x="435" y="643"/>
      <point x="469" y="630"/>
      <point x="504" y="517" type="curve"/>
      <point x="531" y="529" type="line"/>
      <point x="525" y="563" smooth="yes"/>
      <point x="519" y="634" smooth="yes"/>
      <point x="519" y="676" type="curve" smooth="yes"/>
      <point x="519" y="691" type="line" name="hr01"/>
      <point x="437" y="685" smooth="yes"/>
      <point x="268" y="685" smooth="yes"/>
      <point x="139" y="685" type="curve" smooth="yes" name="hr02"/>
      <point x="89" y="685"/>
      <point x="81" y="686"/>
      <point x="39" y="688" type="curve"/>
      <point x="36" y="659" type="line"/>
      <point x="96" y="647"/>
      <point x="115" y="641"/>
      <point x="118" y="616" type="curve"/>
      <point x="118" y="616" smooth="yes"/>
      <point x="126" y="557" smooth="yes"/>
      <point x="126" y="342" type="curve" smooth="yes"/>
      <point x="126" y="128"/>
      <point x="118" y="69"/>
      <point x="118" y="69" type="curve"/>
      <point x="115" y="44"/>
      <point x="89" y="38"/>
      <point x="29" y="26" type="curve"/>
      <point x="32" y="-3" type="line"/>
      <point x="74" y="-1" smooth="yes"/>
      <point x="123" y="0" smooth="yes"/>
      <point x="173" y="0" type="curve" smooth="yes" name="hr03"/>
      <point x="223" y="0"/>
      <point x="264" y="-1"/>
      <point x="306" y="-3" type="curve" name="hr04"/>
      <point x="309" y="26" type="line"/>
      <point x="249" y="38"/>
      <point x="227" y="44"/>
      <point x="224" y="69" type="curve"/>
      <point x="224" y="69"/>
      <point x="216" y="126"/>
    </contour>
    <contour>
      <point x="360" y="151" type="line"/>
      <point x="366" y="194" type="line"/>
      <point x="46" y="194" type="line"/>
      <point x="40" y="151" type="line"/>
    </contour>
  </outline>
</glyph>
<glyph name="lira" format="1">
  <advance width="523"/>
  <unicode hex="20A4"/>
  <outline>
    <contour>
      <point x="210" y="332" type="curve" smooth="yes"/>
      <point x="210" y="378" smooth="yes"/>
      <point x="207" y="414" smooth="yes"/>
      <point x="207" y="447" type="curve" smooth="yes"/>
      <point x="207" y="529" smooth="yes"/>
      <point x="218" y="597" smooth="yes"/>
      <point x="297" y="597" type="curve" smooth="yes"/>
      <point x="362" y="597"/>
      <point x="404" y="575"/>
      <point x="429" y="485" type="curve"/>
      <point x="453" y="496" type="line"/>
      <point x="447" y="531"/>
      <point x="442" y="599"/>
      <point x="442" y="633" type="curve"/>
      <point x="427" y="630" smooth="yes"/>
      <point x="414" y="628" smooth="yes"/>
      <point x="403" y="628" type="curve" smooth="yes"/>
      <point x="367" y="628" smooth="yes"/>
      <point x="345" y="641" smooth="yes"/>
      <point x="296" y="641" type="curve" smooth="yes" name="hr01"/>
      <point x="191" y="641" smooth="yes"/>
      <point x="119" y="600" smooth="yes"/>
      <point x="119" y="490" type="curve" smooth="yes"/>
      <point x="119" y="457" smooth="yes"/>
      <point x="134" y="401" smooth="yes"/>
      <point x="134" y="332" type="curve" smooth="yes" name="hr02"/>
      <point x="134" y="214"/>
      <point x="113" y="117"/>
      <point x="76" y="54" type="curve"/>
      <point x="31" y="24" type="line"/>
      <point x="46" y="0" type="line"/>
      <point x="448" y="0" type="line"/>
      <point x="450" y="32"/>
      <point x="459" y="109"/>
      <point x="469" y="140" type="curve"/>
      <point x="446" y="151" type="line"/>
      <point x="417" y="75" smooth="yes"/>
      <point x="372" y="42" smooth="yes"/>
      <point x="251" y="42" type="curve" smooth="yes"/>
      <point x="217" y="42"/>
      <point x="176" y="45"/>
      <point x="128" y="50" type="curve"/>
      <point x="179" y="99" smooth="yes"/>
      <point x="210" y="223" smooth="yes"/>
    </contour>
    <contour>
      <point x="46" y="379" type="line"/>
      <point x="40" y="336" type="line"/>
      <point x="360" y="336" type="line"/>
      <point x="366" y="379" type="line"/>
    </contour>
    <contour>
      <point x="360" y="241" type="line"/>
      <point x="366" y="284" type="line"/>
      <point x="46" y="284" type="line"/>
      <point x="40" y="241" type="line"/>
    </contour>
  </outline>
</glyph>
<glyph name="Euro" format="1">
  <advance width="523"/>
  <unicode hex="20AC"/>
  <outline>
    <contour>
      <point x="327" y="641" type="curve" smooth="yes"/>
      <point x="184" y="641"/>
      <point x="107" y="519"/>
      <point x="84" y="379" type="curve"/>
      <point x="37" y="379" type="line"/>
      <point x="31" y="336" type="line"/>
      <point x="80" y="336" type="line"/>
      <point x="79" y="321" smooth="yes"/>
      <point x="78" y="306" smooth="yes"/>
      <point x="78" y="291" type="curve" smooth="yes"/>
      <point x="78" y="284" type="line"/>
      <point x="37" y="284" type="line"/>
      <point x="31" y="241" type="line"/>
      <point x="81" y="241" type="line"/>
      <point x="97" y="90" smooth="yes"/>
      <point x="187" y="-9" smooth="yes"/>
      <point x="316" y="-9" type="curve" smooth="yes"/>
      <point x="390" y="-9"/>
      <point x="446" y="17"/>
      <point x="491" y="53" type="curve"/>
      <point x="477" y="82" type="line"/>
      <point x="431" y="61" smooth="yes"/>
      <point x="388" y="52" smooth="yes"/>
      <point x="352" y="52" type="curve" smooth="yes"/>
      <point x="248" y="52"/>
      <point x="194" y="112"/>
      <point x="186" y="241" type="curve"/>
      <point x="369" y="241" type="line"/>
      <point x="375" y="284" type="line"/>
      <point x="185" y="284" type="line"/>
      <point x="185" y="302"/>
      <point x="185" y="319"/>
      <point x="186" y="336" type="curve"/>
      <point x="369" y="336" type="line"/>
      <point x="375" y="379" type="line"/>
      <point x="188" y="379" type="line"/>
      <point x="199" y="512" smooth="yes"/>
      <point x="237" y="597" smooth="yes"/>
      <point x="328" y="597" type="curve" smooth="yes"/>
      <point x="393" y="597"/>
      <point x="435" y="575"/>
      <point x="460" y="485" type="curve"/>
      <point x="484" y="496" type="line"/>
      <point x="479" y="526" smooth="yes"/>
      <point x="473" y="584" smooth="yes"/>
      <point x="473" y="620" type="curve" smooth="yes"/>
      <point x="473" y="633" type="line"/>
      <point x="458" y="630" smooth="yes"/>
      <point x="445" y="628" smooth="yes"/>
      <point x="434" y="628" type="curve" smooth="yes"/>
      <point x="398" y="628" smooth="yes"/>
      <point x="376" y="641" smooth="yes"/>
    </contour>
  </outline>
</glyph>
<glyph name="uni2113" format="1">
  <advance width="403"/>
  <unicode hex="2113"/>
  <outline>
    <contour>
      <point x="110" y="79" type="line" name="hr00"/>
      <point x="110" y="-63"/>
      <point x="275" y="-40"/>
      <point x="376" y="106" type="curve"/>
      <point x="351" y="132" type="line"/>
      <point x="246" y="29"/>
      <point x="197" y="34"/>
      <point x="197" y="107" type="curve"/>
      <point x="197" y="563" type="line"/>
      <point x="187" y="602" type="line"/>
      <point x="108" y="560" type="line"/>
    </contour>
    <contour>
      <point x="41" y="168" type="line"/>
      <point x="412" y="377" smooth="yes"/>
      <point x="418" y="685" smooth="yes"/>
      <point x="229" y="685" type="curve" smooth="yes"/>
      <point x="151" y="685"/>
      <point x="108" y="629"/>
      <point x="108" y="560" type="curve"/>
      <point x="108" y="560"/>
      <point x="197" y="563"/>
      <point x="197" y="563" type="curve"/>
      <point x="197" y="605" smooth="yes"/>
      <point x="206" y="640" smooth="yes"/>
      <point x="242" y="640" type="curve" smooth="yes"/>
      <point x="320" y="640"/>
      <point x="321" y="363"/>
      <point x="23" y="202" type="curve"/>
    </contour>
  </outline>
</glyph>
<glyph name="trademark" format="1">
  <advance width="852"/>
  <unicode hex="2122"/>
  <outline>
    <contour>
      <point x="716" y="553" type="line"/>
      <point x="720" y="493" smooth="yes"/>
      <point x="721" y="387" smooth="yes"/>
      <point x="721" y="371" type="curve" smooth="yes"/>
      <point x="721" y="346"/>
      <point x="715" y="341"/>
      <point x="675" y="334" type="curve"/>
      <point x="677" y="317" type="line"/>
      <point x="699" y="318" smooth="yes"/>
      <point x="724" y="318" smooth="yes"/>
      <point x="749" y="318" type="curve" smooth="yes"/>
      <point x="774" y="318"/>
      <point x="799" y="318"/>
      <point x="821" y="317" type="curve"/>
      <point x="822" y="334" type="line"/>
      <point x="794" y="339"/>
      <point x="781" y="343"/>
      <point x="779" y="354" type="curve"/>
      <point x="774" y="397" smooth="yes"/>
      <point x="771" y="435" smooth="yes"/>
      <point x="771" y="497" type="curve" smooth="yes"/>
      <point x="771" y="528" smooth="yes"/>
      <point x="771" y="575" smooth="yes"/>
      <point x="773" y="611" type="curve" smooth="yes"/>
      <point x="774" y="621"/>
      <point x="783" y="624"/>
      <point x="812" y="630" type="curve"/>
      <point x="810" y="647" type="line"/>
      <point x="790" y="646"/>
      <point x="737" y="645"/>
      <point x="713" y="645" type="curve"/>
      <point x="607" y="384" type="line"/>
      <point x="503" y="645" type="line"/>
      <point x="480" y="645"/>
      <point x="426" y="646"/>
      <point x="406" y="647" type="curve"/>
      <point x="405" y="630" type="line"/>
      <point x="441" y="622" smooth="yes"/>
      <point x="446" y="621" smooth="yes"/>
      <point x="446" y="593" type="curve" smooth="yes"/>
      <point x="446" y="552" smooth="yes"/>
      <point x="443" y="391" smooth="yes"/>
      <point x="436" y="353" type="curve" smooth="yes"/>
      <point x="434" y="342"/>
      <point x="424" y="339"/>
      <point x="395" y="334" type="curve"/>
      <point x="397" y="317" type="line"/>
      <point x="413" y="318" smooth="yes"/>
      <point x="432" y="318" smooth="yes"/>
      <point x="452" y="318" type="curve" smooth="yes"/>
      <point x="479" y="318"/>
      <point x="508" y="318"/>
      <point x="529" y="317" type="curve"/>
      <point x="531" y="334" type="line"/>
      <point x="491" y="341" smooth="yes"/>
      <point x="481" y="352" smooth="yes"/>
      <point x="481" y="366" type="curve" smooth="yes"/>
      <point x="481" y="407"/>
      <point x="482" y="502"/>
      <point x="483" y="553" type="curve"/>
      <point x="487" y="553" type="line"/>
      <point x="585" y="313" type="line"/>
      <point x="618" y="320" type="line"/>
      <point x="712" y="553" type="line"/>
    </contour>
    <contour>
      <point x="297" y="621" type="line"/>
      <point x="344" y="621"/>
      <point x="359" y="619"/>
      <point x="375" y="566" type="curve"/>
      <point x="393" y="570" type="line"/>
      <point x="390" y="586" smooth="yes"/>
      <point x="387" y="621" smooth="yes"/>
      <point x="387" y="642" type="curve" smooth="yes"/>
      <point x="387" y="649" type="line" name="hr01"/>
      <point x="348" y="646" smooth="yes"/>
      <point x="309" y="645" smooth="yes"/>
      <point x="247" y="645" type="curve" smooth="yes" name="hr02"/>
      <point x="184" y="645"/>
      <point x="145" y="646"/>
      <point x="106" y="649" type="curve" name="hr03"/>
      <point x="106" y="642" type="line" smooth="yes"/>
      <point x="106" y="621"/>
      <point x="103" y="586"/>
      <point x="100" y="570" type="curve"/>
      <point x="118" y="566" type="line"/>
      <point x="134" y="619" smooth="yes"/>
      <point x="149" y="621" smooth="yes"/>
      <point x="196" y="621" type="curve" smooth="yes" name="hr04"/>
      <point x="206" y="621" type="line" smooth="yes"/>
      <point x="210" y="621"/>
      <point x="213" y="620"/>
      <point x="214" y="611" type="curve"/>
      <point x="214" y="611" smooth="yes"/>
      <point x="218" y="583" smooth="yes"/>
      <point x="218" y="482" type="curve" smooth="yes"/>
      <point x="218" y="381"/>
      <point x="214" y="353"/>
      <point x="214" y="353" type="curve"/>
      <point x="213" y="342"/>
      <point x="201" y="339"/>
      <point x="172" y="334" type="curve"/>
      <point x="174" y="317" type="line"/>
      <point x="196" y="318" smooth="yes"/>
      <point x="221" y="318" smooth="yes"/>
      <point x="247" y="318" type="curve" smooth="yes"/>
      <point x="272" y="318"/>
      <point x="297" y="318"/>
      <point x="318" y="317" type="curve"/>
      <point x="319" y="334" type="line"/>
      <point x="291" y="339"/>
      <point x="280" y="342"/>
      <point x="279" y="353" type="curve"/>
      <point x="279" y="353" smooth="yes"/>
      <point x="275" y="381" smooth="yes"/>
      <point x="275" y="482" type="curve" smooth="yes"/>
      <point x="275" y="583"/>
      <point x="279" y="611"/>
      <point x="279" y="611" type="curve"/>
      <point x="280" y="620" smooth="yes"/>
      <point x="283" y="621" smooth="yes"/>
      <point x="287" y="621" type="curve" smooth="yes"/>
    </contour>
  </outline>
</glyph>
<glyph name="product" format="1">
  <advance width="801"/>
  <unicode hex="220F"/>
  <outline>
    <contour>
      <point x="580" y="627" type="line"/>
      <point x="580" y="620"/>
      <point x="588" y="443"/>
      <point x="588" y="258" type="curve"/>
      <point x="588" y="52"/>
      <point x="580" y="-134"/>
      <point x="580" y="-134" type="curve"/>
      <point x="577" y="-159"/>
      <point x="551" y="-165"/>
      <point x="491" y="-177" type="curve"/>
      <point x="494" y="-206" type="line"/>
      <point x="536" y="-204" smooth="yes"/>
      <point x="585" y="-203" smooth="yes"/>
      <point x="635" y="-203" type="curve" smooth="yes"/>
      <point x="685" y="-203"/>
      <point x="726" y="-204"/>
      <point x="768" y="-206" type="curve"/>
      <point x="771" y="-177" type="line"/>
      <point x="711" y="-165"/>
      <point x="689" y="-159"/>
      <point x="686" y="-134" type="curve"/>
      <point x="686" y="-134" smooth="yes"/>
      <point x="678" y="42" smooth="yes"/>
      <point x="678" y="257" type="curve" smooth="yes"/>
      <point x="678" y="472"/>
      <point x="686" y="614"/>
      <point x="686" y="614" type="curve"/>
      <point x="689" y="639"/>
      <point x="708" y="645"/>
      <point x="768" y="657" type="curve"/>
      <point x="765" y="686" type="line" name="hr01"/>
      <point x="723" y="684"/>
      <point x="685" y="683"/>
      <point x="635" y="683" type="curve" name="hr02"/>
      <point x="174" y="683" type="line"/>
      <point x="124" y="683"/>
      <point x="82" y="684"/>
      <point x="40" y="686" type="curve" name="hr03"/>
      <point x="37" y="657" type="line"/>
      <point x="97" y="645"/>
      <point x="116" y="639"/>
      <point x="119" y="614" type="curve"/>
      <point x="119" y="614" smooth="yes"/>
      <point x="127" y="472" smooth="yes"/>
      <point x="127" y="257" type="curve" smooth="yes"/>
      <point x="127" y="43"/>
      <point x="119" y="-134"/>
      <point x="119" y="-134" type="curve"/>
      <point x="116" y="-159"/>
      <point x="90" y="-165"/>
      <point x="30" y="-177" type="curve"/>
      <point x="33" y="-206" type="line"/>
      <point x="75" y="-204" smooth="yes"/>
      <point x="124" y="-203" smooth="yes"/>
      <point x="174" y="-203" type="curve" smooth="yes"/>
      <point x="224" y="-203"/>
      <point x="265" y="-204"/>
      <point x="307" y="-206" type="curve"/>
      <point x="310" y="-177" type="line"/>
      <point x="250" y="-165"/>
      <point x="228" y="-159"/>
      <point x="225" y="-134" type="curve"/>
      <point x="225" y="-134" smooth="yes"/>
      <point x="217" y="51" smooth="yes"/>
      <point x="217" y="258" type="curve" smooth="yes"/>
      <point x="217" y="442"/>
      <point x="225" y="627"/>
      <point x="225" y="627" type="curve" name="hr04"/>
    </contour>
  </outline>
</glyph>
<glyph name="summation" format="1">
  <advance width="654"/>
  <unicode hex="2211"/>
  <outline>
    <contour>
      <point x="30" y="-168" type="line" name="hr00"/>
      <point x="30" y="-203" type="line"/>
      <point x="600" y="-203" type="line"/>
      <point x="602" y="-167"/>
      <point x="612" y="-80"/>
      <point x="624" y="-44" type="curve"/>
      <point x="597" y="-32" type="line"/>
      <point x="547" y="-127" smooth="yes"/>
      <point x="429" y="-148" smooth="yes"/>
      <point x="326" y="-148" type="curve" smooth="yes"/>
      <point x="227" y="-148"/>
      <point x="131" y="-138"/>
      <point x="131" y="-120" type="curve"/>
      <point x="411" y="259" type="line"/>
      <point x="177" y="613" type="line"/>
      <point x="181" y="634" smooth="yes"/>
      <point x="270" y="635" smooth="yes"/>
      <point x="318" y="635" type="curve" smooth="yes"/>
      <point x="447" y="635"/>
      <point x="531" y="622"/>
      <point x="566" y="509" type="curve"/>
      <point x="593" y="521" type="line"/>
      <point x="587" y="555"/>
      <point x="581" y="626"/>
      <point x="581" y="668" type="curve"/>
      <point x="581" y="683" type="line"/>
      <point x="36" y="683" type="line"/>
      <point x="36" y="653" type="line"/>
      <point x="325" y="226" type="line"/>
    </contour>
  </outline>
</glyph>
<glyph name="radical" format="1">
  <advance width="574"/>
  <unicode hex="221A"/>
  <outline>
    <contour>
      <point x="579" y="691" type="line" name="hr00"/>
      <point x="579" y="730" type="line"/>
      <point x="406" y="730" type="line"/>
      <point x="260" y="173" type="line"/>
      <point x="255" y="173" type="line"/>
      <point x="162" y="465" type="line"/>
      <point x="0" y="430" type="line"/>
      <point x="9" y="393" type="line"/>
      <point x="94" y="411" type="line"/>
      <point x="233" y="0" type="line"/>
      <point x="262" y="0" type="line"/>
      <point x="449" y="691" type="line"/>
    </contour>
  </outline>
</glyph>
<glyph name="infinity" format="1">
  <advance width="600"/>
  <unicode hex="221E"/>
  <outline>
    <contour>
      <point x="523" y="312" type="curve" name="hr00"/>
      <point x="523" y="255" smooth="yes"/>
      <point x="479" y="224" smooth="yes"/>
      <point x="433" y="224" type="curve" smooth="yes"/>
      <point x="389" y="224"/>
      <point x="348" y="254"/>
      <point x="329" y="312" type="curve"/>
      <point x="348" y="370" smooth="yes"/>
      <point x="389" y="401" smooth="yes"/>
      <point x="433" y="401" type="curve" smooth="yes"/>
      <point x="479" y="401" smooth="yes"/>
      <point x="523" y="369" smooth="yes"/>
    </contour>
    <contour>
      <point x="300" y="372" type="curve"/>
      <point x="269" y="431" smooth="yes"/>
      <point x="216" y="459" smooth="yes"/>
      <point x="163" y="459" type="curve" smooth="yes"/>
      <point x="91" y="459" smooth="yes"/>
      <point x="16" y="406" smooth="yes"/>
      <point x="16" y="312" type="curve" smooth="yes"/>
      <point x="16" y="218" smooth="yes"/>
      <point x="91" y="165" smooth="yes"/>
      <point x="163" y="165" type="curve" smooth="yes"/>
      <point x="216" y="165"/>
      <point x="269" y="193"/>
      <point x="300" y="252" type="curve"/>
      <point x="331" y="193" smooth="yes"/>
      <point x="384" y="165" smooth="yes"/>
      <point x="437" y="165" type="curve" smooth="yes"/>
      <point x="509" y="165" smooth="yes"/>
      <point x="584" y="218" smooth="yes"/>
      <point x="584" y="312" type="curve" smooth="yes"/>
      <point x="584" y="406"/>
      <point x="509" y="459"/>
      <point x="437" y="459" type="curve"/>
      <point x="384" y="459"/>
      <point x="331" y="431"/>
    </contour>
    <contour>
      <point x="77" y="312" type="curve" smooth="yes"/>
      <point x="77" y="369" smooth="yes"/>
      <point x="121" y="401" smooth="yes"/>
      <point x="167" y="401" type="curve" smooth="yes"/>
      <point x="211" y="401"/>
      <point x="252" y="370"/>
      <point x="271" y="312" type="curve"/>
      <point x="252" y="254" smooth="yes"/>
      <point x="211" y="224" smooth="yes"/>
      <point x="167" y="224" type="curve" smooth="yes"/>
      <point x="121" y="224" smooth="yes"/>
      <point x="77" y="255" smooth="yes"/>
    </contour>
  </outline>
</glyph>
<glyph name="integral" format="1">
  <advance width="282"/>
  <unicode hex="222B"/>
  <outline>
    <contour>
      <point x="102" y="63" type="line" name="hr00"/>
      <point x="102" y="-113" smooth="yes"/>
      <point x="72" y="-141" smooth="yes"/>
      <point x="12" y="-141" type="curve" smooth="yes"/>
      <point x="-15" y="-141"/>
      <point x="-41" y="-130"/>
      <point x="-54" y="-122" type="curve"/>
      <point x="-66" y="-141" type="line"/>
      <point x="-59" y="-174"/>
      <point x="-34" y="-211"/>
      <point x="-27" y="-211" type="curve"/>
      <point x="102" y="-211"/>
      <point x="180" y="-76"/>
      <point x="180" y="68" type="curve"/>
      <point x="180" y="417" type="line"/>
      <point x="180" y="593"/>
      <point x="210" y="621"/>
      <point x="270" y="621" type="curve"/>
      <point x="297" y="621"/>
      <point x="323" y="610"/>
      <point x="336" y="602" type="curve"/>
      <point x="348" y="621" type="line"/>
      <point x="341" y="654"/>
      <point x="316" y="691"/>
      <point x="309" y="691" type="curve"/>
      <point x="180" y="691"/>
      <point x="102" y="556"/>
      <point x="102" y="412" type="curve"/>
    </contour>
  </outline>
</glyph>
<glyph name="approxequal" format="1">
  <advance width="523"/>
  <unicode hex="2248"/>
  <outline>
    <contour>
      <point x="499" y="415" type="line"/>
      <point x="261" y="511"/>
      <point x="261" y="321"/>
      <point x="24" y="415" type="curve"/>
      <point x="24" y="354" type="line"/>
      <point x="261" y="260"/>
      <point x="261" y="450"/>
      <point x="499" y="354" type="curve"/>
    </contour>
    <contour>
      <point x="499" y="253" type="line"/>
      <point x="261" y="349"/>
      <point x="261" y="159"/>
      <point x="24" y="253" type="curve"/>
      <point x="24" y="192" type="line"/>
      <point x="261" y="98"/>
      <point x="261" y="288"/>
      <point x="499" y="192" type="curve"/>
    </contour>
  </outline>
</glyph>
<glyph name="greaterequal" format="1">
  <advance width="523"/>
  <unicode hex="2265"/>
  <outline>
    <contour>
      <point x="485" y="303" type="line" name="hr00"/>
      <point x="35" y="550" type="line"/>
      <point x="35" y="481" type="line"/>
      <point x="371" y="303" type="line"/>
      <point x="35" y="125" type="line"/>
      <point x="35" y="56" type="line"/>
    </contour>
    <contour>
      <point x="488" y="1" type="line"/>
      <point x="35" y="1" type="line"/>
      <point x="35" y="-60" type="line"/>
      <point x="488" y="-60" type="line"/>
    </contour>
  </outline>
</glyph>
<glyph name="lozenge" format="1">
  <advance width="450"/>
  <unicode hex="25CA"/>
  <outline>
    <contour>
      <point x="248" y="0" type="line" name="hr00"/>
      <point x="410" y="345" type="line"/>
      <point x="248" y="691" type="line"/>
      <point x="201" y="691" type="line"/>
      <point x="40" y="345" type="line"/>
      <point x="201" y="0" type="line"/>
    </contour>
    <contour>
      <point x="345" y="345" type="line"/>
      <point x="225" y="60" type="line"/>
      <point x="106" y="345" type="line"/>
      <point x="225" y="631" type="line"/>
    </contour>
  </outline>
</glyph>
<glyph name="fi" format="1">
  <advance width="581"/>
  <unicode hex="FB01"/>
  <outline>
    <contour>
      <point x="177" y="452" type="curve"/>
      <point x="177" y="627" smooth="yes"/>
      <point x="240" y="670" smooth="yes"/>
      <point x="311" y="670" type="curve" smooth="yes"/>
      <point x="353" y="670"/>
      <point x="396" y="648"/>
      <point x="427" y="610" type="curve"/>
      <point x="457" y="624" smooth="yes"/>
      <point x="476" y="648" smooth="yes"/>
      <point x="476" y="672" type="curve" smooth="yes"/>
      <point x="476" y="708" smooth="yes"/>
      <point x="417" y="730" smooth="yes"/>
      <point x="358" y="730" type="curve" smooth="yes"/>
      <point x="248" y="730"/>
      <point x="101" y="656"/>
      <point x="101" y="451" type="curve"/>
      <point x="67" y="453"/>
      <point x="53" y="455"/>
      <point x="53" y="455" type="curve"/>
      <point x="30" y="416" type="line"/>
      <point x="33" y="405" type="line"/>
      <point x="33" y="405"/>
      <point x="58" y="405"/>
      <point x="102" y="406" type="curve"/>
      <point x="102" y="120"/>
      <point x="95" y="48"/>
      <point x="94" y="48" type="curve"/>
      <point x="92" y="37"/>
      <point x="47" y="28"/>
      <point x="26" y="26" type="curve"/>
      <point x="23" y="-3" type="line"/>
      <point x="55" y="-1" smooth="yes"/>
      <point x="101" y="0" smooth="yes"/>
      <point x="135" y="0" type="curve" smooth="yes" name="hr01"/>
      <point x="169" y="0"/>
      <point x="228" y="-1"/>
      <point x="260" y="-3" type="curve" name="hr02"/>
      <point x="263" y="26" type="line"/>
      <point x="242" y="27" smooth="yes"/>
      <point x="188" y="37" smooth="yes"/>
      <point x="187" y="48" type="curve" smooth="yes"/>
      <point x="186" y="56"/>
      <point x="177" y="125"/>
      <point x="177" y="406" type="curve"/>
      <point x="209" y="409" smooth="yes"/>
      <point x="239" y="411" smooth="yes"/>
      <point x="265" y="411" type="curve" smooth="yes"/>
      <point x="351" y="411"/>
      <point x="401" y="396"/>
      <point x="401" y="396" type="curve"/>
      <point x="401" y="396" smooth="yes"/>
      <point x="409" y="375" smooth="yes"/>
      <point x="409" y="229" type="curve" smooth="yes"/>
      <point x="409" y="83"/>
      <point x="401" y="48"/>
      <point x="401" y="48" type="curve"/>
      <point x="399" y="37"/>
      <point x="352" y="28"/>
      <point x="331" y="26" type="curve"/>
      <point x="328" y="-3" type="line"/>
      <point x="360" y="-1" smooth="yes"/>
      <point x="413" y="0" smooth="yes"/>
      <point x="447" y="0" type="curve" smooth="yes" name="hr03"/>
      <point x="481" y="0"/>
      <point x="530" y="-1"/>
      <point x="562" y="-3" type="curve" name="hr04"/>
      <point x="565" y="26" type="line"/>
      <point x="544" y="28"/>
      <point x="496" y="37"/>
      <point x="494" y="48" type="curve"/>
      <point x="494" y="48" smooth="yes"/>
      <point x="484" y="83" smooth="yes"/>
      <point x="484" y="229" type="curve" smooth="yes"/>
      <point x="484" y="294"/>
      <point x="486" y="414"/>
      <point x="486" y="450" type="curve"/>
      <point x="467" y="459" type="line"/>
      <point x="433" y="452"/>
      <point x="213" y="452"/>
    </contour>
  </outline>
</glyph>
<glyph name="fl" format="1">
  <advance width="588"/>
  <unicode hex="FB02"/>
  <outline>
    <contour>
      <point x="177" y="406" type="curve"/>
      <point x="247" y="405"/>
      <point x="281" y="402"/>
      <point x="281" y="402" type="curve"/>
      <point x="312" y="441" type="line"/>
      <point x="307" y="453" type="line"/>
      <point x="307" y="453"/>
      <point x="259" y="452"/>
      <point x="177" y="452" type="curve"/>
      <point x="177" y="580" smooth="yes"/>
      <point x="210" y="668" smooth="yes"/>
      <point x="304" y="668" type="curve" smooth="yes"/>
      <point x="333" y="668"/>
      <point x="367" y="660"/>
      <point x="408" y="642" type="curve"/>
      <point x="411" y="610" smooth="yes"/>
      <point x="414" y="538" smooth="yes"/>
      <point x="414" y="370" type="curve" smooth="yes"/>
      <point x="414" y="112"/>
      <point x="407" y="48"/>
      <point x="407" y="48" type="curve"/>
      <point x="405" y="37"/>
      <point x="359" y="28"/>
      <point x="338" y="26" type="curve"/>
      <point x="335" y="-3" type="line"/>
      <point x="367" y="-1" smooth="yes"/>
      <point x="419" y="0" smooth="yes"/>
      <point x="453" y="0" type="curve" smooth="yes" name="hr01"/>
      <point x="487" y="0"/>
      <point x="535" y="-1"/>
      <point x="567" y="-3" type="curve" name="hr02"/>
      <point x="570" y="26" type="line"/>
      <point x="549" y="27" smooth="yes"/>
      <point x="502" y="37" smooth="yes"/>
      <point x="500" y="48" type="curve" smooth="yes"/>
      <point x="498" y="60" smooth="yes"/>
      <point x="489" y="113" smooth="yes"/>
      <point x="489" y="352" type="curve" smooth="yes"/>
      <point x="489" y="596"/>
      <point x="491" y="721"/>
      <point x="491" y="721" type="curve"/>
      <point x="472" y="730" type="line" name="hr03"/>
      <point x="449" y="708" type="line"/>
      <point x="423" y="716" smooth="yes"/>
      <point x="395" y="721" smooth="yes"/>
      <point x="367" y="721" type="curve" smooth="yes" name="hr04"/>
      <point x="240" y="721"/>
      <point x="101" y="633"/>
      <point x="101" y="451" type="curve"/>
      <point x="67" y="453"/>
      <point x="53" y="455"/>
      <point x="53" y="455" type="curve"/>
      <point x="30" y="416" type="line"/>
      <point x="33" y="405" type="line"/>
      <point x="33" y="405"/>
      <point x="58" y="405"/>
      <point x="102" y="406" type="curve"/>
      <point x="102" y="120"/>
      <point x="95" y="48"/>
      <point x="94" y="48" type="curve"/>
      <point x="92" y="37"/>
      <point x="47" y="28"/>
      <point x="26" y="26" type="curve"/>
      <point x="23" y="-3" type="line"/>
      <point x="55" y="-1" smooth="yes"/>
      <point x="101" y="0" smooth="yes"/>
      <point x="135" y="0" type="curve" smooth="yes" name="hr05"/>
      <point x="169" y="0"/>
      <point x="228" y="-1"/>
      <point x="260" y="-3" type="curve" name="hr06"/>
      <point x="263" y="26" type="line"/>
      <point x="242" y="27" smooth="yes"/>
      <point x="188" y="37" smooth="yes"/>
      <point x="187" y="48" type="curve" smooth="yes"/>
      <point x="186" y="56"/>
      <point x="177" y="125"/>
    </contour>
  </outline>
</glyph>
<glyph name="ffl" format="1">
  <advance width="897"/>
  <unicode hex="FB04"/>
  <outline>
    <contour>
      <point x="798" y="352" type="curve"/>
      <point x="798" y="596"/>
      <point x="800" y="721"/>
      <point x="800" y="721" type="curve"/>
      <point x="781" y="730" type="line" name="hr01"/>
      <point x="750" y="722"/>
      <point x="744" y="720"/>
      <point x="720" y="717" type="curve"/>
      <point x="705" y="720" smooth="yes"/>
      <point x="691" y="721" smooth="yes"/>
      <point x="676" y="721" type="curve" smooth="yes" name="hr02"/>
      <point x="610" y="721"/>
      <point x="541" y="697"/>
      <point x="490" y="649" type="curve"/>
      <point x="455" y="682" smooth="yes"/>
      <point x="401" y="702" smooth="yes"/>
      <point x="338" y="702" type="curve" smooth="yes" name="hr03"/>
      <point x="224" y="702"/>
      <point x="101" y="636"/>
      <point x="101" y="451" type="curve"/>
      <point x="67" y="453"/>
      <point x="53" y="455"/>
      <point x="53" y="455" type="curve"/>
      <point x="30" y="416" type="line"/>
      <point x="33" y="405" type="line"/>
      <point x="33" y="405"/>
      <point x="58" y="405"/>
      <point x="102" y="406" type="curve"/>
      <point x="102" y="120"/>
      <point x="95" y="48"/>
      <point x="94" y="48" type="curve"/>
      <point x="92" y="37"/>
      <point x="47" y="28"/>
      <point x="26" y="26" type="curve"/>
      <point x="23" y="-3" type="line" name="hr04"/>
      <point x="55" y="-1" smooth="yes"/>
      <point x="101" y="0" smooth="yes"/>
      <point x="135" y="0" type="curve" smooth="yes" name="hr05"/>
      <point x="169" y="0"/>
      <point x="228" y="-1"/>
      <point x="260" y="-3" type="curve" name="hr06"/>
      <point x="263" y="26" type="line" name="hr07"/>
      <point x="242" y="27" smooth="yes"/>
      <point x="188" y="37" smooth="yes"/>
      <point x="187" y="48" type="curve" smooth="yes"/>
      <point x="186" y="56"/>
      <point x="177" y="125"/>
      <point x="177" y="406" type="curve"/>
      <point x="411" y="406" type="line"/>
      <point x="411" y="120"/>
      <point x="404" y="48"/>
      <point x="403" y="48" type="curve"/>
      <point x="401" y="37"/>
      <point x="356" y="28"/>
      <point x="335" y="26" type="curve"/>
      <point x="332" y="-3" type="line" name="hr08"/>
      <point x="364" y="-1" smooth="yes"/>
      <point x="410" y="0" smooth="yes"/>
      <point x="444" y="0" type="curve" smooth="yes" name="hr09"/>
      <point x="478" y="0"/>
      <point x="537" y="-1"/>
      <point x="569" y="-3" type="curve" name="hr10"/>
      <point x="572" y="26" type="line" name="hr11"/>
      <point x="551" y="27" smooth="yes"/>
      <point x="497" y="37" smooth="yes"/>
      <point x="496" y="48" type="curve" smooth="yes"/>
      <point x="495" y="56"/>
      <point x="486" y="125"/>
      <point x="486" y="406" type="curve"/>
      <point x="556" y="405"/>
      <point x="590" y="402"/>
      <point x="590" y="402" type="curve"/>
      <point x="621" y="441" type="line"/>
      <point x="616" y="453" type="line"/>
      <point x="616" y="453"/>
      <point x="568" y="452"/>
      <point x="486" y="452" type="curve"/>
      <point x="486" y="580" smooth="yes"/>
      <point x="520" y="668" smooth="yes"/>
      <point x="614" y="668" type="curve" smooth="yes"/>
      <point x="642" y="668"/>
      <point x="677" y="660"/>
      <point x="717" y="643" type="curve"/>
      <point x="720" y="589" smooth="yes"/>
      <point x="723" y="504" smooth="yes"/>
      <point x="723" y="370" type="curve" smooth="yes"/>
      <point x="723" y="112"/>
      <point x="716" y="48"/>
      <point x="716" y="48" type="curve"/>
      <point x="714" y="37"/>
      <point x="668" y="28"/>
      <point x="647" y="26" type="curve"/>
      <point x="644" y="-3" type="line" name="hr12"/>
      <point x="676" y="-1" smooth="yes"/>
      <point x="728" y="0" smooth="yes"/>
      <point x="762" y="0" type="curve" smooth="yes" name="hr13"/>
      <point x="796" y="0"/>
      <point x="844" y="-1"/>
      <point x="876" y="-3" type="curve" name="hr14"/>
      <point x="879" y="26" type="line" name="hr15"/>
      <point x="858" y="27" smooth="yes"/>
      <point x="811" y="37" smooth="yes"/>
      <point x="809" y="48" type="curve" smooth="yes"/>
      <point x="807" y="60" smooth="yes"/>
      <point x="798" y="113" smooth="yes"/>
    </contour>
    <contour>
      <point x="308" y="661" type="curve"/>
      <point x="373" y="661"/>
      <point x="413" y="634"/>
      <point x="449" y="599" type="curve"/>
      <point x="424" y="559"/>
      <point x="410" y="509"/>
      <point x="410" y="450" type="curve"/>
      <point x="364" y="448" smooth="yes"/>
      <point x="324" y="447" smooth="yes"/>
      <point x="278" y="447" type="curve" smooth="yes"/>
      <point x="244" y="447"/>
      <point x="211" y="448"/>
      <point x="177" y="449" type="curve"/>
      <point x="177" y="627" smooth="yes"/>
      <point x="243" y="661" smooth="yes"/>
    </contour>
  </outline>
</glyph>
<glyph name="caron.case" format="1">
  <advance width="325"/>
  <outline>
    <contour>
      <point x="181" y="752" type="line" name="hr00"/>
      <point x="285" y="947" type="line"/>
      <point x="255" y="952" type="line"/>
      <point x="162" y="838" type="line"/>
      <point x="70" y="952" type="line"/>
      <point x="40" y="947" type="line"/>
      <point x="144" y="752" type="line"/>
    </contour>
  </outline>
</glyph>
<glyph name="caron.salt" format="1">
  <advance width="250"/>
  <outline>
    <contour>
      <point x="62" y="708" type="curve" smooth="yes" name="hr00"/>
      <point x="62" y="686" smooth="yes"/>
      <point x="78" y="665" smooth="yes"/>
      <point x="105" y="665" type="curve" smooth="yes"/>
      <point x="117" y="665"/>
      <point x="132" y="671"/>
      <point x="138" y="681" type="curve"/>
      <point x="140" y="674" smooth="yes"/>
      <point x="140" y="668" smooth="yes"/>
      <point x="140" y="661" type="curve" smooth="yes"/>
      <point x="140" y="624"/>
      <point x="115" y="585"/>
      <point x="81" y="556" type="curve"/>
      <point x="96" y="535" type="line"/>
      <point x="154" y="567" smooth="yes"/>
      <point x="190" y="617" smooth="yes"/>
      <point x="190" y="669" type="curve" smooth="yes"/>
      <point x="190" y="729" smooth="yes"/>
      <point x="151" y="755" smooth="yes"/>
      <point x="116" y="755" type="curve" smooth="yes"/>
      <point x="87" y="755" smooth="yes"/>
      <point x="62" y="738" smooth="yes"/>
    </contour>
  </outline>
</glyph>
<glyph name="circumflex.case" format="1">
  <advance width="325"/>
  <outline>
    <contour>
      <point x="144" y="947" type="line" name="hr00"/>
      <point x="50" y="753" type="line"/>
      <point x="80" y="748" type="line"/>
      <point x="162" y="852" type="line"/>
      <point x="245" y="748" type="line"/>
      <point x="275" y="753" type="line"/>
      <point x="181" y="947" type="line"/>
    </contour>
  </outline>
</glyph>
<glyph name="dotaccent.case" format="1">
  <advance width="267"/>
  <outline>
    <contour>
      <point x="135" y="793" type="curve" name="hr00"/>
      <point x="164" y="793" smooth="yes"/>
      <point x="187" y="816" smooth="yes"/>
      <point x="187" y="847" type="curve" smooth="yes"/>
      <point x="187" y="876"/>
      <point x="164" y="899"/>
      <point x="135" y="899" type="curve"/>
      <point x="106" y="899" smooth="yes"/>
      <point x="83" y="876" smooth="yes"/>
      <point x="83" y="847" type="curve" smooth="yes"/>
      <point x="83" y="816"/>
      <point x="106" y="793"/>
    </contour>
  </outline>
</glyph>
